<?xml version="1.0" encoding="UTF-8"?><svg id="Calque_1" xmlns="http://www.w3.org/2000/svg" viewBox="0 0 654.79 483.65"><defs><style>.cls-1{fill:#839bd1;}</style></defs><path class="cls-1" d="M380.28,466.54c-15.18-1.15-24.19-19.86-24.19-19.86-10.53-6.25-27.65-5.64-33.45-5.22-12.68,12.45-22.7,25.83-27.01,39.73-1.6-.14-3.22-.2-4.84-.19,7.49-30.5,53.2-66.94,71.81-78.32.55-.34,1.17-.72,1.75-1.08-1.95-2.24-12.82-14.59-17.12-16-4.73-1.55-19.09-7.2-19.89-27.75-.79-20.54,10.08-40.76,10.08-40.76,0,0,2.29.1,2.35,3.63.06,3.53,3.04,21.65,8.65,31.98,5.61,10.33,22.24,31.21,17.49,44.79,0,0,15.33-12.12,16.71-25.01,1.38-12.89-4.68-27.1-.62-44.07,4.06-16.97,23.01-21.04,30.7-30.13,7.69-9.09,9.02-11.05,9.02-11.05,0,0,4.07-2.52,4.77.71.7,3.22-6.68,9.8-9.26,16.58-2.58,6.78-6.89,19.71-17.45,37.42,0,0-.94,2.48-2.34,10.83-1.4,8.35-5.7,21.11-18.29,37.55-1.1,1.44-2.1,2.66-3.04,3.8,20.65-13.4,47.5-31.98,61.18-41.9,9.84-7.14,27.37-23.13,42.52-37.55-.11-1.71.46-4.4,3.08-8.65,5.7-9.26,6.49-18.57,6.76-24.9.27-6.32-6.38-15.62-11.84-21.21-5.46-5.59-12.91-6.76-31.7-14.03-18.8-7.27-19.62-22.53-20.13-27.91-.51-5.38,3.89-26.8,3.83-30.38-.06-3.58,3.5-2.12,3.5-2.12,8.05,17.86,13.59,37.09,14.96,43.26,1.38,6.17,13.53,19.08,25.58,25.05,12.05,5.97,16.2,19.03,16.2,19.03,1.57-17.61,11.23-31.74,11.23-31.74,1.85-12.59-8.39-30.56-14.47-41.81-6.07-11.24-3.26-28.02,1.36-37.96,4.62-9.94,11-35.83,12.04-39.2,1.04-3.37,3.69-1.57,3.69-1.57,1.42,7.25,7.53,12.38,16.35,41.76,8.82,29.38-5.82,65.45-7.48,69.93-1.65,4.48-4.08,7.41-4.08,7.41-14.27,16.07-13.84,23.93-16.51,41.64-2.67,17.71-4.85,20.71-6.8,24.44-1.11,2.13-1.76,4.23-2.11,5.65,9.54-9.15,17.75-17.29,21.88-21.6,11-11.47,40.87-31.79,40.87-31.79.84-12.09,33.27-36.64,43.24-41.51,9.98-4.86,26.69-10.09,41.41-17.33,14.72-7.24,17.56-23.29,19.09-27.88,1.54-4.59,5.01-3.77,5.01-3.77.1,36.97-3.83,60.27-39.85,69.88-36.02,9.6-77.33,25.4-109.79,59.46-32.46,34.07-57.23,54.95-91.78,79.14-19.37,13.56-59.27,35.81-87.76,62.62,11.24-.63,21.77,1.88,35.91,7.83,15.99,6.73,31.57,3.37,43.37.51,11.8-2.86,19.9-6.72,23.49-7.74,3.59-1.02,3.48,1.66,3.48,1.66l-4.75,8.71c-10.22,19.4-31.65,18.15-46.83,17Z"/><path class="cls-1" d="M235.3,70.42c4.29-8.1,13.76-12.2,22.52-13.43,4.83-.68,6.19.03,4.85,5.35-1.47,5.83-5.03,11.96-6.48,17.63-7.4,28.91,18.66,53.59-11.01,77.13-9.12,7.24-19.71,8.06-28.87,14.45-4.07,2.84-7.74,7.12-10.12,11.4.26,1.4,11.8,9.14,13.86,10.76,33.01,26,58.62,67.98,69.79,107.85,1.57,5.6,2.52,11.76,3.86,17.44l9.29-20.54c11.21-33.31-4.12-64.32,11.79-97.6,4.83-10.11,18.94-25.03,30.12-27.17,17.67-3.38,34.52-5.38,48.76,7.79,4.8,4.44,8.82,12.03,9.01,18.64.06,2.21-1.19,3.88-3.48,3.74-2.04-.13-7.04-5.24-9.31-6.6-9.58-5.73-43.34-12.48-54.34-10.84-.72.11-1.42.18-2.07.54,2.23,4.24,4.27,8.68,6.73,12.8,2.53,4.23,6.1,7.99,8.15,12.84,6.67,15.8-8.36,31.75-4.8,46.42,1.59,6.58,5.87,11.75,5.37,19.13-.72,10.65-17.55,24.24-26.09,29.57-7.52,4.7-18.74,8.87-23.58,16.81-1.33,2.18-1.25,4.45-3.33,6.27,8.37,50.37,5.82,101.41-.27,151.73l-1.58,1.13c-1.08-.5-1.07-9.61-1.04-11.28.23-15.69,2.37-32.01,2.72-47.77-1.06-11.5,1.61-25.92.08-37.11-2.47-18.05-23.92-26.92-39.12-30.89-29.11-7.6-49.54-5.27-70.06-32.31-1.48-1.96-2.16-5.77,1.05-5.12.37.07,4.75,3.66,6.23,4.35,5.21,2.45,18.36,5.3,23.85,4.17,3.02-.63,6.92-2.46,10.01-3.23,10.31-2.56,20.14-2.26,30.24.84,19.38,5.96,29.5,16.6,34.64,36.71.09.35.52,2.32,1.05,1.29.16-7.31-.7-14.8-1.79-22.03-7.79-51.61-25.46-88.52-60.06-127.42-3.11-3.5-7.1-8.39-10.35-11.56-5.34-5.2-12.13-10.19-18.22-14.96-5.19-.55-7.85,2.92-9.75,7.12-7.2,15.9-3.13,34.71-20.1,46.13-5.13,3.45-10.14,3.62-15.36,6.2-5.91,2.92-10.78,9.09-16.36,12.69-11.09,7.16-18.71,7.33-30.58,10.84-8.3,2.46-14.06,5.95-23.34,5.65-2.09-.07-12.16-1.34-13.85-1.89-5.11-1.69,3.37-8.67,5.55-10.14,12.31-8.32,28.53-11.37,38.71-23.53,7.95-9.49,12.27-19.93,25.27-24.26,10.99-3.66,23.14.79,32.53-7.48.44-.39,1.4-.72,1.02-1.37-7.27,2.53-15.86,2.83-23.11.11-3.05-1.14-6.12-3.91-9.15-5.31-6.12,5.57-14,8.23-21.14,12.16-9.98,5.5-22.63,15.46-34.42,13.76-4.31-.62-14.45-5.25-16.88-5.22-1.25.02-4.06,1.47-5.68,1.82-9.95,2.13-20.37-1.01-28.17-7.29-12.22-9.83-7.42-17.08-12.63-29.24-2.99-6.99-11.06-14.56-9.09-23.62.75-3.46,3.32-6.9,4.73-9.83,1.32-2.74.67-6.71,3.74-9.19-9.52-6.88-17.38-19.72-11.33-31.24,7.97-15.19,21.12-26.71,30.98-40.45,2.73-3.8,10.13-18.18,12.12-19.89,1.12-.97,2.34-1.11,3.24-1.82,15.83-12.27,25.29-39.84,43.59-48.7,14.24-6.89,50.3-1.59,65.77,2.59,8.15,2.2,20.94,6.5,27.38,11.81,11.94,9.87,22.46,20.67,30.53,34,3.37,5.56,7.48,12.19,7.78,18.69ZM232.26,76.41l2.12-5.31c-2.66-5.64-5.4-10.45-8.99-15.51-9.51-13.39-20.9-24.48-33.27-35.19-14.11-12.21-50.94-15.72-69.39-15.54-13.65.13-19.53,1.64-29.11,11.86-3.25,3.47-5.39,7.48-8.19,11.03-6.67,8.45-19.8,21.39-19.28,32.61.26,5.57,3.83,10.86,3.11,16.49-.51,4-2.64,4.74-4.53,7.77-7.43,11.97.52,26.25,2.77,38.79,1.47,8.18.2,14.72,6.09,21.65,2.92,3.44,7.54,5.67,10.4,9.18.96.27,3.2-5.37,4.78-6.23,2.16-1.17,6.61-.37,9.24-.98,5.76-1.34,8.14-3.92,11.24-8.65-6.76-6.91-14.56-14.16-18.72-23.06-4.55-9.74-4.74-22.59-.27-32.35,1.18-2.57,3.17-5.35,4.69-7.76-9.14-9.7-18.26-22.35-2.44-30.83,1.81-.97,3.89-1.32,5.66-2.37,4.8-2.83,8.45-9.26,14.31-11.59,5.44-2.17,17.57.19,23.28,1.87,1.06.31,2.52,1.43,3.47,1.36,1.97-.14,8.14-3.84,11.08-4.71,15.18-4.45,26.06,9.12,36.89,16.09,6.74,4.33,15.55,4.45,21.59,10.14,4.88,4.59,7.82,13.28,10.09,19.53.41,1.12.2,2.61.82,3.48,1.31,1.83,8.87,4.26,9.74,7.97l2.78-9.78ZM137.66,34.96c-6.65-2.77-19.43-3.83-25.74-.27-3.87,2.18-6.89,7.34-10.62,9.54-4.62,2.73-13.02,3.19-14.62,9.39-1.89,7.33,6.23,14.03,10.81,18.69,7.37-8.27,22.18-3.64,29.5,2.62l5.49-2.4c.42-.29.26-1.34-.03-1.71-1.17-1.47-7.4-3.68-9.44-5.32-1.36-1.1-5.67-5.57-6.29-7.01-.38-.89-.73-3.01-.6-3.95.45-3.2,8.69-11.17,11.41-13.27,3.02-2.33,6.77-4.46,10.12-6.3ZM63.58,53.72c-7.43,4.56-9.96,13.62-14.37,20.72-5.82,9.37-13.16,16.16-20.05,24.52-3.47,4.21-10.85,12.98-13.25,17.35-3.57,6.47.61,15.33,5.17,20.27,3.28,3.55,9.25,6.56,12.74,9.85,13.13,12.38,12.87,32.75,33.61,39.89,9.81,3.38,20.87,1.65,30.91.27-2.02-7.6-8.94-13.04-12.35-19.89-1.53-3.08-1.68-6.72-3.2-9.3-2.06-3.5-8.07-6.84-10.96-10.19-7.37-8.52-5.35-18.23-7.75-28.57-2.75-11.9-9.03-23.96-1.48-35.77,2.7-4.22,5.84-4.51,3.82-10.86-.9-2.82-2.2-4.9-2.81-8.28-.65-3.62-.21-6.44-.04-10.01ZM215.35,75.8c-2.95-6.15-5.17-13.56-10.44-18.19-3.59-3.16-8.56-3.71-12.69-5.4-12.78-5.19-16.41-18.24-33.28-20.53-10.73-1.46-27.8,10.53-35.17,18.1-2.23,2.3-5.18,4.42-3.33,7.72,3.61,6.42,13.35,5.97,15.67,11.67.61,1.5.17,2.64,1.29,4.32,1.59,2.4,5.25,3.54,7.29,5.66,3.6,3.76,4.05,8.84,6.76,13.21,2.51,4.05,5.54,5.62,8.34,9.2,9.82-7.4,9.54-20.94,22.82-25.07,8.56-2.66,18.44-2.82,27.19-1.48,1.03.16,5.2,1.64,5.56.79ZM116.35,87.9c1.6-4.43,5.65-7.85,8.34-11.56-4.66-3.84-11.73-5.73-17.71-5.1-4.92.52-6.69,3.06-9.43,6.84-1.32,1.82-6.78,10.66-5.73,12.44,2.93,1.59,5.58,3.64,7.97,5.96,4.6,4.49,8.59,11.84,14.11,15.02,3.71,2.14,6.02.75,9.78.95,5.94.32,11.13,3.47,16.14,6.35-.93-4.2-4.17-7.46-7.72-9.66-3.73-2.31-10.59-3.39-13.42-6.51-2.93-3.23-3.77-10.73-2.32-14.73ZM142.72,82.13c-1.65-3.15-6.03-3.68-8.22-6.78-7.13,2.11-15.58,10.79-15.2,18.56.39,7.81,5.06,6.24,10.42,9.54.18-2.74-.56-5.47-.28-8.28.66-6.9,5.21-15.35,13.28-13.04ZM148.26,136.45c-1.38-5.28-5.27-9.13-7.37-14.1-5.68-2.55-11.03-5.47-17.37-5.88-2.18-.14-4.39.37-6.58.11-11.59-1.36-16.67-17.86-26.01-23.09-3.2,18.01,9.49,30.47,20.96,42.19,7.65-7.23,20.09-6.17,29.45-3.35l6.93,4.11ZM144.46,83.73c-2.29,2.35-5.78,1.25-8.08,3.94l-2.31,4.26c4.56,2.07,8.82.95,13.22-.82l-2.83-7.38ZM148.04,93.08c-4.24,6.06-9.77,4.23-15.58,2.01l-.3,9.34,8.04,5.75c1.12-6.3,4.66-7.36,10.34-5.79,1.39.38,2.7,1.66,4.17,1.63s2.79-.6,1.85-2.25c-.84-1.47-4.64-4.51-6.1-6.51-.93-1.28-1.31-2.98-2.42-4.18ZM208.35,144.51c2.2-1.15,2.12-3.84,3.15-5.73,4.08-7.5,10.83-13.71,14.26-21.8,3.41-8.06,2.63-16.86,3.44-25.42-3.45-2.14-6.19-5.49-9.44-7.81-8.94-6.38-26.58-6.59-36.71-3.2-8.9,2.97-11.16,13.8-16.8,20.46-1.57,1.85-5.11,4.05-6.13,6.43-.61,1.43-1.75,2.53-2.91,3.55-.86.76-1.23,1.94-1.46,3.69-1.1,8.36,5.53,17.24,6.9,25.53.63,3.8-.39,8.05.08,11.87,3.66-2.67,6-6.88,9.67-9.56,5.08-3.72,15.44-8.28,21.73-7.71,4.36.39,13.12,5.09,14.24,9.7ZM119.05,204.62c-7.98-3.23-14.1-7.55-18.25-15.35-12.9,4.42-28.5,5.71-40.61-1.37-4.54-2.66-8.97-6.73-12.31-10.82-8-9.78-10.28-24.16-22.11-30.46,2.1,6.06-5.51,12.21-5.92,16.75-.93,10.44,7.34,15.74,10.62,24.15,3.39,8.69.65,16.98,7.86,23.72,21.35,19.92,36.26,3.03,57.9-3.53,7.34-2.22,15.26-2.3,22.8-3.09ZM258.86,59.73c-8.48,1.95-15.86,4.7-20.96,12.06-10.59,15.25-2.4,34.27-9.78,49.92-3.41,7.22-12.71,16.43-14.58,23.69-.98,3.81-.26,9.88-.74,13.96-.51,4.42-1.85,9.23-3.22,13.46,2.02-1.56,3.89-3.44,6.03-4.86,9.13-6.04,18.72-6.89,27.39-14.3,25.2-21.55.41-47.99,9.12-74.71.5-1.53,7.9-18.71,6.74-19.23ZM158.5,145.52c-.36-12.07-11.24-23.62-5.2-35.62-2.85-2.18-7.95-4.42-10.27-.48-.16.27-1.25,3.73-1.23,3.94.1,1.22,1.97,7.88,2.49,9.19,1.62,4.06,4.53,7.01,5.95,11.73.47,1.57.3,3.81.98,5.15.78,1.56,5.5,5.22,7.28,6.09ZM141.04,200.17c-1.69-2.51-2.73-4.89-2.76-7.97-.03-2.98,1.81-20.32,2.75-22.45,3.34-7.51,10.63-7.21,16.27-11.51,1.9-1.45,1.4-5.7.35-7.56-1.22-2.14-13.21-12.95-15.66-14.37-5.48-3.17-17.6-3.78-23.15-.97-6.03,3.05-8.23,11.18-15.16,14.04-6.66,2.75-15.07-2.14-16.14,7.89-.76,7.15,5.54,12.17,9.11,17.5,3.86,5.76,8.34,14.87,13.42,19.31,4.59,4.01,17.47,8.24,23.54,7.62,2.76-.29,4.78-1.35,7.42-1.55ZM184.96,141.21c-12.83,5.7-13.97,11.1-23.05,19.09-4.99,4.4-10.17,4.53-15.54,7.35-5.12,2.68-3.06,12.6-3.1,17.39-.02,2.79-1.56,9.25.09,11.25,1.67,2.03,10.36,6.42,13.09,7.32,6.91,2.28,21.87,2.15,27.75-2.32,5.37-4.08,7.16-14.35,12-17.09,1.27-.72,2.96-.81,4.02-1.88,1.22-1.23,6.24-12.39,6.77-14.53.73-2.97,2.14-16.69,1.33-19.03-1.33-3.85-5.94-8-9.64-9.57-4.84-2.05-9.22.02-13.72,2.02ZM130.67,206.95c-5.41-2.15-10.04.75-15.27,1.76-8.15,1.56-16.05,2.38-24.05,5.34l-14.12,6.58,12.6,3.31c13.12,1.62,28.68-12.97,40.85-16.99ZM186.29,204.87c-3.68,3.41-7.06,7.8-11.66,10.09-14.4,7.18-26.08-1.07-40.04,11.5-7.94,7.15-12.08,17.54-20.29,23.59-10.89,8.03-24.84,12.34-35.21,19.79-.41.29-1.06.55-.68,1.11,3.16-.3,6.41,1.01,9.56.99,9.56-.07,19.15-4.76,28.27-7.55,3.21-.98,8.08-1.42,10.9-2.48,12.29-4.63,21.91-15.9,34.97-20.73,1.74-.64,3.61-.7,5.62-1.54,13.66-5.64,16.81-21.73,18.55-34.77Z"/><path class="cls-1" d="M122.12,236.86s-18.39,14.61-38.92,2.76c-20.53-11.84-8.51-10.97-23.58-14.72l8.57-.92s2.28.84,5.6,4.55c3.32,3.71,6.32,6.11,9.82,7.69s21.28,10.35,40.39-3.33l-1.89,3.96Z"/><path class="cls-1" d="M59.47,97.71s-11.03,6.64-11.37,19.18c-.34,12.54,7.97,11.57,11.54,20.9,3.57,9.33,3.13,17.03,24.18,21.07l.49-3.52s-15.39.49-20.67-13.69c-5.27-14.18-8.67-12.58-10.77-16.86-2.1-4.29-3.4-16.13,7.26-23.76l-.67-3.31Z"/><path class="cls-1" d="M86.49,19.68s-16.35,2.14-28.21,15.3c-11.86,13.16-4.09,10.91-25.11,23.62-21.02,12.71-15.08,48.9-15.08,48.9l3.94-2.88s-6.23-30.23,12.38-42.4c18.69-12.23,19.62-13.41,26.1-24.45,6.48-11.04,24.16-15.97,25.12-14.65l.96,1.31-.11-4.75Z"/><path class="cls-1" d="M18.6,91.1S-1.64,112.97,4.37,132.34c6,19.38,15.76,25.73,15.76,25.73l-1.7,3.66s-12.83-11.44-17.31-30.02c-4.48-18.58,5.14-33.72,17.21-44.92l.28,4.31Z"/><path class="cls-1" d="M163.82,30.17s18.1,4.57,24.93,1.44,18-3,25.36,6.09l3.29,5.21s-12.25-12.4-27.58-7.83c-15.33,4.57-23.36-2.19-23.36-2.19l-2.64-2.72Z"/></svg>