<?xml version="1.0" encoding="UTF-8"?><svg id="Calque_1" xmlns="http://www.w3.org/2000/svg" viewBox="0 0 467.61 531.29"><defs><style>.cls-1{fill:#743a2b;}</style></defs><path class="cls-1" d="M437.54,7.68c2.22,2.12,6.42,7.6,7.25,10.47.34,1.17.17,2.62.49,3.83.13.49,1.81.99,2.42,1.41,10.5,7.29,21.13,28.86,19.78,41.66-2.56,24.34-22.6,37.72-44.62,43.23-14.97,3.75-28.91-1.22-38.84-12.55-3.98-4.54-7.09-10.34-11.86-14-10.39,3.27-19.07,11.98-25.01,20.89-16.89,25.34-11.59,61.46-13.51,90.6-.57,8.63-1.72,17.64-3.31,26.15,4.13-4.79,8.62-9.69,14.1-13.01,5.1-3.09,11.7-4.75,16.86-7.64,7.58-4.24,21.51-17.36,26.59-24.48,1.05-1.47,5.03-8.97,5.77-9.37,1.61-.88,3.22.2,3.25,1.98-2.13,7.69-3.09,17.48-6.26,24.71-2.69,6.13-10.55,16.43-15.95,20.18-12.17,8.45-27.71,5.84-40.48,12.01-7.71,3.73-6.28,9.82-8.4,17.07-4.82,16.47-11.27,32.54-18.25,48.04-8.96,19.91-25.39,48.31-27.01,69.86-.04.58-.55,1.81.43,1.67,9.94-20.45,24.88-41.42,48.11-47.35.21-2.78-.58-5.3-.6-8.19-.05-7.26,2.76-15.81,7.95-21.04,4.34-4.37,17.82-10.89,23.63-7.84.95.5,1.63,1.89,2.59,2.13,4.27,1.07,9.23,1.03,13.55,3.46,8.7,4.88,10.94,18.65,9.07,27.54-.55,2.62-3.24,10.8-4.63,12.88-6.2,9.26-10.99,9.58-20.23,12.21-10.02,2.85-21.4.47-26.6-9.41-1-1.9-2.14-7.04-3.07-8.15-.5-.6-.78-.49-1.46-.39-1.26.19-6.53,2.17-7.94,2.8-14.88,6.62-30.23,27.59-37.29,41.94-12.01,24.4-8.68,55.28-10.26,81.95-.17,2.88-.43,6.07-1.53,8.73-2.22-2.59-1.36-6.47-1.65-9.66-2.14-23.35-1.19-54.66,2.73-77.8.52-3.05,1.33-6.88,1.36-10.02.04-4.37-.21-9.83-.23-14.36-.06-13.39,3.99-21.8-5.12-34.21-11.73-15.98-35.97-16.9-44.99-32.94-5.44-9.68-4.48-19.61-12.7-28.05-3.21-3.29-10-6.26-9.58-11.07l1.7-1.22c10.84.94,22.01,2.17,31.89,6.99,27.6,13.46,43.44,53.71,42.98,83.05-.12,7.62-2.24,15.32-.81,22.88l8.28-23.02c7.54-17.69,20.71-36,22.09-55.64,1-14.2-13.61-35.3-23.29-45.16-13.65-13.92-47.09-35.47-52.4-53.31-1.02-3.42-1.6-6.4-2.65-9.81-6.86-.28-14.12-2.21-20.59-4.5-6-2.12-17.51-8.52-20.17-14.33-6.3-13.77-.83-33.21,8.17-44.65,5.3-6.75,12.81-13.93,22.09-12.64,4.16-9.78,14.07-10.21,22.99-6.81,14.28,5.44,25.22,25.81,23.93,40.7-1.22,14.12-8.64,32.11-22.32,38.14-3.13,1.38-6.72,1.71-9.79,3.3.73,9.78,5.93,17.43,12.56,24.22,6.63,6.8,15.67,14.37,23.04,20.51,3.27,2.73,6.88,5.2,10.26,7.79-3.67-12.48,1.69-25.53,3.72-37.97,1.36-8.36,2.05-15.5,1.55-24.02-.14-2.38-2.11-5.93.62-7.55,2.37-.66,4.51,4.59,5.48,6.46,3.59,6.91,10.04,20.98,10.08,28.45.07,11.14-10.34,21.75-10.95,34.01-.63,12.71,5.26,16.81,10.97,26.35,4.11,6.87,9.2,18.12,9.68,26.11.14,2.34-.9,5.19-.48,7.58,4.88-10.9,9.14-22.88,12.08-34.48,7.21-28.41,6.37-54.88,7.81-83.73,1.05-21.08,1.19-37.04,14.45-54.63,6.21-8.24,15.62-16.01,25.39-19.53.61-.82-3.4-17.33-3.62-20.15-.94-11.7,9.23-35.27,17.79-43.37,5.33-5.04,9.1-4.84,14.48-7.82,1.04-.58,1.54-1.63,2.57-2.18,10.97-5.81,26.7-4.65,35.84,4.09ZM433.9,8.85c-5.91-5.6-13.32-5.46-21.02-5.25-.38,1.77,2.02.8,3.33,1.06,3.45.68,8.53,2.31,9.44,6.26.92,4.01-7.05,6.78-5.8,12.17.45,1.95,3.31,1.46,4.8,1.93,1.23.39,2.36,1.25,3.7,1.48,4.96.86,11.16-.31,12.1-6.09.54-3.36-4.12-9.27-6.54-11.56ZM420.26,12.3c.12-.95-.46-1.84-1.38-2.14-7.58-2.43-16.05-1.38-23.19,2.05-14.55,6.98-25.73,31.06-24.59,46.74.32,4.38,2.03,8.86,2.06,13.31,2.5-2.37,2.35-6.34,3.79-9.42,1.8-3.85,6.79-9.6,9.93-12.59,8.71-8.29,20.37-12.62,31.2-17.39.37-.53-3.11-4.5-3.52-5.75-2.12-6.46,1.16-10.81,5.71-14.82h0ZM443.36,95.64c14.61-8.95,24.32-27.4,19.47-44.54-1.56-5.53-8.07-15.48-11.94-19.88-1.34-1.52-5.64-6.26-7.54-6.08l-3.3,4.09c5.91,5.77,9.37,15.23,2.85,21.99.04.82,4.04,2.76,4.61,3.3.4.38,1.03.79,1.39,1.16,8.88,9.05,8.95,16.37,3.07,27.41l-8.61,12.55ZM430.49,42.44c2.35-4.69,4.22-10.88-3.01-11.46,1.61,3.46,2.8,7.41,1.95,11.23l1.06.23ZM429.05,45.67c.56,6.87,9.44,6.14,11.86.65,2-4.54-1.25-11.9-4.75-15.11.31,2.92.95,5.43-.4,8.27-.86,1.81-4.68,5.85-6.71,6.2ZM379.13,83.83c8.65,10.4,17.09,20.66,31.76,21.8,16.71,1.3,32.56-14.74,38.31-29.19,2.43-6.11,1.6-10.12-2.2-15.47-5.25-7.39-10.27-3.82-17.12-6.16-9.52-3.25-4.14-11.64-5.4-18.17-.77-4-2.03-1.63-3.54-.83-10.73,5.67-23.44,9.88-32.1,18.82-6.34,6.55-7.75,11.57-11.21,19.53-.55,1.27-2.25,3.06-2.44,4.31-.28,1.87,2.94,4.17,3.93,5.37ZM258.98,130.84c1.01-.2.79-1.18,1.04-1.82,7.34-19.16-.61-40.02-19.23-48.66-3.3-1.53-9.12-3.26-12.68-2.5-1.49.32-7.03,3.84-5.97,5.32,1.99.56,4.29,1.95,5.88,3.23,2.38,1.93,4.31,5.75,6.26,6.91,2,1.19,5.28,1.53,7.4,2.42,10.09,4.22,14.85,11.76,16.78,22.32.77,4.24,1.21,8.5.52,12.79ZM215.39,86.06c-6.39.54-12.5,5.98-16.47,10.8-6.92,8.41-9.67,18.71-9.49,29.52l2.49-4.02c5.71-6.81,12.94-7.35,20.48-10.86,2.6-1.21,5.95-2.85,7.89-4.83-8.19-.19-12.43-11.69-7.71-17.89.88-1.15,2.07-1.67,2.81-2.71ZM228.78,93.99c.97-1.51-4.98-6.23-6.68-6.48-2.84,1.19-6.52,2.17-8.1,5.14-2.3,4.32,2.05,12.44,7.26,12.13.93-5.02,1.9-9.46,7.51-10.79ZM227.03,98.97c-1.67,1.59-1.93,5.91-2.94,8.18-5.73,12.81-34.01,8.96-32.28,27.84.57,6.23,8.55,10.41,13.78,13.01,3.88,1.93,20.83,7.26,24.54,6.99,1.18-.08,1.74-1.01,2.59-1.15,4.14-.65,5.97-.24,10.14-2.22,15.5-7.33,16.56-32.61,7-45.05-3.1-4.04-10.61-7.35-15.53-8.42-2.3-.5-5.47-.93-7.3.8ZM337.5,321.68c2.34-8.98,7.75-15.79,17.61-16.38,1.79-.11,3.66.62,5.12.27,3.96-.93,2.52-4.79,2.89-7.51.57-4.25,4.65-8.57,1.54-13.33-.23-.36-5.98-5.52-6.37-5.69-4.38-1.95-14.23,3.01-17.77,6.05-8.77,7.55-9.94,26.36-4.2,35.97.35.59,0,.89,1.19.63ZM376.43,285.43c-.87-.81-.86-1.13-2.17-1.76-1.7-.82-4.65-1.63-6.56-1.68,2.09,1.36,1.54,7.19,2.15,8.09.53.78,2.78,1.48,3.47,2.37,1.37,1.76,2.09,5.82,1.59,7.99-.55,2.41-4.24,5.21-3.64,7.09.27.85,4.34,4.13,5.3,5.8.8,1.41,1.07,2.83,1.54,4.33,3.84-8.27,4.74-20.29.87-28.7-.95-2.06-.97-2.06-2.55-3.53ZM369.5,304.28c.86-.72,2.04-9.73-1.36-9.42-.68,3.39-2.05,7,1.36,9.42ZM364.3,306.04c-5.4,5.37-13.52,1.54-19.48,6.45-1.58,1.31-7.14,11.01-6.44,12.3,3.6,3.94,9.59,7.22,15.01,7.39,4.42.14,15.34-3.1,18.96-5.67,8.13-5.78-2.95-12.01-6.03-16.36-.79-1.11-1.39-2.85-2.01-4.11Z"/><path class="cls-1" d="M342.05,441.35c-1.68,15.13-20.69,23.48-20.69,23.48-6.61,10.3-6.59,27.44-6.37,33.25,12,13.1,25.02,23.58,38.77,28.37-.19,1.6-.31,3.21-.36,4.83-30.22-8.54-65.06-55.49-75.79-74.48-.32-.57-.68-1.19-1.02-1.78-2.31,1.87-15.02,12.3-16.58,16.55-1.71,4.67-7.86,18.83-28.42,18.91-20.56.08-40.39-11.49-40.39-11.49,0,0,.18-2.29,3.71-2.22,3.53.06,21.74-2.29,32.26-7.54,10.51-5.25,31.96-21.15,45.37-15.93,0,0-11.58-15.74-24.42-17.57-12.83-1.83-27.24,3.74-44.07-.9-16.82-4.65-20.23-23.73-29.05-31.72-8.81-8-10.73-9.4-10.73-9.4,0,0-2.37-4.16.87-4.74,3.25-.58,9.56,7.01,16.25,9.83,6.69,2.82,19.46,7.57,36.79,18.74,0,0,2.45,1.03,10.74,2.71,8.29,1.69,20.9,6.43,36.89,19.58,1.4,1.15,2.59,2.19,3.69,3.17-12.68-21.1-30.31-48.58-39.76-62.6-6.79-10.08-22.16-28.15-36.06-43.8-1.72.05-4.38-.61-8.54-3.37-9.06-6.02-18.34-7.13-24.65-7.62-6.31-.49-15.83,5.83-21.61,11.1-5.78,5.26-7.2,12.66-15.12,31.2-7.91,18.53-23.2,18.83-28.59,19.15-5.4.32-26.65-4.81-30.22-4.88-3.58-.06-2-3.57-2-3.57,18.12-7.43,37.54-12.29,43.75-13.46,6.22-1.16,19.54-12.87,25.92-24.7,6.38-11.83,19.58-15.54,19.58-15.54-17.55-2.18-31.33-12.32-31.33-12.32-12.52-2.28-30.84,7.33-42.28,13.01-11.45,5.68-28.12,2.29-37.89-2.67-9.78-4.96-35.43-12.23-38.76-13.39-3.33-1.15-1.44-3.74-1.44-3.74,7.3-1.17,12.64-7.1,42.3-14.9,29.66-7.8,65.21,8.08,69.62,9.89,4.42,1.81,7.26,4.33,7.26,4.33,15.56,14.82,23.44,14.66,41.05,17.94,17.61,3.28,20.53,5.56,24.19,7.64,2.09,1.19,4.16,1.9,5.57,2.31-8.81-9.85-16.67-18.34-20.83-22.62-11.09-11.39-30.36-41.95-30.36-41.95-12.06-1.25-35.47-34.51-39.99-44.65-4.52-10.14-9.16-27.02-15.89-41.98-6.73-14.96-22.67-18.35-27.21-20.05-4.54-1.69-3.59-5.14-3.59-5.14,36.96,1.18,60.1,5.91,68.45,42.24,8.35,36.33,22.7,78.17,55.63,111.78,32.92,33.62,52.94,59.1,75.91,94.46,12.88,19.83,33.73,60.48,59.54,89.87-.24-11.26,2.63-21.7,9.07-35.62,7.28-15.74,4.46-31.43,2.01-43.33-2.45-11.9-6.02-20.12-6.92-23.74-.9-3.62,1.78-3.42,1.78-3.42l8.54,5.05c19.04,10.88,17.04,32.26,15.37,47.39Z"/></svg>