<?xml version="1.0" encoding="UTF-8"?><svg id="Calque_1" xmlns="http://www.w3.org/2000/svg" viewBox="0 0 448.05 565.71"><defs><style>.cls-1{fill:#fef3ed;}</style></defs><path class="cls-1" d="M342.05,475.77c-1.68,15.13-20.69,23.48-20.69,23.48-6.61,10.3-6.59,27.44-6.37,33.25,12,13.1,25.02,23.58,38.77,28.37-.19,1.6-.31,3.21-.36,4.83-30.22-8.54-65.06-55.49-75.79-74.48-.32-.57-.68-1.19-1.02-1.78-2.31,1.87-15.02,12.3-16.58,16.55-1.71,4.67-7.86,18.83-28.42,18.91-20.56.08-40.39-11.49-40.39-11.49,0,0,.18-2.29,3.71-2.22,3.53.06,21.74-2.29,32.26-7.54,10.51-5.25,31.96-21.15,45.37-15.93,0,0-11.58-15.74-24.42-17.57-12.83-1.83-27.24,3.74-44.07-.9-16.82-4.65-20.23-23.73-29.05-31.72-8.81-8-10.73-9.4-10.73-9.4,0,0-2.37-4.16.87-4.74,3.25-.58,9.56,7.01,16.25,9.83,6.69,2.82,19.46,7.57,36.79,18.74,0,0,2.45,1.03,10.74,2.71,8.29,1.69,20.9,6.43,36.89,19.58,1.4,1.15,2.59,2.19,3.69,3.17-12.68-21.1-30.31-48.58-39.76-62.6-6.79-10.08-22.16-28.15-36.06-43.8-1.72.05-4.38-.61-8.54-3.37-9.06-6.02-18.34-7.13-24.65-7.62-6.31-.49-15.83,5.83-21.61,11.1-5.78,5.26-7.2,12.66-15.12,31.2-7.91,18.53-23.2,18.83-28.59,19.15-5.4.32-26.65-4.81-30.22-4.88-3.58-.06-2-3.57-2-3.57,18.12-7.43,37.54-12.29,43.75-13.46,6.22-1.16,19.54-12.87,25.92-24.7,6.38-11.83,19.58-15.54,19.58-15.54-17.55-2.18-31.33-12.32-31.33-12.32-12.52-2.28-30.84,7.33-42.28,13.01-11.45,5.68-28.12,2.29-37.89-2.67-9.78-4.96-35.43-12.23-38.76-13.39-3.33-1.15-1.44-3.74-1.44-3.74,7.3-1.17,12.64-7.1,42.3-14.9,29.66-7.8,65.21,8.08,69.62,9.89,4.42,1.81,7.26,4.33,7.26,4.33,15.56,14.82,23.44,14.66,41.05,17.94,17.61,3.28,20.53,5.56,24.19,7.64,2.09,1.19,4.16,1.9,5.57,2.31-8.81-9.85-16.67-18.34-20.83-22.62-11.09-11.39-30.36-41.95-30.36-41.95-12.06-1.25-35.47-34.51-39.99-44.65-4.52-10.14-9.16-27.02-15.89-41.98-6.73-14.96-22.67-18.35-27.21-20.05-4.54-1.69-3.59-5.14-3.59-5.14,36.96,1.18,60.1,5.91,68.45,42.24,8.35,36.33,22.7,78.17,55.63,111.78,32.92,33.62,52.94,59.1,75.91,94.46,12.88,19.83,33.73,60.48,59.54,89.87-.24-11.26,2.63-21.7,9.07-35.62,7.28-15.74,4.46-31.43,2.01-43.33-2.45-11.9-6.02-20.12-6.92-23.74-.9-3.62,1.78-3.42,1.78-3.42l8.54,5.05c19.04,10.88,17.04,32.26,15.37,47.39Z"/><path class="cls-1" d="M349.25,98.79c6.21-5.37,15.46-5.72,23.18-3.91,4.25,1,5.16,2.03,2.32,6.04-3.12,4.39-8.09,8.36-11.14,12.62-15.57,21.74-1.82,50.82-34.24,60.85-9.97,3.08-19.08.34-28.81,2.7-4.32,1.05-8.78,3.44-12.15,6.24-.24,1.26,6.89,11.46,8.09,13.48,19.13,32.44,26.89,75.82,23.28,112.76-.51,5.19-1.71,10.64-2.44,15.82l14.43-14.14c20.18-24.19,17.45-55.07,41.54-77.7,7.32-6.87,23.95-14.76,33.99-12.91,15.86,2.91,30.58,6.72,38.2,22.34,2.57,5.27,3.47,12.91,1.47,18.5-.67,1.87-2.26,2.86-4.12,1.99-1.66-.77-4.18-6.66-5.63-8.53-6.14-7.89-32.15-24.5-41.87-26.7-.64-.14-1.25-.31-1.91-.22.49,4.27.75,8.64,1.46,12.88.74,4.36,2.5,8.65,2.64,13.37.44,15.36-17.29,23.81-19.09,37.22-.81,6.02,1.09,11.72-1.73,17.73-4.06,8.66-22.53,14.55-31.39,16.23-7.81,1.48-18.54,1.33-25.16,6.39-1.82,1.39-2.49,3.31-4.82,4.15-9.36,44.79-28.07,86.61-49.49,126.66l-1.68.43c-.74-.77,2.23-8.37,2.79-9.76,5.29-13.03,12.38-25.97,17.78-39.02,2.85-9.95,9.76-21.13,12.12-30.97,3.8-15.88-11.24-30.25-22.65-38.51-21.85-15.8-39.67-20.49-48.03-49.74-.6-2.12.07-5.52,2.55-3.94.29.18,2.78,4.6,3.79,5.66,3.55,3.74,13.62,10.39,18.57,11.23,2.73.46,6.58.19,9.41.55,9.44,1.21,17.56,4.65,24.98,10.52,14.26,11.27,19.25,23.44,17.02,41.91-.04.32-.32,2.11.46,1.41,2.51-6.06,4.22-12.59,5.66-18.98,10.25-45.64,7.47-82.21-8.8-125.94-1.46-3.94-3.21-9.31-4.89-13.01-2.77-6.08-6.83-12.45-10.36-18.41-4.15-2.14-7.5-.11-10.45,2.78-11.18,10.95-13.89,27.98-31.77,32-5.4,1.22-9.64-.27-14.84.19-5.89.52-11.95,4.09-17.79,5.29-11.59,2.39-18.01.04-29.06-.88-7.74-.64-13.68.41-21.33-2.86-1.72-.74-9.72-5.07-10.95-6.08-3.72-3.07,5.63-6.15,7.93-6.67,12.98-2.95,27.52-.23,39.98-7.08,9.72-5.35,16.72-12.66,28.99-12.06,10.37.51,19.07,8.17,29.6,4.31.5-.18,1.4-.15,1.29-.82-6.9-.25-14.17-2.79-19.34-7.41-2.17-1.94-3.84-5.26-5.92-7.41-6.92,2.67-14.37,2.33-21.61,3.3-10.12,1.35-23.92,5.57-33.22.32-3.4-1.92-10.36-9.08-12.41-9.84-1.05-.39-3.87-.09-5.34-.33-9-1.45-16.68-7.46-21.16-15.24-7.02-12.17-.65-16.68-1.05-28.52-.23-6.81-4.51-15.76.08-22.68,1.75-2.64,5.01-4.69,7.15-6.68,2-1.86,2.74-5.39,6.11-6.46-5.72-8.84-8.11-22.11.68-29.78,11.59-10.1,26.32-15.45,39.01-23.73,3.51-2.29,14.36-11.89,16.58-12.68,1.25-.45,2.31-.17,3.3-.46C226.21,21.48,243.07,1.51,261.23.06c14.14-1.13,42.53,15,54.1,23.52,6.1,4.49,15.39,12.23,19.03,18.76,6.77,12.12,12.05,24.56,14.46,38.32,1.01,5.74,2.29,12.61.43,18.14ZM344.77,102.8l3.5-3.75c-.39-5.57-1.12-10.48-2.48-15.87-3.6-14.27-9.51-27.24-16.37-40.19-7.82-14.78-37.45-29.67-52.92-35.51-11.45-4.32-16.84-4.97-28.17.45-3.84,1.84-6.93,4.5-10.43,6.56-8.32,4.89-23.49,11.44-26.7,20.98-1.59,4.74-.33,10.32-2.75,14.79-1.72,3.17-3.75,3.1-6.31,5.02-10.1,7.58-8.09,22.1-10.28,33.31-1.43,7.31-4.61,12.36-1.94,20.06,1.32,3.82,4.45,7.18,5.7,11.04.72.54,4.42-3.45,6.02-3.65,2.19-.28,5.64,1.84,8.04,2.19,5.24.75,8.07-.63,12.2-3.58-3.41-7.97-7.56-16.56-8.15-25.34-.64-9.61,3.37-20.41,10.28-27.11,1.82-1.77,4.38-3.44,6.44-4.96-4.49-11.07-7.99-24.6,7.97-26.55,1.82-.22,3.67.16,5.5-.14,4.93-.8,10.06-4.99,15.72-5.03,5.25-.04,14.62,5.86,18.84,9.12.79.61,1.64,2.01,2.46,2.26,1.69.52,8.04-.57,10.79-.33,14.12,1.21,18.81,16.08,25.59,25.42,4.22,5.81,11.54,8.77,14.74,15.49,2.58,5.42,2.22,13.64,2.09,19.59-.02,1.07-.68,2.25-.44,3.18.5,1.95,6.03,6.44,5.55,9.82l5.49-7.27ZM279.2,37.46c-4.66-4.47-14.99-9.51-21.42-8.59-3.94.56-8.14,3.89-11.97,4.52-4.75.78-11.91-1.56-15.26,3.1-3.96,5.51.65,13.74,2.96,19.13,8.84-4.52,19.71,4.16,23.79,11.76l5.37-.22c.44-.11.66-1.03.53-1.44-.5-1.61-4.99-5.47-6.15-7.51-.78-1.36-2.93-6.5-2.97-7.9-.03-.87.36-2.75.78-3.49,1.42-2.53,10.88-6.51,13.84-7.38,3.28-.97,7.1-1.53,10.5-1.97ZM211.23,29.07c-7.69,1.4-12.74,8.14-18.73,12.64-7.91,5.94-16.24,9.23-24.71,13.97-4.26,2.39-13.28,7.32-16.7,10.19-5.08,4.25-4.47,13.01-2.26,18.61,1.58,4.03,5.6,8.49,7.45,12.37,6.95,14.6.12,31.54,15.12,44.23,7.09,6.01,16.9,8.15,25.73,10.27.78-7-3.23-13.8-3.86-20.62-.28-3.07.78-6.16.35-8.81-.58-3.59-4.52-8.33-5.85-12.07-3.39-9.51,1.45-16.97,2.8-26.39,1.56-10.83.24-22.95,10.38-30.36,3.62-2.65,6.34-1.87,6.72-7.84.16-2.65-.25-4.8.34-7.83.63-3.23,1.92-5.45,3.22-8.38ZM330.84,96.8c-.47-6.1.08-13.01-2.82-18.59-1.98-3.81-5.94-5.88-8.85-8.63-8.99-8.49-7.79-20.57-21.14-27.96-8.49-4.7-26.64-.23-35.25,3.7-2.61,1.19-5.76,2.01-5.29,5.36.93,6.53,9.21,9.32,9.3,14.84.02,1.45-.71,2.26-.33,4.02.55,2.52,3.24,4.66,4.25,7.1,1.78,4.31.52,8.7,1.35,13.23.78,4.2,2.8,6.5,3.98,10.39,10.61-2.99,14.77-14.4,27.21-13.53,8.02.56,16.31,3.63,23.19,7.59.81.47,3.82,3.06,4.39,2.46ZM244.21,74.77c2.78-3.18,7.27-4.72,10.72-6.95-2.64-4.72-7.94-8.6-13.14-10.01-4.28-1.17-6.58.38-10.1,2.65-1.7,1.09-9.13,6.71-8.82,8.53,1.93,2.28,3.48,4.85,4.72,7.57,2.38,5.24,3.33,12.68,6.91,17.13,2.41,2.99,4.79,2.58,7.86,3.97,4.86,2.19,8.17,6.51,11.42,10.55.59-3.81-1.06-7.59-3.31-10.58-2.36-3.14-7.74-6.27-9.1-9.79-1.4-3.65.33-10.18,2.84-13.06ZM268.11,78.51c-.36-3.17-3.84-5.03-4.66-8.33-6.64-.56-16.52,3.96-18.72,10.57-2.21,6.65,2.2,6.85,5.6,11.35,1.04-2.23,1.31-4.75,2.45-7.01,2.79-5.55,9.34-11.13,15.33-6.58ZM255.11,125.68c.56-4.86-1.44-9.34-1.58-14.17-3.92-3.97-7.44-8.15-12.61-10.55-1.78-.83-3.79-1.12-5.53-2.05-9.24-4.9-8.13-20.33-14.23-27.73-8.52,14.01-1.97,28.53,3.81,42.05,8.74-3.56,18.78,1.37,25.69,6.77l4.45,5.69ZM269.05,80.41c-2.68,1.22-5.23-.84-8.03.67l-3.32,2.81c3.14,3.21,7.06,3.66,11.31,3.61l.04-7.08ZM269,89.38c-5.51,3.69-9.54.36-13.67-3.38l-3.28,7.71,4.85,7.41c2.98-4.89,6.28-4.64,10.52-1.48,1.03.77,1.72,2.26,2.96,2.72s2.53.41,2.27-1.28c-.23-1.51-2.41-5.27-2.98-7.42-.36-1.38-.12-2.91-.67-4.28ZM302.68,151.92c2.21-.25,3.02-2.52,4.49-3.77,5.84-4.94,13.5-7.94,18.99-13.58,5.47-5.63,7.67-13.23,11.13-20.11-2.19-2.91-3.39-6.59-5.35-9.59-5.4-8.24-20.06-14.13-29.63-14.6-8.4-.41-13.8,7.9-20.67,11.63-1.91,1.04-5.58,1.72-7.21,3.38-.97.99-2.28,1.54-3.58,2.02-.97.36-1.66,1.22-2.42,2.61-3.63,6.63-.98,16.2-2.53,23.57-.71,3.38-2.94,6.59-3.79,9.94,3.92-1.04,7.25-3.8,11.18-4.85,5.45-1.46,15.58-1.91,20.65.61,3.51,1.74,9.3,8.51,8.75,12.72ZM208.57,173.15c-5.62-5.29-9.33-10.88-10.26-18.74-12.21-.49-25.66-4.49-33.48-14.33-2.93-3.69-5.31-8.54-6.77-13.03-3.5-10.77-.74-23.52-8.58-32.63-.22,5.75-8.57,8.41-10.38,12.07-4.17,8.42,1.02,15.53,1.03,23.63,0,8.36-4.98,14.4-1.13,22.37,11.37,23.58,29.31,14.3,49.51,15.85,6.85.53,13.49,3.04,20.05,4.82ZM372.4,97.5c-7.72-1.12-14.77-1.22-21.43,3.27-13.8,9.3-13.13,27.85-24.38,38.53-5.19,4.93-15.96,9.6-19.87,15.06-2.06,2.87-3.43,8.17-5.15,11.42-1.86,3.52-4.54,7.11-7.06,10.2,2.19-.65,4.36-1.61,6.61-2.1,9.59-2.08,17.88.33,27.52-3.05,28.05-9.81,15.93-39.96,31.88-59.44.91-1.11,12.68-13.06,11.87-13.88ZM260.72,136.58c3.62-10.2-1.72-23.38,7.23-31.44-1.68-2.74-5.21-6.28-8.42-3.73-.22.17-2.25,2.71-2.31,2.89-.31,1.05-.91,7.22-.9,8.48.04,3.92,1.51,7.32,1.16,11.73-.11,1.46-.99,3.28-.86,4.62.15,1.56,2.9,6.14,4.1,7.45ZM228.38,176.57c-.6-2.65-.69-4.97.29-7.55.94-2.49,8.11-16.39,9.59-17.86,5.23-5.19,11.23-2.57,17.33-4.33,2.05-.59,3.02-4.31,2.74-6.2-.32-2.18-6.83-15.11-8.41-17.08-3.55-4.42-13.47-8.87-19.02-8.33-6.03.59-10.51,6.67-17.22,6.81-6.45.13-11.89-6.68-16.05,1.35-2.96,5.72.68,11.96,1.93,17.58,1.35,6.07,2.14,15.13,4.94,20.49,2.53,4.84,11.91,12.56,17.19,14.01,2.4.66,4.43.42,6.7,1.12ZM284.21,141.57c-12.57.59-15.27,4.73-25.46,8.46-5.6,2.05-9.97.48-15.36,1.09-5.15.58-6.64,9.53-8.24,13.52-.92,2.32-4.3,7.22-3.58,9.42.74,2.24,6.57,8.72,8.56,10.36,5.03,4.14,17.57,8.9,23.93,7.07,5.81-1.67,10.64-9.66,15.58-10.38,1.29-.19,2.73.29,3.97-.26,1.42-.63,9.24-8.32,10.37-9.94,1.58-2.24,7.2-13.24,7.29-15.47.14-3.65-2.37-8.62-4.95-11.13-3.38-3.29-7.71-2.97-12.12-2.77ZM217.51,178.86c-3.82-3.55-8.63-2.63-13.33-3.49-7.31-1.34-14.18-3.22-21.83-3.35l-13.94.91,9.45,6.85c10.43,5.61,28.17-1.52,39.64-.93ZM264.66,195.19c-4.18,1.66-8.43,4.22-13.02,4.65-14.36,1.33-21.44-9.37-37.18-3.39-8.95,3.4-15.79,10.73-24.61,13.12-11.7,3.18-24.76,2.24-35.84,5.1-.44.11-1.07.11-.93.7,2.74.77,5.03,2.93,7.67,3.93,8.01,3.05,17.54,2.24,26.06,2.87,3,.22,7.21,1.44,9.91,1.46,11.77.13,23.46-6.17,35.95-5.96,1.66.03,3.24.58,5.2.54,13.24-.27,21.1-12.7,26.79-23.02Z"/><path class="cls-1" d="M200.66,201.07s-20.1,6.23-33.41-10.33c-13.3-16.56-3.55-11.93-14.92-19.95l7.46,2.01s1.63,1.44,3.2,5.62c1.57,4.18,3.3,7.15,5.71,9.62,2.41,2.46,14.41,15.55,34.82,10.33l-2.86,2.7Z"/><path class="cls-1" d="M193.51,64.49s-11.37,1.97-15.73,12.33c-4.35,10.37,2.9,12.25,2.86,21.21-.05,8.96-2.92,15.24,13.36,25.45l1.55-2.79s-13.02-4.59-12.82-18.15c.2-13.56-3.16-13.32-3.52-17.58-.36-4.26,2.4-14.58,13.78-17.49l.51-2.99Z"/><path class="cls-1" d="M241.42,8.08s-14.35-3.52-28.53,3.62c-14.18,7.14-6.96,7.79-28.65,11.58-21.68,3.79-28.48,35.95-28.48,35.95l4.23-1.13s4.61-27.27,24.11-31.4c19.58-4.15,20.74-4.83,29.74-11.95,9-7.12,25.37-5.49,25.74-4.08l.38,1.41,1.45-4Z"/><path class="cls-1" d="M161.52,45.7s-24.01,11.7-25.28,29.83c-1.28,18.14,4.81,26.61,4.81,26.61l-2.61,2.5s-7.01-13.72-4.71-30.7c2.29-16.98,15.24-26.5,28.96-31.93l-1.17,3.69Z"/><path class="cls-1" d="M302.61,41.96s13.64,9.69,20.35,9.29c6.72-.4,16.01,3.34,19.21,13.32l1.05,5.42s-6.21-14.33-20.5-15.49c-14.29-1.16-18.8-9.42-18.8-9.42l-1.32-3.13Z"/></svg>