<?xml version="1.0" encoding="UTF-8"?><svg id="Calque_1" xmlns="http://www.w3.org/2000/svg" viewBox="0 0 446.82 498.97"><defs><style>.cls-1{fill:#fef3ed;}</style></defs><path class="cls-1" d="M415.19,62.38c3.34,8.99,4.77,19.2,4.57,28.8-.45,21.74-6.99,49.64-25.12,63.5-10.98,8.39-25.99,9.93-35.17,20.27-.13.4,1.13,2.22,1.3,2.99,2.29,10.18,6.04,19.19,8.51,29.46,4.61,19.14,6.18,42.97,4.6,62.61-.4,5-2.61,13.77-2.48,18.01,0,.27.28.89.47.82,5.28-6.3,11.07-10.73,19.11-12.69,15.01-3.66,23.3-3.52,36.42-14.14l17.12-17.58c3.13.63,2.33,2.96,1.74,5.39-2.44,10.12-8.44,21.1-14.34,29.6-4.13,5.96-13.52,18.15-20.29,20.43-14.14,4.76-30.07-6.55-42.67,5.79-3.61,3.54-4.19,9.12-6.08,13.7-16.18,39.18-41.34,70.03-72.11,98.64-9,8.37-20.4,19.31-30.01,26.59-1.49,1.13-18.04,14.71-19.73,14.03l-.82-1.17c-.27-1.58,1.91-7.66,18.31-18.53,4.48-2.97,9.52-7.21,13.7-10.71,18.87-15.86,38.42-32.78,53.64-52.35,1.73-2.22,7.43-9.16,7.12-11.52-.27-1.97-11.23-11.01-13.48-12.4-5.99-3.71-12.83-4.45-18.89-7.89-17.22-9.77-15.37-28.05-21.87-44.06-9.84-24.23-35.33-35.87-59.21-42.45-1.08-.77-3.84-.83-5.53-2.9-.71-.87-1.69-2.48.79-3.15.56-.15,1.58-.58,5.35-1.08,1.64-.22,15.67-.93,18.29-.84,44.87,1.59,74.29,40.33,90.45,78.18,2.82,6.61,6.69,16.25,7.98,23.19.52,2.83.27,5.74,1.02,8.46l8.43-13.08c23.87-41.39,30.23-91.41,18.74-137.54-2.27-9.13-6.77-19.15-8.32-28.16-.3-1.72-2.16-2.75-3.92-4.19l-4.47.28c-1.31.08-2.63.06-3.94,0-22.94-.9-44.47,14.26-65.48-1.12-5.73-4.19-10.37-10.58-15.72-15.18-4.28-3.68-7.82-5.23-11.38-9.96-5.89-7.81-13.35-19-16.03-28.38-4.21-14.71-2.2-48.04,3.54-62.15,7.18-17.63,21.76-45.83,39.88-53.74,12.89-5.62,37.11-8.31,50.61-4.23,6.23,1.88,10.85,5.07,17.65,6.15,8.09,1.28,17.62-.72,25.27,3.06,21.01,10.37,34.53,29.93,42.44,51.2ZM415.47,98.25c.6-5.62.64-12.18.08-17.81-2.38-24.01-22.87-54.57-44.98-64.82-6.84-3.17-15-1.43-22.18-2.34-5.93-.75-11.55-3.17-17.49-3.85-1.17,9.39,7.29,11.67,13.24,16.19,3.13,2.38,5.73,5.49,7.89,8.75.55.83.57,2.17,1.18,2.75,1.82,1.73,6.26,1.52,8.56,2.62,7.45,3.56,16.92,14.95,23.79,20.79,9,7.65,19.39,13.51,25.42,24.13,2.53,4.45,3.2,8.74,4.48,13.58ZM329.28,5.67c-6.02-1.25-12.08-1.86-18.18-1.22-7.68.81-21.65,3.58-28.96,5.89-5.56,1.76-1.82,1.77-2.78,5.22-.35,1.25-1.06,2.32-1.61,3.46,3.15-.9,6.13-2.35,9.29-3.25,3.43-.98,7.59-1.37,10.92-2.47,5.09-1.68,14.36-8.07,19.51-4.78,1.74,1.11,1.51,3.67,2.6,4.25l5.88.63c.98-3.02-.32-5.98,3.33-7.73ZM341.76,43.8c.67-1.84,1.02-4.01,2.27-5.61.84-1.07,3.63-1.18,3.05-2.57-2.42-5.78-12.58-9.06-16.62-14.12-1.35-1.69-1.83-3.59-3.32-5.02l-9.68,1.45c-3.91,7.58-10.66,10.48-16.53,15.78,1.31.58,2.04.23,3.48.15,1.59-.08,3.06-.12,4.04,1.24.82,1.13,1.3,2.41,2.56,2.54.58.06,2.35-.91,3.59-.97,2.19-.11,7.5.98,9.87,1.49,5.97,1.28,11.68,3.21,17.29,5.65ZM316.08,11.93c-5.68-2.12-9.63,3.72-14.38,5.62-7.18,2.87-15.43,2.3-23.26,6.57-12.19,6.65-8.65,16.61-12.62,27.74,1.12.84.82.18,1.32-.17,6.31-4.54,11.29-9.1,18.51-12.72,1.75-.88,7.2-2.17,8.3-3.32,1.23-1.29,1.67-3.75,2.96-5.3,3.14-3.79,8.13-5.39,11.69-8.49,1.37-1.2,8.13-8.72,7.5-9.92ZM410.1,102.36c-1.13-21.49-12.42-24.69-27-36.68-9.18-7.55-16.52-17.74-27.93-22.11-1.95-.75-5.53-1.26-7.7-1.83-2.7,3.01,1.45,8.77,3.28,11.43,5.76,8.35,14.6,15.81,21.03,24,11.08,14.1,23.85,40.83,17.43,58.8-2.66,7.44-8.4,15.79-13.46,21.9-1.14,1.37-2.55,2.42-3.63,3.83l6.23-1.87c26.51-11.54,33.21-29.86,31.75-57.48ZM275.89,13.36c-.58-.24-.88-.75-1.59-.43-.65.28-8.03,7.14-8.98,8.17-22.45,24.69-38.66,82.94-21.29,113.53,2.11,3.71,5.18,7.56,7.86,10.91-.79-3.51-3.35-6.31-4.56-9.65-6.45-17.83-8.6-38.56-.4-56.19,3.37-7.24,9.74-13.61,13-19.87,5.85-11.24,3.55-24.91,10.39-37.81.75-1.42,5.89-7.74,5.57-8.67ZM384.62,109.92c-6.27-20.84-22.96-34.44-35.48-50.75-1.89-2.47-6.3-11.34-8.06-12.21-3.97-1.97-21.98-5.88-26.66-6.06-1.75-.07-3.83.7-5.66.64-.85-.03-1.73-.86-2.41-.82-.48.03-4.8,3.33-5.54,3.97-11.15,9.69-18.36,24.37-21.66,38.57-.19.82-.98,3.43-.34,3.91,4.19.79,8.58,1.73,12.85,1.25,13.35-1.5,15.82-7.76,31.33-2.21,7.61,2.72,18.18,7.23,24.55,11.76,7.79,5.53,8.8,11.74,12.04,19.94,2.04,5.18,4.33,10.28,7,15.3,3.33,6.26,7.89,12,9.81,18.87,3.04-4.27,5.55-8.68,7.47-13.59,4.05-10.35,3.91-18.09.75-28.59ZM275.02,85.97c.34-.18.77-6.39,1.04-7.57,2.72-11.76,8.69-23.5,17.04-32.17,2.2-2.29,4.94-4.07,7.08-6.42-7.07,1.22-14.03,4.58-20.1,8.46-8.89,5.69-15.86,13.17-21.75,21.95-19.16,28.56-13.47,60.37,8.48,85.1,12.84,14.47,23.35,24.81,43.84,22.25,5.71-.71,11.56-2.58,17.33-3.19l-17.98-3.59c-17.22-5.96-32.59-17.68-41.72-33.55-5.5-9.55-14.48-37.17-12.67-47.85,2.34-13.84,10.65-6.17,19.42-3.43ZM263.61,108.09c5.32,18.41,10.76,33.52,26.4,45.9,20.2,15.98,42.72,18.03,67.47,16.15,2.29-1.96,4.9-3.53,7.22-5.42,1.2-.98,6.96-5.92,7.38-6.75,1.94-3.86-3.02-11.17-5.14-14.7-3.97-6.64-9.24-13.39-12.36-20.59-3.54-8.16-2.82-13.97-11.36-19.74-6.13-4.14-14.88-7.81-21.68-10.53-8.13-3.25-9.54-4.15-18.23-1.83-1.7.45-3.02,1.49-4.83,1.97-11.18,3.01-20.74.43-30.78-4.37-1.94-.93-3.75-2.89-6.43-3.01-1.12.07-.94,1.87-1.04,2.72-.84,7.36,1.42,13.44,3.38,20.2Z"/><path class="cls-1" d="M174.23,456.9c14.76,3.72,29.23-11.18,29.23-11.18,11.96-2.59,28.01,3.41,33.38,5.65,8.08,15.82,13.35,31.69,13.04,46.25,1.56.38,3.12.83,4.65,1.35,2.55-31.3-29.25-80.35-43.3-97.03-.42-.5-.88-1.06-1.31-1.58,2.56-1.51,16.78-9.78,21.3-9.75,4.98.03,20.39-.78,27.65-20.02,7.26-19.24,3.35-41.85,3.35-41.85,0,0-2.2-.63-3.38,2.7-1.17,3.33-9.74,19.57-18.33,27.59-8.59,8.02-30.98,22.56-30.78,36.95,0,0-10.7-16.35-7.93-29.02,2.77-12.66,13.03-24.22,14.55-41.61,1.52-17.39-15.16-27.25-19.57-38.3-4.42-11.05-5.06-13.34-5.06-13.34,0,0-3.07-3.68-4.75-.84-1.68,2.84,3.23,11.41,3.53,18.66.3,7.25.29,20.88,4.7,41.02,0,0,.11,2.65-1.21,11.01-1.32,8.36-1.28,21.83,5.45,41.41.59,1.72,1.14,3.19,1.68,4.56-15.34-19.25-34.92-45.38-44.75-59.13-7.07-9.88-18.63-30.6-28.44-49.09.65-1.59.96-4.32-.18-9.18-2.48-10.59-.28-19.67,1.47-25.76,1.75-6.08,11-12.79,17.95-16.37,6.95-3.57,14.38-2.32,34.51-3.26,20.13-.94,25.75-15.15,27.94-20.1,2.19-4.94,4.8-26.65,5.99-30.02,1.19-3.37-2.65-3.12-2.65-3.12-13.29,14.39-24.64,30.88-27.9,36.29-3.26,5.42-18.88,13.81-32.2,15.65-13.32,1.84-21.4,12.92-21.4,12.92,4.09-17.2-.59-33.66-.59-33.66,2.24-12.53,17.64-26.33,26.96-35.07,9.32-8.74,11.97-25.54,10.74-36.44-1.23-10.89.92-37.47,1-40.99.09-3.53-3-2.66-3-2.66-3.64,6.43-11.07,9.36-28.74,34.43-17.67,25.07-15.21,63.92-15.06,68.69.15,4.77,1.52,8.32,1.52,8.32,8.45,19.76,5.54,27.08,2.47,44.73-3.08,17.65-1.96,21.18-1.3,25.33.38,2.38.33,4.57.22,6.03-6.15-11.7-11.36-22.03-13.91-27.42-6.8-14.37-28.7-43.1-28.7-43.1,3.04-11.74-19.94-45.3-27.86-53.07-7.92-7.77-22.12-18.02-33.79-29.55-11.67-11.53-9.27-27.65-9.27-32.5,0-4.84-3.56-5.16-3.56-5.16-11.81,35.04-15.46,58.38,15.66,78.9,31.12,20.52,65.31,48.59,85.3,91.18,19.99,42.59,36.87,70.25,61.98,104.14,14.08,19,44.88,52.74,63.4,87.19-10.46-4.15-21.25-5.12-36.54-3.95-17.3,1.32-31.01-6.81-41.3-13.26-10.29-6.45-16.74-12.67-19.82-14.78-3.08-2.11-3.82.47-3.82.47l1.75,9.76c3.54,21.64,24.27,27.24,39.03,30.96Z"/></svg>