<?xml version="1.0" encoding="UTF-8"?><svg id="Calque_1" xmlns="http://www.w3.org/2000/svg" viewBox="0 0 385.33 540.97"><defs><style>.cls-1{fill:#fef3ed;}</style></defs><path class="cls-1" d="M2.67,231.1c3.72-1.72,13.29-9.43,20.47-20.58,7.18-11.15,15.68-31.29,20.72-39.44,5.05-8.15,13.82-10.51,22.33-13.94,6.62-2.67,11.12-12.95,12.81-17.41.07,1.16.12,1.81.12,1.81-.3,18.23,2.07,34.44,4.83,47.19-2.38,25.15-5.55,34.92-10.55,42.99-5.05,8.15-16.75,17.58-16.75,17.58-27.65,18.23-44.66,39.88-50.5,49.31C.31,308.04.32,349.18.33,351.54s3.46,3,3.46.43c0-2.57,1.59-10.29,5.04-23.15,3.45-12.86,13.28-32.58,24.18-43.08,10.9-10.5,36.41-41.8,36.41-41.8,0,0,0,14.79-7.17,30.65-7.17,15.86.02,51.43.82,55.07.8,3.64,3.2,13.07,5.06,15,1.86,1.93,4.25-.86,4.25-.86-.27-4.93,7.44-16.29,17.54-28.51,10.1-12.22-6.66-37.71-13.05-49.07-6.39-11.36-3.47-28.5-3.47-28.5,9.63-15.88,11.67-34.91,12.1-42.27,2.2,8.9,4.37,15.53,5.42,19.11,2.64,9,30.09,67.28,30.09,67.28,6.1,18.66.22,39.46-.79,43.55-1.01,4.09-8.53,17.52-13.6,23.91-5.08,6.39-1.21,14.57-1.21,14.57,0,0,5.9,17.19,7.32,20.3,1.42,3.11,4.06,1.47,4.06,1.47,0,0-.81-1.47-1.63-10.48-.82-9,1.61-24.39,7.5-46.99,5.88-22.6,2.63-35.69,2.63-35.69,0,0,34.76,59.74,36.19,79.88,1.43,20.14,3.06,33.73-16.44,46.01-19.5,12.29-28.23,9.51-36.36,18.52-8.12,9.01-8.11,38.48-6.08,39.79,2.03,1.31,4.06-1.31,4.06-1.31,1.62-7.04,5.89-12.77,15.84-26.86,9.95-14.08,26.61-16.71,37.77-38.82,11.16-22.11,2.62-46.99,2.62-46.99,16.06,28.81,19.53,64.99,19.12,69.74-.4,4.75-5.48,14.41-12.79,20.63-7.31,6.22-11.78,16.54-17.66,25.38-5.89,8.84-6.08,27.34-6.08,27.34,0,0,.81,2.78-11.17,12.94-11.98,10.16-25.79,15.73-25.79,15.73,2.23.82,16.86,1.14,29.45-7.87,12.59-9.01,11.77-21.45,11.77-21.45,0,0,9.14-6.55,22.94-30.79,13.8-24.24,13.18-48.96,13.18-48.96,5.49,15.55.83,49.93,5.11,67.94,4.27,18.01,22.36,27.66,30.08,30.11,7.72,2.45,12.8,9.49,13.62,13.75.81,4.26,2.64,3.76,2.64,3.76,2.44-.33,8.73-5.73,4.66-19.32-4.07-13.59-13.21-18.9-23.37-26.92-10.16-8.02-21.54-14.23-23.78-35.19-2.24-20.95-5.91-35.03-7.94-38.63-2.03-3.6-4.85-22.02-4.85-22.02,8.24,11.88,19.81,18.65,28.81,22.87,5.32,3.99,15.53,12.28,17.5,18.48,2.69,8.45,2.93,12.77,12.93,22.4,10,9.62,34.15,24.55,35.12,23.96.97-.59,3.17-.2.73-3.93-2.44-3.73-4.39-12.38-8.05-15.72-3.66-3.34-6.59-6.09-22.93-15.91-14.96-8.99-17.47-17-25.65-25.07.67.29,1.3.57,1.82.83,6.81,3.34,44.42,9.76,77.87-11.25,33.45-21.01,37.88-45.83,38.17-56.57.29-10.74-2.08-13.36-2.08-13.36.3,3.82-9.32,8.12-9.32,8.12-14.35,12.18-15.09,22.44-17.45,36.28-2.36,13.84-7.69,12.89-12.72,21-4.58,7.38-14.83,11.41-37.6,14.96,2.26-2.4,6.05-7.66,5-15.22-1.47-10.61,10.23-19.66,16.57-23.2,6.34-3.54,16.82-17.69,17.06-20.64,0,0-.24-1.38-3.41.2-3.17,1.57-16.83-.98-24.14,3.55-7.31,4.52-10.72,14.94-10.72,30.46,0,0-4.15-7.47-11.47-12.57-7.32-5.11-9.27-7.27-10.49-8.64-1.22-1.38-7.56-4.52-8.78.79-1.22,5.31,4.39,10.02,7.32,13.95,2.93,3.93,5.86,7.86,17.56,12.77,10.92,4.58,5.29,14.13,1.12,19.22-.91.13-1.79.26-2.74.39-27.83,3.83-66.63-20.49-77-47.21-10.37-26.72-20.45-37.69-37.63-75.39-17.19-37.69-51.85-96.14-54.54-144.1-2.68-47.96,6.48-73.97,6.48-73.97-1.77,22.67,34.96,54.87,49.18,64.41.38.26.81.55,1.21.82-1.45,1.54-9.55,9.99-12.66,10.86-3.41.96-13.8,4.55-14.98,19.14-1.18,14.59,5.95,29.29,5.95,29.29,0,0,1.63,0,1.78-2.51.15-2.51,2.81-15.31,7.11-22.48,4.3-7.18,16.76-21.53,13.78-31.33,0,0,10.54,9.08,11.14,18.29s-4.15,19.13-1.77,31.33c2.38,12.19,15.73,15.66,20.93,22.35,5.2,6.69,6.09,8.13,6.09,8.13,0,0,2.82,1.91,3.41-.36.59-2.27-4.45-7.17-6.09-12.07-1.63-4.9-4.31-14.23-11.29-27.14,0,0-.59-1.79-1.34-7.77-.74-5.98-3.42-15.18-11.88-27.26-.74-1.06-1.41-1.96-2.05-2.79,14.28,10.15,32.82,24.17,42.25,31.64,6.78,5.37,18.77,17.27,29.11,27.99-.13,1.22.19,3.14,1.93,6.24,3.78,6.76,4.06,13.4,4.06,17.91,0,4.51-5.01,10.92-9.06,14.73-4.05,3.81-9.38,4.42-22.97,9.02-13.59,4.6-14.63,15.43-15.16,19.25-.52,3.81,1.96,19.18,1.81,21.72-.15,2.54,2.43,1.61,2.43,1.61,6.26-12.46,10.78-25.97,11.94-30.32,1.16-4.35,10.2-13.16,18.95-17.04,8.75-3.88,12.1-13.05,12.1-13.05.59,12.57,7.03,22.91,7.03,22.91.94,9.01-6.89,21.48-11.55,29.3-4.66,7.81-3.16,19.83-.18,27.04,2.99,7.21,6.75,25.81,7.38,28.24.64,2.43,2.58,1.23,2.58,1.23,1.23-5.12,5.73-8.58,12.89-29.21,7.16-20.63-2.17-46.72-3.21-49.96-1.04-3.23-2.68-5.39-2.68-5.39-9.67-11.85-9.12-17.44-10.49-30.11-1.37-12.68-2.82-14.87-4.1-17.59-.73-1.55-1.12-3.06-1.33-4.08,6.51,6.79,12.1,12.83,14.91,16.02,7.48,8.49,28.11,23.84,28.11,23.84.23,8.63,22.56,27.06,29.5,30.82,6.95,3.76,18.68,7.98,28.93,13.57,10.25,5.59,11.79,17.09,12.74,20.41.95,3.31,3.45,2.83,3.45,2.83,1.18-26.29-.91-42.98-26.24-50.89-25.33-7.91-54.24-20.39-76.29-45.59-22.06-25.2-39.05-40.8-62.89-59.04-13.37-10.23-41.08-27.25-60.53-47.17,7.98.78,15.54-.68,25.78-4.49,11.57-4.31,22.55-1.44,30.86.94,8.31,2.39,13.95,5.37,16.47,6.21,2.52.84,2.52-1.08,2.52-1.08l-3.12-6.34c-6.68-14.11-21.96-13.86-32.79-13.5-10.83.36-17.8,13.4-17.8,13.4-7.67,4.13-19.84,3.18-23.95,2.71-14.08-15.04-23.12-31.63-17.63-48.14C106.79,34.42,136.28,7.99,166.97,2.46c16.6-2.99,32.85,9.83,45.65,26.03,1.27,3.19,3.69,10.56,2.66,18.15-1.06,7.78-5.3,11.24-10.34,13.21-2.59.24-6.41-.5-8.59-6.07-3.51-8.98-2.3-15.37-16.19-21.03-13.89-5.65-13.74.5-26.41-10.94,0,0-2.44-.74-2.44,1.11,0,1.84-1.06,12.3,11.45,15.99,12.52,3.69,14.8-3.2,25.18,2.08,0,0,2.14,2.09,4.89,10.45,2.01,6.11,4.67,8.93,7.75,9.77-.09.02-.18.05-.26.07-6.87,1.73-20-3.07-32.21-4.41-12.21-1.35-17.7,1.98-23.65,7.88-5.95,5.91-5.95,12.06-5.95,12.06,7.63-.74,17.24-8.74,22.43-10.22,5.19-1.48,10.68,1.96,16.48,2.45,5.8.49,16.33-5.17,16.33-5.17,27.16-.01,25.88-20.35,24.54-27.67,8.09,11.76,14.28,24.22,17.52,33.24,8.65,24.01,3.3,59.31,12.25,90.04,8.95,30.73,48.28,40.32,48.28,40.32,34.57,21.84,88.97,28.47,88.97,28.47-15.71-21.24-56.08-21.43-65.2-24.41-9.12-2.98-39.02-1.13-55.56-57.59-8.53-29.1-13.93-50.22-20.37-68.2,3.48,5.29,9.38,12.2,16.59,19.9,6.79,7.25,13.23,11.22,18.81,13.8,3.22,4.32,6.87,11.62,9.1,18.32,2.72,8.16.25,10.25-1.23,17.21-1.48,6.96-.12,12.73,7.04,17.01,7.16,4.27,12.35,9.05,13.21,10.24.86,1.19,3.21.69,3.09-.3s-7.41-19.59-13.1-25.86c-5.68-6.27-4.08-4.57-6.18-16.31-1.57-8.74-6.28-15.82-8.59-18.87,2.7,1.08,5.14,1.88,7.22,2.66,6.91,2.58,22.97,16.5,26.55,20.48,3.58,3.98,19.76,10.64,28.89,14.21,9.14,3.58,12.97,12.73,14.08,14.72,1.11,1.99,2.59.3,2.59.3-4.82-15.02-4.33-19.79-23.71-32.72-19.39-12.92-57.6-23.78-60.16-24.92-2.55-1.14-11.72-6.39-22.03-17.58-6.7-7.27-9.47-12.21-10.6-14.79,6.28,5.11,14.57,6.5,22.2,7.49,11.88,1.55,17.83-2.73,33.4-5.97,15.58-3.24,24.25-.92,27.78,1.8,3.53,2.72,3.69.9,3.69.9-.48-2.85-1.77-2.59-17.67-10.22-15.9-7.63-34.05-.25-42.24,1.96-8.19,2.2-22.32,2.47-25.7-1.02-2.66-2.75-7.06-5.79-8.83-6.97-4.84-10.94-10.63-21.11-18.57-31.89C196.48-.12,179.01-.28,167.03.06c-11.99.33-21.53,5.9-21.53,5.9-41.64,24.9-52.6,52.58-60.71,79.76-5.69,19.05-6.18,38.81-5.97,48.93-1.3,1.29-3.38,8.08-6.74,13.79-8.75,4.14-13.86,1.4-20.07-1.66-6.41-3.16-12.04-13.17-18.58-16.01-6.54-2.84-11.51.85-16.48,3.06-4.97,2.21-10.85-.21-10.85-.21,3.01,2.21,4.19,11.7,14.39,7.9,10.2-3.8,15.56.2,20.27,3.68,4.71,3.48,10.86,3.79,10.86,3.79,8.49,5.07,14.87,4.14,17.95,3.11-1.61,1.97-3.45,3.52-5.55,4.18-8.56,2.72-17.54,7.25-17.54,7.25-15.42,6.65-20.6,11.84-24.41,16.56-2.99,3.7-9.03,22.5-10.89,31.08-1.86,8.57-8.29,16.64-9.83,17.36-1.61.76-2.39,4.29,1.33,2.57Z"/></svg>