<?xml version="1.0" encoding="UTF-8"?><svg id="Calque_1" xmlns="http://www.w3.org/2000/svg" viewBox="0 0 442.52 557.38"><defs><style>.cls-1{fill:#fef3ed;}</style></defs><path class="cls-1" d="M188.32,227.98l14.43,78.11c5.51,19.25,10.16,38.67,17.64,57.33,3.24,8.08,7.73,16.46,11.76,24.21,11.37-16.66,22.24-35,25.69-55.27,4.32-25.41,2.23-38.89,19.68-60.54,11.91-14.77,35.66-30.63,53.41-37.3,2.38-.89,6.1-1.54,5.6,1.93-.42,2.91-3.87,3.91-5.46,5.71-4.34,4.89-14.64,19.65-16.47,25.51-4.69,15.02,2.81,32.58-2.07,48.16-4.49,14.32-30.01,27.61-41.41,38.05-6.33,5.8-18.46,16.83-23.17,23.31-2.58,3.55-5.27,10.93-7.88,13.65-1.18,1.23-3.1,5.75-2.9,7.85,8.2,15.88,16.65,26.94,27.74,40.95,26.39,33.34,62.42,57.47,99.05,78.59,11.61,6.69,26.21,15.42,38.48,20.26,12.22,4.82,24.36,9.46,35.1,14.28,2.44,1.1,5.66,1.19,4.88,4.31-1.9,1.94-19.33-6.38-22.77-7.75-36.03-14.41-72.68-34.75-105.2-57.3-15.98-11.08-29.17-23.32-47.45-31.26-28-12.16-60.75-1.69-90.66-11.29-27.86-8.94-46.75-22.1-65.96-43.49-2.05-2.28-5.86-8.58-7.87-10.13-2.41-1.86-8.37-1.66-12.17-3.57-5.42-2.73-18.96-12.55-23.81-16.67-7.97-6.77-14.77-16.79-21.74-24.74-2.84-3.24-16.37-13.44-6.37-14.67l35.4,14.88c14.87,7.98,19.31,21.85,27.99,34.98,1.24,1.87,3.45,5.88,4.8,7.19,4.08,3.95,29.86,9.27,36.45,10.02,24.9,2.85,51.91-1.13,75.44,8.52,11.95,4.9,22.96,14.51,33.16,22.31.57.12.48-.72.36-1.11-.58-1.87-11.01-14.22-13.22-17.53-32.5-48.63-48.56-113.13-54.89-170.77-.6-5.5-2.25-8.95-2.74-14.56-5.67,4.67-8.26,5.68-14.85,9.15-25.78,13.58-58.15,19.75-85.37,6.42-9.9-4.85-9.91-8.81-16.39-15.1-3-2.91-9.2-5.72-12.62-8.37-31.56-24.43-43.83-48.18-49.44-87.76-3.3-23.28-5.85-50.7,9.69-70.18,9.98-12.51,22.21-7.77,31.81-15.59,2.23-1.82,5.43-6.85,7.7-7.38,1.7-.39,2.56,1.37,2.81,1.37.66,0,7.14-8.78,8.59-10.12,3.51-3.26,9.06-6.59,13.11-9.38,6.95-4.79,14.36-9.41,21.62-13.62,6.8-3.94,9.88.73,15.9.19,4.68-.42,12.93-5.45,18.16-5.87,2.95-.24,8.83,2.03,10.19,1.92,3.49-.28,9.94-5,13.8-5.66,5.7-.97,24.4,1.88,30.35,3.78,2.66.85,7.56,4.72,8.59,4.89,1.57.26,3.7-2.28,8.89-.63,15.53,4.97,37.35,31.89,47.15,45.06,3.66,4.91,5.56,9.77,8.52,14.72,8.32,13.91,21.71,33.34,20.37,50.08-1.05,13.07-8.3,18.22-14.52,28.21-17.1,27.48-10.69,52.5-44.18,70.52-10.26,5.52-21.46,8.35-32.72,11.15ZM193.58,44.43c-.84-9.64-1.4-19.2-.74-28.87-.26-1.62-2.16-2.42-3.52-3.23-6.21-3.71-23.44-8.2-30.63-7.67-3.32.25-17.32,5.93-18.54,8.51-.33.71-.59,1.05.14,1.65,7.13,6.68,11.85,15.27,17.26,23.26,13-2.14,24.22,1.73,36.02,6.34ZM135.87,9.21c-3-2.74-17.37,4.42-21.35,4.56-7.58.26-11.88-7.73-17.5.43-5.2,7.56.25,21.4-1.07,31.17-1.95,14.39-19.65,24.47-9.54,40.3l3.92-12.94c1.61-3.36,3.19-7.99,6.78-9.71,2.25-1.07,5.03-.93,7.27-1.72,6.53-2.29,8.39-7.42,12.73-12.01,4.43-4.69,14.69-14.8,19.62-6.45l.96.12c4.65-2.13,9.56-3.44,14.68-3.78.66-2.82-1.86-2.88-3.01-4.33-3.23-4.07-5.46-9.08-9.01-13.26-3.58-4.22-8.9-5.33-4.47-12.39ZM192.09,219.13c9.92-2.82,19.07-4.58,28.23-9.62,24.26-13.32,21.95-34.07,31.6-56.11,4.33-9.89,12.68-18.49,16.51-28.47,4.28-11.16.8-17.97-3.85-28.17-11.17-24.49-31.97-55.95-51.5-74.45-2.15-2.04-11.74-10.19-13.89-10.85-1.38-.42-1.02.26-1.13,1.11-.25,1.92.55,9.48.77,11.99,1.14,12.77,1.76,28.71,8.23,39.75,3.38,5.77,7.78,9.23,10.63,15.61,4.21,9.42,4.57,19-1.98,27.51-6.3,8.18-17.77,10.51-24.93,17.42-.6.58-2.82,5.3-3.02,6.35-2.11,11.26,10.1,24.89,13.69,35.44,4.29,12.61,2.39,30.35-3.46,42.27-.7,1.43-6.51,9.62-5.9,10.21ZM73.66,109.67l14.92-10.24c-3.58-9.07-11.36-16.22-10.46-26.91.91-10.79,10.26-17.34,12.57-26.41,2.46-9.64-.98-17.64-.55-27.16-.48-.64-6.52,5.14-7.13,5.98-5.88,8.05.19,15.41-.51,23.42-.59,6.74-5.1,13.54-7.36,19.69-5.08,13.81-6.26,27.57-1.48,41.63ZM67.36,116.88c2.84-3.81,2.75-4.14,2.57-9.12-.48-13.09-5.38-20.94-1.75-35.43,1.99-7.94,8.51-16.55,9.16-24.62.56-6.95-4.54-14.05-1.45-21.27-7.6,4.49-21.46,16.85-22.48,25.86-.79,6.92,1.73,10.55,2.28,16.47,1.08,11.61-3.07,22.08-2.27,33.76.53,7.81,2.14,14.95,8.66,19.85.52.12,4.68-4.71,5.28-5.51ZM194.27,49.75c-6.54-.34-12.1-3.79-18.4-5.21-10.17-2.29-20.97-1.97-30.99,1.05-1.66.5-6.84,2.29-6.65,4.34.35,3.63,8.67,11.75,10.51,15.75,2.58,5.63,1,10.06,5.47,15.52.89,1.09,6.76,6.3,7.67,6.58,3.2.96,9.45-.29,13.28.21,12.91,1.71,13.74,9.04,19.16,18.13.41.69,1.65.92,2.18,1.74.87,1.35.19,3.5,1.95,3.31,2.63-.28,10.13-5.27,11.94-7.56,12.45-15.75-7.32-29.4-12.95-42.41-1.58-3.65-3.17-7.39-3.17-11.45ZM135.12,44.45c-1.4-.29-2.39-.88-3.93-.64-8.57,1.37-11.24,20.59-24.51,22.79-7.37,1.22-9.69-2.1-12.58,6.91-2.56,8-.74,15.26-.2,23.41l7.92-2.97c.26-3.51-.83-6.24-.24-9.97.81-5.11,5.83-12.79,11.55-13.08,2.14-.11,4.03,1.82,5.95,2.02,6.78.69,11.76-11.29,19.02-12.02-1.45-5.84-6.87-9.88-2.97-16.45ZM48.16,62.43l2.25-15.74c-3.07,2.3-5.33,5.53-8.99,7.12-13.68,5.98-19.8-.59-29.99,15.74-7.38,11.82-5.53,21.41-6.62,34.74l8.12,3.88c2.6-13.32,4.25-29.22,14.6-39.01,5.59-5.29,12.73-9.4,20.63-6.73ZM122.38,77.42l12.74,3.42c.66-.33,7.32-11.6,7.69-12.65.56-1.55-.39-3.48-2.04-3.52-4.27,1.27-7.02,4.98-10.21,7.82l-8.18,4.93ZM50.24,71.61c-6.45-1.69-8.72-5.6-15.5-1.98-11.82,6.33-11.66,21.45-14.69,32.54-.63,2.31-4.13,9.21-4.1,10.13.02.7,5.13,10.3,5.99,12.71,3.83,10.73,5.47,22.73,10.33,33.16,3.2,6.86,8.07,12.17,12.15,18.22l1.47-.36c-1.82-3.57-1.64-7.92-2.58-11.67-2.61-10.46-7.52-20.41-8.47-31.33-.8-9.29,3.06-27.31,15.55-24.12.09-4.76-1.01-9.06-.78-13.9.39-7.89,3.92-15.45.61-23.41ZM153.42,86.88c-5.1-5.62-7.75-7.86-8.94-16.21-1.06,3.69-3.28,12.22-7.13,13.86-6.41,2.72-15.88-7.8-19.48,3.01,12.2-1.28,24.26.32,36.36,1.14,1.62-1.37-.45-1.41-.81-1.8ZM120.87,76.69c-3.19.86-5.72-1.67-8.6-1.56-7.58.29-6.48,11.35-6.39,16.55,7.08-1.47,4.85-2.31,6.16-6.95.29-1.04,1.83-4.3,2.49-5.01,2.03-2.17,4.96-.59,6.34-3.03ZM193.58,114.15c-5.66-5.15-6.25-13.83-12.79-18.31-7.78-5.32-16.84-1.67-25.07-1.18-15.63.92-23.56-6.64-41.23-.75-17.29,5.76-32.4,13.65-44.57,27.4-.67.76-4.22,5-3.77,5.59,8.77,5.32,17.14-2.49,26.08-5.02,24.33-6.88,31.76,2.63,51.96,12.07,9.29,4.34,13.87,2.75,20.44,12.54,3.19,4.75,6.23,13.47,9.43,17.56,1.29,1.64,11.66,6.46,14.95,9.04,2.93,2.3,5.34,5.54,8.3,7.81,1.68-19.77-29.44-43.51-11.91-61.02,2.01-2.01,5.55-4.48,8.17-5.72ZM9.68,112.92c-1.46-1.37-4.1-2.07-5.37-4-.79.26-.34,1.81-.27,2.52,3.48,36,12.07,75.78,42.27,98.68l8.6,6.01c-6.1-9.17-17.91-14.21-19.42-25.92-.97-7.55,1.21-10,8.17-11.93-7.86-6.85-12.97-14.84-16.69-24.54-5-13.03-6.67-30.83-17.29-40.81ZM59.67,128.15c-2.95-2.86-9.65-14.78-12.03-15.4-2.47-.65-4.89,4.21-5.61,6.15-4.77,12.95,5.09,33.94,8.79,46.97,1.39,4.91,1.92,10.85,3.76,15.74,8.94,3.33,16.66,9.97,26.03,11.86,10.04-2.55,15.66-16.19,24.87-19.36,10.67-3.67,17.33,4.45,27.59,2.85,11.87-1.85,20.44-15.89,33.53-14.07l-11.3-18.31c-3.25-3.13-7.98-3.14-11.7-4.79-19.73-8.71-30.14-19.76-53.28-11.59-12.52,4.42-18.49,11.71-30.64-.06ZM197.98,191.51c-.15-.24-1.55-.5-2.15-1.22-5.6-6.72-9.53-12.32-17.3-17.21-24.37-15.35-29.66,12.28-52.59,9.11-9.89-1.36-14.83-8.92-24.56-.19-6.19,5.55-13.58,18.09-23.41,16.71-9.96-1.4-23.14-11.88-33.35-13.91-8.6-1.7-4.02,9.66-.49,13.24,5.8,5.89,13.3,10.08,19.42,17.31,7.12,8.41,9.2,18.78,19.87,23.61,24.41,11.07,62.88,3.96,85.83-8.59,2.03-1.11,16.67-10,17.39-10.72,2.13-2.12,8.58-14.63,9.55-17.81.46-1.5,2.16-9.75,1.8-10.35Z"/></svg>