<?xml version="1.0" encoding="UTF-8"?><svg id="Calque_1" xmlns="http://www.w3.org/2000/svg" viewBox="0 0 389.24 633.47"><defs><style>.cls-1{fill:#e49881;}</style></defs><path class="cls-1" d="M226.31,37.78c10.06,9.28,18.46,21.35,24.4,33.7,13.44,27.96,23.12,67.68,8.99,97.01-8.56,17.76-26.67,29.41-31.67,48.48.09.6,2.87,2.1,3.58,2.96,9.48,11.47,20.06,20.53,29.84,32,18.22,21.39,35.57,50.69,46.24,76.71,2.71,6.62,5.56,19.2,8.47,24.52.19.34.92.95,1.12.74,2.66-11.42,7.17-20.79,16.14-28.47,16.74-14.33,27.37-19.51,37.23-41.49l10.44-33.41c4.4-1.21,4.87,2.26,5.7,5.74,3.42,14.45,2.87,32.3.85,46.92-1.41,10.25-5.49,31.82-12.64,39.09-14.93,15.17-42.49,11.06-50.57,34.89-2.32,6.83.55,14.31,1.1,21.35,4.69,60.29-7.43,115.78-28.14,172.03-6.06,16.45-13.5,37.73-21.03,53.19-1.17,2.4-4.2,9.49-6.8,9.71l-1.8-.96c-1.37-1.83,1.12-11.9,2.08-14.52,2.65-7.2,7.47-15.31,10.52-22.47,13.79-32.35,27.75-66.5,34.49-101.21.76-3.94,3.55-16.46,1.63-19.25-1.61-2.34-21.39-6.76-25.15-7.08-10.01-.86-19.2,2.61-29.13,2.14-28.21-1.32-37.65-25.78-56.25-41.96-28.15-24.49-68.09-22.85-102.73-15.83-1.87-.28-5.43,1.42-8.91-.13-1.46-.65-3.74-2.06-1.03-4.52.61-.55,1.63-1.76,6.11-4.82,1.95-1.34,19.35-11.29,22.73-12.86,58.12-26.91,120.55,3.4,165.53,41.15,7.85,6.59,19,16.36,25.11,24.37,2.49,3.26,4.04,7.13,6.75,10.1l2.29-22.09c3.69-68.06-20.49-135.82-64.86-187.11-8.78-10.15-20.97-20.01-28.75-30.48-1.48-2-4.52-2.11-7.69-2.8l-5.5,3.24c-1.62.95-3.3,1.77-5.01,2.55-29.77,13.65-47.39,46.83-84.05,40.8-9.99-1.64-20.03-6.78-29.8-9.18-7.82-1.93-13.33-1.61-20.91-5.33-12.53-6.14-29.24-15.57-38.7-25.77C21.7,213.47,2.74,169.77.95,148.1-1.28,121.04-.91,75.74,17.04,54c12.78-15.47,41.86-34.51,61.68-38.03,9.15-1.62,17.08-.55,26.42-3.56C116.26,8.83,127.11.14,139.28,0c33.42-.36,63.25,15.82,87.03,37.78ZM249.8,83.26c-2.86-7.54-7.04-15.92-11.38-22.72C219.9,31.51,174.12,5.85,139.37,7.07c-10.75.38-20.01,7.85-29.74,11.33-8.02,2.87-16.74,3.41-24.74,6.38,4.57,12.71,16.8,10.15,27.29,12.06,5.52,1,10.84,3.29,15.69,6.05,1.23.7,2.12,2.4,3.28,2.74,3.43,1.03,8.94-2.1,12.58-2.18,11.78-.27,31.18,8.11,43.68,11.11,16.38,3.93,33.39,4.68,47.91,14.3,6.09,4.03,9.7,9.06,14.46,14.39ZM80.4,21.03c-8.46,2.28-16.57,5.42-23.93,10.17-9.25,5.98-25.24,18.51-33.05,26.17-5.94,5.82-1.18,3.43-.17,8.43.36,1.81.15,3.63.19,5.45,3.43-3.18,6.29-6.95,9.73-10.13,3.73-3.46,8.77-6.64,12.3-10.19,5.39-5.41,13.06-19.53,21.75-18.66,2.93.29,4.28,3.69,6.04,3.73l7.89-2.99c-.7-4.48-4.27-7.41-.75-11.98ZM120.88,61.51c-.34-2.78-1.29-5.76-.73-8.61.38-1.9,3.86-3.84,2.22-5.24-6.81-5.79-21.85-3.41-30.25-7.24-2.8-1.28-4.64-3.38-7.46-4.25l-11.39,8.08c-.09,12.16-6.81,20.21-10.86,30.75,2.05-.1,2.75-1.03,4.52-2.05,1.97-1.13,3.81-2.13,5.94-1.03,1.77.91,3.21,2.23,4.89,1.58.78-.3,2.41-2.67,3.95-3.55,2.72-1.55,10.17-3.59,13.52-4.48,8.42-2.22,16.93-3.45,25.65-3.97ZM67.65,37.53c-8.59.96-9.86,10.95-14.68,16.42-7.29,8.28-18.15,12.87-25.36,23.36-11.23,16.33-.3,26.71,1.83,43.44,1.96.35,1.16-.3,1.56-1.07,5.1-9.85,8.49-18.86,15.35-28.12,1.67-2.25,7.77-7.41,8.42-9.57.74-2.44-.29-5.85.35-8.65,1.56-6.85,6.87-12.1,9.39-18.35.97-2.41,4.72-16.34,3.14-17.46ZM245.62,91.95c-15.3-26.62-31.73-23.4-58.02-29.26-16.56-3.69-32.46-11.91-49.8-10.12-2.97.31-7.85,1.97-10.98,2.64-1.5,5.57,7.5,10.23,11.54,12.43,12.71,6.91,28.77,10.71,42.25,16.97,23.2,10.79,56.68,36.57,60.11,63.59,1.42,11.18-.51,25.51-3,36.55-.56,2.48-1.69,4.73-2.15,7.21l6.72-6.39c26.29-31.78,23-59.42,3.33-93.63ZM17.43,65.26c-.89.07-1.6-.39-2.3.47-.64.78-5.62,14.26-6.15,16.19-12.65,45.89,4.3,130.48,46.14,158.2,5.07,3.36,11.48,6.28,17.03,8.82-3.27-3.96-8.34-5.87-12.02-9.33-19.71-18.53-35.81-43.52-36.76-71.25-.39-11.39,3.62-23.6,3.73-33.67.2-18.07-11.56-33.99-11.17-54.81.04-2.29,2.5-13.65,1.5-14.62ZM218.06,118.01c-21.43-22.47-51.43-29.01-77.88-41.69-4-1.92-15.33-10.36-18.13-10.34-6.32.05-31.76,6.69-37.83,9.48-2.27,1.04-4.42,3.36-6.8,4.46-1.1.51-2.76.03-3.6.51-.59.34-3.96,7.33-4.49,8.63-7.94,19.52-7.64,42.86-2.68,63.05.29,1.17.97,4.99,2.09,5.19,5.84-1.69,12.03-3.33,17.15-6.69,16.03-10.52,15.13-20.08,38.45-23.02,11.44-1.45,27.79-2.52,38.83-.87,13.48,2.02,18.77,9.26,28.19,17.61,5.93,5.27,12.14,10.29,18.78,14.96,8.28,5.82,17.78,10.18,24.66,17.69,1.11-7.4,1.47-14.63.75-22.11-1.52-15.79-6.7-25.54-17.49-36.86ZM63.16,158.22c.32-.44-3.15-8.63-3.56-10.3-4.12-16.72-4.1-35.51.93-51.93,1.33-4.33,3.66-8.37,4.87-12.74-8.21,6.12-14.9,14.88-20.12,23.73-7.65,12.98-11.68,26.99-13.52,41.96-5.96,48.7,21.8,85.51,65.68,102.82,25.67,10.13,45.71,16.51,70.14.04,6.8-4.59,13.05-10.74,20-15.23l-25.2,7.04c-25.75,3.52-52.88-1.48-74.74-15.79-13.15-8.61-42.4-37.96-46.99-52.72-5.95-19.12,9.57-14.73,22.5-16.89ZM62.9,193.73c18.65,19.99,35.31,35.71,63.2,41.38,36.01,7.31,65.99-4.61,96.28-22.97,1.65-3.97,3.96-7.65,5.69-11.55.9-2.02,5.04-12.02,5.04-13.35-.02-6.16-11.05-12.26-16.02-15.4-9.33-5.89-20.4-11.08-29-18.22-9.77-8.1-12.6-15.95-27.19-17.79-10.48-1.32-23.97-.34-34.38.59-12.44,1.1-14.82.88-24.38,9.42-1.87,1.67-2.89,3.85-4.87,5.63-12.29,11.04-26.12,13.92-41.99,14.3-3.07.07-6.64-1.26-10.12.31-1.37.81,0,2.99.43,4.13,3.68,9.91,10.48,16.19,17.33,23.53Z"/></svg>