<?xml version="1.0" encoding="UTF-8"?><svg id="Calque_1" xmlns="http://www.w3.org/2000/svg" viewBox="0 0 418.21 748.68"><defs><style>.cls-1{fill:#243483;}</style></defs><path class="cls-1" d="M379.39,211.06c-16.89,15.31-38.35,20.81-60.1,26.54-33.74,8.9-73.05,14.84-101.8-9.57-4.3-3.65-6.72-7.9-11.07-11.44-5.74,13.25-13.76,25.32-19.48,38.7-29.06,67.94-38.6,132.68-26.35,205.94,8.76,52.37,26.54,102.79,34,155.42,1.97.16,1.24.09,1.47-1.13,5.04-26.93,18.37-53.24,36.5-73.8,8.49-9.63,19.6-17.85,28.06-27.45,19.14-21.73,25.85-52.05,25.38-80.56-9.26-3.22-20.78-2.98-28.78-9.11-8.56-6.56-17.3-28.1-18.28-38.73-.57-6.14-.62-20.82,5.49-24.32,4.38-2.52,7.85,2.27,8.66,1.54,1.46-7.64,6.58-17.72,15.38-18.06,3.89-.15,14.68,1.2,17.9,3.17,1.32.81,2.6,2,2.75,3.64,8.85-10.33,22.73-5.43,28.11,6.01,8.65,18.41,12.02,44.14-1.12,61.13-5.77,7.46-16.5,14.6-26.25,12.38l1.34,19.13c-1.27,17.38-5.34,34.58-13.72,49.9-.74,1.36-5.62,7.55-4.88,8.24,9.31-.11,17.11,2.82,24.39-4.49,6.93-6.96,8.12-11.4,18.79-14.97,13.45-4.5,26.22-1.97,38.93-3.83,1.15-.17,2.04-1.36,3.08-1.48,2.84-.31,3.18,1.97,1.87,4.18-1.3,2.18-6.85,9.23-8.73,11.52-12.43,15.12-23.78,21.86-43.7,17.57-4.18-.9-12.47-4.57-15.56-4.7-1.58-.07-3.29.84-5.19.76-9.09-.36-15.11-1.98-22.54,5.17-34.54,33.2-58.05,61.19-65.43,110.86-1.19,7.99-.22,12.59-.15,20.04.27,31.12-.74,64.36-4.62,95.21-.11.91-.33,4.1-1.4,4.21l2.28-72.36-.77-29.14c-.85-6.91-1.11-7.04-1.53-11.41-1.79-18.55-10.68-62.1-15.63-81.87-2.96-11.81-7.54-35-11.96-45.05-3.33-7.57-17.45-27.96-23.02-34.74-28.83-35.09-66.18-60.92-94.14-95.66-17.21-21.39-26.59-51.91-23.83-79.25-6.31-1.78-8.51-5.55-9.95-7-1.5-1.52-11.48-17.77-12.31-19.95-3.28-8.65-.77-18.88,4.19-26.43,2.55-3.88,14.1-14.84,18.1-17.16,7.46-4.33,6.47-1.68,12.95-.66,9.18,1.44,12.74-.41,19.86,7.15,6.09,6.47,5.19,9.7,7.66,17.1,2.37,7.09,5.48,8.18,3.05,16.94-3,10.85-14.45,27.21-26.3,29.21-2.79.47-11.58-.91-13.56,1.07-.43,8.26.8,17.82,2.46,26.15,5.6,28.07,18.62,46.21,37.53,66.75.8.87,9.69,10.29,10.13,9.74-7.32-26.03,6.31-52.04,4.63-78.27l.99-.72c.47-.34,1.09-.37,1.59-.08l1.09.64c2.48,7.58,7.2,15.47,9.18,23.08.96,3.68,2.12,10.75,2.07,14.43-.14,10.27-7.49,16.29-10.74,25.33-2.52,6.98-5.11,18.25.2,24.24,1.32,1.49,3.93,4.03,5.5,5.55,18.79,18.21,38.35,35.12,54.51,55.97l15.02,22.86-8.17-40.96c-5.91-40.23-5.86-79.02,1.63-119,8.05-42.99,23.23-85.17,46.26-122.41-10.8-5.76-17.31-14.52-22.85-25.19-7.91-15.23-18.13-42.93-20.53-59.74-7.29-51.16,15.04-96.89,64.59-114.53,3.08-1.1,7.17-1.31,9.79-2.21,1.64-.56,4.43-3.26,6.98-4.28,40.81-16.25,109.43-1.79,142.47,26.98,18.73,16.31,36.63,48.6,36.47,73.87-.04,6.29-3.06,13.66-3.12,19.51-.04,3.2,1.57,7.71,1.96,11.41,3.17,29.76-17.19,53.94-37.65,72.5ZM387.38,48.75c-13.4-15.44-32.58-26.75-51.93-33.2-23.59-7.87-53.58-11.36-78.14-7.97-5.2.72-10.74,2.88-16.21,2.93,2.32,5.59-7.11,9.06-8.93,13.95-.55,1.47,3.01,1.76,4.19,2.41,11.32,6.24,29.39,22.98,41.89,22.69,20.74-.49,27.47-10.46,49.79-.34,8.02,3.63,26.82,19.94,32.82,20.31,10.23.62,15.66-20.47,26.53-20.77ZM231.34,16.5c-13.63,2.95-28.12,11-38.61,20.27-13.44,11.87-21.95,27.11-27.02,44.25-9.51,32.13,1.24,64,12.75,93.77,3.96,10.25,11.57,23.28,20.25,30.01.81.63,2.19.23,4.16,1.98l15.55-20.71c-1.52-4.06.29-8.19-.93-12.81-.93-3.49-5.61-9.27-7.29-12.97-7.46-16.45-5.5-32.08,1.72-48.07,2.73-6.06,12.08-14.09,13.25-19.76,1.51-7.31-2.17-11.56-2.84-17.83-1.1-10.29-1.57-25.63-1.56-36.01,0-3.39,1.56-6.59,1.96-9.33.25-1.7,1.87-3.92,2.61-6,1.44-4.05,5.51-4.29,6-6.79ZM320.61,51.01c-15.1-6.1-29.09,3.58-44.62,2.23-18.66-1.62-29.99-18.13-46.88-23.23-2.54,4.97-.77,9.2-.74,13.84.07,9.48-.43,21.52.78,30.73.39,2.97,2.48,6.16,2.87,9.13,1.77,13.3-4.6,15.86-10.31,25.58-9.07,15.45-10.83,32.19-4.25,49,2.9,7.42,8.74,13.02,6.38,21.76,7.33-8.4,14.72-16.83,23.15-24.14-4.02-23.3,5.07-44.22,19.29-62.07,4.6-5.78,8.3-10.09,15.03-13.48,1.28-.65,3.22-.65,4.02-1.23.46-.33,4.57-7.87,6.04-9.72,3.27-4.11,8.54-9.5,13.5-11.26,3.5-1.24,7.31-1.25,10.77-2.73.91-.39,6.03-3.26,4.96-4.41ZM410.64,121.52c.15-12.55-.2-25.66-3.95-37.68-1.55-4.98-12.85-30.91-16.85-31.98-1.8-.48-3.92.82-5.41,1.82-2.14,1.44-12.02,14.06-12.84,16.42-2.42,6.89-.13,20.91,5.66,25.9,2.53-2.89,6.04-5.84,9.93-6.56,22.19-4.11,10.59,12.92,16.16,24,.5,1,6.34,9.16,7.29,8.08ZM340.87,64.5c-2.03-2.35-14.52-11.71-16.72-11.17-2.45,2.2-3.77,4.39-6.77,6.07-3.75,2.09-7.43,2.34-11.01,3.99-6.11,2.82-9.68,9.25-14.26,13.87,3.75-.02,8.54-.65,11.15,2.73,5.25,6.78-1.54,14.6,3.98,21.15,3.36.21,5.54-1.84,9.21-2.14,8.4-.69,14.22,2.1,19.92,7.9l2.98,5.63c2.86-20.54-27.71-16.84-27.04-35.64.2-5.59,2.17-9.15,7.97-10.07,1.71-.27,3.54.19,5.2-.05,5.13-.73,10.28-1.41,15.38-2.25ZM346.87,68.25c-.73-2.06-3.26-2.02-4.5-.36l4.5.36ZM338.62,69.77c-6.93,2.92-26.93-2.22-19.82,11.19,2.5,4.72,18.49,9.6,23.46,15.55,4.34,5.2,6.43,16.38,1.65,21.71-1.23,1.37-2.95.26-2.14,3.5s5.02,5.99,7.75,7.21c.63-.06,6.33-8.68,7.82-10.06,3.31-3.07,4.99-.61,3.61-8.04-.75-4.03-5.32-11.37-8.43-14.08-5.2-4.53-13-3.47-16.45-10.55-3.33-6.83-1.96-10.81,2.55-16.42ZM367.12,72.76c-6.03,2.51-10.04.31-15.75-1.5-.38.36,4.15,7.5,4.45,9.42.51,3.27-.89,9.74-.39,11.61,1.02,3.82,12.12,11.22,10.19,17.97l8.24-10.88c-5.49-7.82-6.91-17.21-6.75-26.63ZM349.12,88.51c.18-4.43.4-8.52-2.36-12.26-3.8-5.13-9.3-.05-6.81,6.07,1.38,3.4,6.42,4.13,9.17,6.19ZM253.1,135.4c-.55,4.81.4,10.47,0,15.38,3.54-2.42,6.82-6.5,10.13-9,6.46-4.9,24.86-15.57,32.58-15.5,6.37.06,10.66,3.87,16.07,6.38,1.29-.25,5.97-6.71,6.8-8.2,7.97-14.32-10.76-11.69-16.4-20.23-4.91-7.42.23-13.48-1.91-21.16-1.89-3.51-15.34.87-18.26,2.56-10.03,5.82-27.7,38.31-29,49.77ZM404.92,126.5c-4.82-6.65-9.08-11.54-9.33-20.35-.22-7.57,6.31-15.23-6.29-13.09-6.62,1.12-16.49,18.81-19.13,24.99,5.68,3.79,10.53,12.11,11.2,18.87,3.37,33.86-11.27,57.27-32.62,81.4-3.35,3.79-7.49,6.77-10.89,10.49,14.97-4.44,28.26-13.28,39.77-23.61,18.13-16.28,37.83-42.94,33.41-68.69-.98-5.74-3.42-6.23-6.13-9.99ZM346.88,131.28c-11.14-1.53-10.27-17.36-16.88-22.51-3.81-2.97-9.83-4.63-14.62-3.75l7.06,4.55c9.05,9.18-.06,19.42-6.92,26.56,0,1.93,9.85,8.85,12.07,9.55,8.4,2.63,17.38-7,19.3-14.41ZM213.6,216.53c26.45,27.45,57.42,27.69,92.01,17.14,31.59-9.64,52.95-33.48,64.11-64.17,3.6-9.9,5.13-26.69,3.37-37.05-.68-3.98-4.74-10.95-9.35-10.84s-11.05,13.93-13.68,17.72c-9.92,14.27-21.71,17.78-35.79,6.18-4.23-3.48-11.41-11.98-16.88-13.14-10.52-2.24-26.42,14.96-33.77,21.05-14.32,11.88-29.5,22.9-41.66,37.11-3.05,3.56-12.1,14.7-12.83,18.75-.42,2.31,2.71,5.42,4.48,7.25ZM39.3,245.3c.19-4.74-5.27-15.05-10.69-14.13-2.57.44-8.85,5.78-11.08,7.74-15.81,13.88-16.21,25.36-5.54,43.07,1.38,2.29,9.73,14.66,12.3,12.83-.43-5.21-2.9-12.46-2.07-17.44.78-4.72,5.5-10.23,6.94-14.81,2.1-6.66-.31-17.52,10.14-17.25ZM53.3,238.81c-1.52-1.37-9.35-6.24-10.99-4.75l3.68,10.01,14.32,4.98c.59-.49-6.04-9.37-7.01-10.24ZM28.04,294.07h13.13c5.25,0,15.36-11.33,17.76-16,10-19.49-2.51-30.23-21.9-27.9-1.95,1.17-2.5,10.39-3.37,13.14-1.43,4.49-6.12,10.23-6.95,14.82-.89,4.92,2.45,10.71,1.33,15.95ZM287.44,356.49c-.34-.58-6.9-4.2-7.91-4.46-1.94-.5-11.39-1.83-13.12-1.54-5.12.87-8.67,10.2-11.02,14.4l9.34,5.49c3.51-3.62,7.6-6.65,12.93-4.48,1.75.72,4.16,4.71,5.48,4.39,4.11-.85,5.7-11.39,4.3-13.8ZM309.65,357.55c-3.83-4.55-6.02-6.7-12.7-5.76-5.84.82-4.83,9.54-5.77,13.73-1.73,7.77-9.25,8.9-12.9,14.86-10.86,17.77,2.06,31.76,9.82,47.26,5.79-.87,12.91-2.11,17.88-5.3,18.3-11.78,16.07-50.03,3.66-64.79ZM272.54,379.65l-24.96-12.72c-3.75.71-3.07,17.01-2.55,20.35.91,5.88,10.31,24.75,14.42,29.09,6.47,6.83,17.7,8.57,25.9,12.72-1.17-5.69-7.02-8.46-9.89-12.98-3.83-6.04-7.39-16.17-6.52-23.32.32-2.62,4.39-12.01,3.6-13.14ZM276.14,376.35c1.26-1.11,2.39-3.77,4.71-4.64-3.54-2.72-8.43-.81-11.99,1.14,1.39,2.05,4.78,5.7,7.28,3.5Z"/></svg>