<?xml version="1.0" encoding="UTF-8"?><svg id="Calque_1" xmlns="http://www.w3.org/2000/svg" viewBox="0 0 501.05 734.85"><defs><style>.cls-1{fill:#fef3ed;}</style></defs><path class="cls-1" d="M342.92,156.04c9.81-8.58,24.48-9.22,36.75-6.4,6.76,1.55,8.21,3.18,3.73,9.57-4.91,7-12.76,13.33-17.57,20.12-24.52,34.64-2.45,80.67-53.82,96.87-15.79,4.98-30.28.7-45.7,4.52-6.85,1.7-13.9,5.53-19.23,10-.37,1.99,11.04,18.14,12.95,21.33,30.64,51.31,43.32,120.09,37.91,178.74-.76,8.23-2.63,16.9-3.73,25.13l22.78-22.57c31.82-38.56,27.22-87.54,65.26-123.67,11.55-10.97,37.88-23.62,53.83-20.78,25.19,4.48,48.59,10.4,60.82,35.13,4.13,8.34,5.61,20.46,2.49,29.34-1.04,2.97-3.55,4.55-6.53,3.19-2.65-1.21-6.69-10.54-9.01-13.49-9.81-12.47-51.24-38.61-66.68-42.02-1.01-.22-1.98-.49-3.03-.34.81,6.77,1.26,13.7,2.43,20.42s4.04,13.71,4.3,21.19c.83,24.38-27.24,37.93-29.97,59.23-1.23,9.56,1.82,18.59-2.59,28.15-6.36,13.78-35.63,23.28-49.68,26.03-12.38,2.42-29.41,2.26-39.88,10.35-2.88,2.22-3.93,5.27-7.61,6.63-14.47,71.16-43.8,137.68-77.47,201.42l-2.67.7c-1.17-1.22,3.47-13.31,4.35-15.51,8.28-20.72,19.42-41.32,27.89-62.08,4.44-15.82,15.31-33.61,18.97-49.26,5.89-25.24-18.09-47.92-36.27-60.92-34.8-24.89-63.14-32.18-76.65-78.53-.98-3.35.06-8.77,4.01-6.27.46.29,4.45,7.27,6.06,8.94,5.67,5.9,21.7,16.38,29.57,17.66,4.34.71,10.44.25,14.94.8,15,1.84,27.91,7.23,39.74,16.48,22.72,17.77,30.75,37.04,27.37,66.37-.06.51-.49,3.35.74,2.24,3.93-9.64,6.59-20.01,8.81-30.18,15.87-72.52,11.16-130.53-15.03-199.79-2.36-6.23-5.17-14.75-7.88-20.61-4.44-9.63-10.94-19.7-16.6-29.13-6.61-3.36-11.91-.11-16.56,4.5-17.64,17.47-21.8,44.52-50.15,51.06-8.56,1.98-15.3-.35-23.56.43-9.34.88-18.93,6.6-28.18,8.55-18.37,3.88-28.58.22-46.13-1.14-12.28-.95-21.7.77-33.88-4.35-2.74-1.15-15.48-7.96-17.43-9.55-5.93-4.84,8.89-9.81,12.52-10.66,20.58-4.8,43.68-.6,63.39-11.58,15.38-8.57,26.43-20.24,45.9-19.38,16.46.73,30.33,12.81,47.01,6.59.79-.29,2.22-.25,2.05-1.31-10.94-.34-22.51-4.31-30.76-11.6-3.47-3.07-6.14-8.31-9.46-11.71-10.95,4.29-22.78,3.82-34.26,5.41-16.04,2.23-37.92,9.04-52.73.79-5.41-3.02-16.52-14.32-19.77-15.52-1.67-.61-6.14-.11-8.47-.47-14.29-2.23-26.54-11.7-33.72-24-11.24-19.26-1.17-26.46-1.91-45.26-.43-10.8-7.29-24.97-.07-35.99,2.75-4.21,7.91-7.48,11.28-10.66,3.15-2.97,4.3-8.57,9.64-10.31-9.15-13.98-13.07-35.02.82-47.26,18.3-16.13,41.63-24.75,61.71-38,5.55-3.66,22.69-19,26.21-20.27,1.99-.72,3.67-.29,5.23-.77C146.99,34.4,173.57,2.57,202.38.1c22.43-1.92,67.62,23.45,86.05,36.86,9.71,7.07,24.52,19.27,30.37,29.61,10.84,19.18,19.33,38.88,23.28,60.69,1.65,9.1,3.75,20,.84,28.78ZM335.84,162.45l5.52-5.98c-.67-8.84-1.86-16.63-4.06-25.17-5.83-22.62-15.32-43.15-26.32-63.65-12.54-23.38-59.68-46.77-84.28-55.91-18.2-6.76-26.77-7.75-44.7.96-6.08,2.95-10.96,7.2-16.49,10.5-13.16,7.83-37.17,18.35-42.19,33.53-2.49,7.54-.43,16.38-4.24,23.5-2.71,5.05-5.92,4.95-9.97,8.03-15.96,12.12-12.65,35.14-16.03,52.94-2.2,11.61-7.21,19.66-2.92,31.85,2.13,6.05,7.13,11.36,9.15,17.48,1.14.85,6.99-5.51,9.52-5.84,3.47-.46,8.97,2.88,12.77,3.4,8.33,1.15,12.81-1.07,19.33-5.78-5.48-12.61-12.14-26.21-13.14-40.15-1.09-15.25,5.18-32.42,16.08-43.12,2.87-2.82,6.93-5.5,10.18-7.92-7.22-17.53-12.89-38.97,12.42-42.2,2.89-.37,5.83.22,8.73-.27,7.81-1.32,15.93-8,24.9-8.12,8.33-.11,23.25,9.18,29.97,14.32,1.25.96,2.62,3.18,3.92,3.57,2.69.81,12.76-.97,17.12-.62,22.42,1.79,29.99,25.37,40.83,40.13,6.74,9.18,18.39,13.82,23.53,24.45,4.14,8.58,3.64,21.62,3.48,31.07-.03,1.7-1.06,3.58-.67,5.04.82,3.1,9.62,10.16,8.89,15.54l8.66-11.58ZM231.23,59.32c-7.43-7.06-23.87-14.96-34.06-13.44-6.25.93-12.88,6.24-18.96,7.28-7.53,1.28-18.91-2.37-24.19,5.05-6.24,8.77,1.15,21.8,4.86,30.33,13.99-7.24,31.32,6.43,37.86,18.47l8.51-.39c.7-.17,1.03-1.64.83-2.29-.8-2.55-7.96-8.64-9.83-11.87-1.25-2.16-4.71-10.28-4.79-12.51-.05-1.38.55-4.37,1.21-5.55,2.23-4.02,17.21-10.42,21.9-11.83,5.19-1.56,11.26-2.49,16.65-3.22ZM123.28,46.58c-12.19,2.28-20.15,13.03-29.62,20.22-12.5,9.49-25.7,14.78-39.09,22.38-6.74,3.83-21.01,11.73-26.42,16.31-8.03,6.78-6.98,20.68-3.43,29.55,2.55,6.38,8.96,13.42,11.92,19.56,11.16,23.11.46,50.05,24.37,70.07,11.31,9.47,26.89,12.79,40.92,16.07,1.17-11.12-5.24-21.87-6.29-32.69-.47-4.87,1.18-9.79.48-13.98-.95-5.69-7.24-13.18-9.38-19.1-5.46-15.07,2.15-26.94,4.23-41.9,2.39-17.21.19-36.42,16.21-48.27,5.73-4.24,10.05-3.02,10.59-12.49.24-4.2-.43-7.62.48-12.42.97-5.14,3-8.66,5.04-13.32ZM313.68,153.04c-.79-9.67.02-20.64-4.63-29.48-3.17-6.03-9.48-9.28-14.12-13.62-14.34-13.39-12.53-32.57-33.78-44.19-13.52-7.39-42.28-.14-55.92,6.18-4.13,1.92-9.13,3.25-8.34,8.56,1.54,10.36,14.7,14.72,14.89,23.46.05,2.31-1.11,3.59-.49,6.39.89,3.99,5.18,7.37,6.8,11.22,2.87,6.82.89,13.81,2.26,20.99,1.27,6.66,4.5,10.28,6.41,16.46,16.81-4.83,23.31-22.98,43.06-21.71,12.73.82,25.92,5.63,36.87,11.85,1.29.73,6.08,4.82,6.99,3.87ZM176.02,118.81c4.38-5.08,11.49-7.56,16.96-11.12-4.23-7.47-12.67-13.58-20.93-15.78-6.8-1.82-10.44.66-16.01,4.3-2.68,1.75-14.43,10.72-13.93,13.62,3.09,3.61,5.57,7.67,7.55,11.97,3.83,8.3,5.4,20.09,11.11,27.12,3.84,4.73,7.62,4.05,12.51,6.23,7.72,3.44,13.02,10.27,18.21,16.64.9-6.05-1.75-12.03-5.35-16.76-3.78-4.96-12.34-9.88-14.52-15.46-2.26-5.78.44-16.17,4.4-20.75ZM213.98,124.55c-.6-5.02-6.14-7.95-7.47-13.18-10.54-.83-26.19,6.42-29.62,16.94-3.45,10.57,3.56,10.86,8.99,17.97,1.63-3.55,2.04-7.54,3.83-11.15,4.39-8.83,14.72-17.74,24.27-10.58ZM193.74,199.52c.85-7.72-2.36-14.81-2.63-22.48-6.25-6.27-11.87-12.87-20.09-16.64-2.83-1.3-6.02-1.75-8.8-3.2-14.71-7.7-13.07-32.19-22.82-43.89-13.4,22.31-2.88,45.3,6.4,66.7,13.84-5.72,29.82,2.02,40.82,10.52l7.12,8.99ZM215.48,127.55c-4.24,1.97-8.31-1.28-12.74,1.13l-5.24,4.49c5.01,5.07,11.23,5.74,17.98,5.63v-11.24ZM215.48,141.8c-8.72,5.9-15.13.65-21.72-5.25l-5.14,12.26,7.76,11.73c4.69-7.79,9.93-7.41,16.68-2.44,1.65,1.21,2.75,3.57,4.72,4.29,2.02.74,4.02.62,3.6-2.05-.37-2.39-3.88-8.34-4.79-11.76-.59-2.18-.22-4.62-1.1-6.78ZM269.46,240.76c3.5-.41,4.77-4.03,7.1-6.02,9.23-7.9,21.36-12.71,30.02-21.71,8.63-8.98,12.07-21.06,17.49-32.01-3.49-4.59-5.43-10.44-8.57-15.17-8.64-13.02-31.96-22.26-47.14-22.91-13.33-.58-21.83,12.66-32.71,18.64-3.02,1.66-8.85,2.78-11.42,5.42-1.54,1.58-3.61,2.47-5.67,3.24-1.53.58-2.63,1.95-3.82,4.16-5.71,10.55-1.41,25.71-3.81,37.42-1.1,5.37-4.6,10.49-5.93,15.81,6.22-1.68,11.47-6.09,17.7-7.79,8.64-2.36,24.71-3.16,32.78.79,5.59,2.74,14.84,13.42,13.99,20.12ZM120.29,275.25c-8.96-8.34-14.9-17.19-16.44-29.66-19.38-.68-40.76-6.9-53.25-22.46-4.69-5.84-8.5-13.5-10.86-20.63-5.65-17.06-1.37-37.32-13.89-51.7-.29,9.12-13.53,13.42-16.37,19.24-6.54,13.39,1.75,24.64,1.84,37.49.09,13.26-7.77,22.89-1.61,35.5,18.24,37.32,46.63,22.45,78.71,24.73,10.88.78,21.44,4.71,31.86,7.48ZM379.64,153.8c-12.26-1.71-23.45-1.81-33.98,5.37-21.81,14.88-20.6,44.31-38.36,61.35-8.2,7.86-25.24,15.37-31.41,24.07-3.24,4.57-5.37,12.99-8.07,18.17-2.92,5.61-7.15,11.33-11.11,16.24,3.48-1.05,6.91-2.59,10.47-3.39,15.2-3.39,28.38.36,43.65-5.07,44.43-15.81,24.94-63.54,50.08-94.61,1.44-1.78,20.01-20.83,18.72-22.13ZM202.73,216.77c5.66-16.21-2.93-37.09,11.2-49.96-2.68-4.34-8.32-9.92-13.4-5.85-.34.27-3.56,4.32-3.64,4.6-.48,1.67-1.38,11.47-1.36,13.47.09,6.21,2.45,11.61,1.95,18.61-.17,2.33-1.54,5.22-1.32,7.34.25,2.47,4.65,9.73,6.57,11.79ZM151.76,280.5c-.97-4.2-1.14-7.88.39-11.99,1.47-3.97,12.72-26.07,15.06-28.42,8.26-8.28,17.79-4.18,27.47-7.02,3.26-.96,4.76-6.86,4.3-9.87-.53-3.46-10.97-23.92-13.5-27.04-5.67-6.99-21.45-13.97-30.26-13.05-9.56.99-16.62,10.68-27.27,10.95-10.24.27-18.93-10.5-25.45,2.28-4.65,9.11,1.17,18.97,3.21,27.88,2.2,9.62,3.52,23.99,8.01,32.47,4.06,7.66,19.01,19.83,27.4,22.08,3.82,1.02,7.03.64,10.64,1.72ZM240.07,224.49c-19.94,1.04-24.2,7.64-40.33,13.65-8.87,3.3-15.82.85-24.37,1.86s-10.46,15.19-12.95,21.53c-1.45,3.69-6.77,11.49-5.6,14.99,1.19,3.55,10.5,13.79,13.68,16.38,8.02,6.53,27.95,13.97,38.04,11.02,9.21-2.7,16.8-15.42,24.63-16.6,2.05-.31,4.34.43,6.3-.45,2.25-1.01,14.59-13.29,16.38-15.86,2.48-3.58,11.32-21.08,11.44-24.61.2-5.79-3.83-13.65-7.95-17.62-5.39-5.19-12.26-4.65-19.26-4.29ZM134.53,284.24c-6.09-5.6-13.72-4.1-21.18-5.43-11.61-2.07-22.54-5-34.67-5.13l-22.11,1.57,15.05,10.8c16.61,8.81,44.69-2.66,62.9-1.82ZM209.49,309.75c-6.62,2.66-13.35,6.77-20.62,7.48-22.78,2.23-34.1-14.68-59.04-5.07-14.18,5.47-24.96,17.16-38.94,21.03-18.55,5.14-39.27,3.77-56.83,8.4-.69.18-1.69.19-1.47,1.13,4.35,1.2,8.01,4.6,12.2,6.17,12.73,4.77,27.86,3.41,41.39,4.34,4.77.33,11.46,2.22,15.75,2.24,18.68.1,37.19-9.99,57-9.77,2.64.03,5.15.9,8.25.82,21.02-.55,33.37-20.33,42.32-36.77Z"/><path class="cls-1" d="M107.98,319.63s-31.85,10.06-53.1-16.1c-21.25-26.16-5.73-18.9-23.84-31.53l11.86,3.13s2.61,2.27,5.13,8.89c2.52,6.61,5.29,11.33,9.14,15.21s23.01,24.56,55.34,16.1l-4.52,4.31Z"/><path class="cls-1" d="M95.46,102.94s-18.03,3.22-24.85,19.71c-6.82,16.49,4.71,19.42,4.71,33.63s-4.5,24.21,21.42,40.28l2.44-4.44s-20.7-7.17-20.5-28.69c.2-21.52-5.12-21.11-5.74-27.87s3.69-23.16,21.72-27.87l.79-4.74Z"/><path class="cls-1" d="M171.02,13s-22.8-5.47-45.25,5.99c-22.44,11.46-10.98,12.41-45.36,18.62-34.38,6.21-44.88,57.3-44.88,57.3l6.7-1.83s7.09-43.32,38-50.04c31.04-6.75,32.88-7.84,47.09-19.21,14.22-11.37,40.21-8.94,40.82-6.7l.61,2.23,2.27-6.36Z"/><path class="cls-1" d="M44.54,73.38S6.54,92.15,4.67,120.94c-1.87,28.79,7.86,42.19,7.86,42.19l-4.12,3.99S-2.82,145.41.67,118.45c3.5-26.96,23.97-42.19,45.68-50.93l-1.82,5.87Z"/><path class="cls-1" d="M268.41,66.25s21.72,15.26,32.38,14.58c10.66-.69,25.44,5.16,30.6,20.97l1.72,8.6s-9.97-22.69-32.66-24.41-29.91-14.79-29.91-14.79l-2.12-4.95Z"/></svg>