<?xml version="1.0" encoding="UTF-8"?><svg id="Calque_1" xmlns="http://www.w3.org/2000/svg" viewBox="0 0 404.06 637.02"><defs><style>.cls-1{fill:#243483;}</style></defs><path class="cls-1" d="M363.85,11.98c3.06,3.13,8.78,11.15,9.83,15.28.43,1.68.12,3.74.52,5.48.16.71,2.53,1.49,3.38,2.13,14.61,10.9,28.72,42.18,26.18,60.37-4.83,34.58-34.06,52.68-65.72,59.47-21.53,4.62-41.17-3.15-54.77-19.78-5.46-6.67-9.61-15.09-16.24-20.53-14.97,4.15-27.78,16.15-36.68,28.57-25.32,35.32-19.51,87.06-23.67,128.53-1.23,12.27-3.32,25.07-5.98,37.12,6.12-6.63,12.76-13.4,20.74-17.86,7.42-4.15,16.91-6.21,24.41-10.07,11.02-5.68,31.51-23.7,39.11-33.61,1.56-2.04,7.61-12.54,8.68-13.08,2.34-1.18,4.59.44,4.54,2.99-3.42,10.87-5.26,24.77-10.13,34.93-4.13,8.61-15.85,22.92-23.72,28-17.76,11.46-39.8,6.98-58.3,15.16-11.18,4.94-9.43,13.7-12.8,23.93-7.67,23.24-17.66,45.85-28.36,67.6-13.75,27.95-38.55,67.65-41.91,98.29-.09.82-.87,2.56.53,2.4,15.16-28.67,37.49-57.84,70.9-65.17.44-3.95-.57-7.59-.45-11.71.28-10.35,4.71-22.4,12.36-29.61,6.4-6.03,25.94-14.66,34.08-10.03,1.33.76,2.23,2.78,3.58,3.16,6.03,1.73,13.11,1.92,19.15,5.59,12.16,7.38,14.69,27.12,11.59,39.71-.91,3.71-5.15,15.24-7.23,18.13-9.29,12.9-16.13,13.12-29.43,16.43-14.42,3.58-30.53-.37-37.47-14.71-1.33-2.75-2.71-10.14-3.99-11.77-.69-.88-1.09-.73-2.06-.62-1.81.2-9.42,2.78-11.46,3.61-21.54,8.72-44.44,37.87-55.21,57.99-18.32,34.21-15.07,78.4-18.61,116.34-.38,4.1-.91,8.64-2.61,12.38-3.04-3.8-1.62-9.28-1.88-13.86-1.92-33.4.96-77.99,7.67-110.79.88-4.32,2.23-9.74,2.42-14.22.27-6.23.18-14.02.37-20.49.56-19.1,6.74-30.88-5.64-49.03-15.94-23.36-50.47-25.84-62.55-49.15-7.29-14.07-5.43-28.18-16.74-40.61-4.42-4.85-13.95-9.42-13.12-16.25l2.49-1.65c15.42,1.87,31.28,4.16,45.14,11.51,38.7,20.54,59.33,78.7,57.24,120.5-.54,10.86-3.94,21.73-2.27,32.58l12.93-32.42c11.61-24.86,31.28-50.33,34.2-78.26,2.11-20.2-17.69-50.99-31.01-65.52-18.79-20.51-65.41-52.86-72.12-78.56-1.29-4.93-1.97-9.21-3.3-14.12-9.77-.74-20.02-3.83-29.15-7.41-8.45-3.31-24.55-13-28.06-21.42-8.32-19.93.43-47.39,13.83-63.27,7.89-9.36,18.95-19.25,32.11-16.94,6.4-13.74,20.55-13.87,33.11-8.59,20.09,8.45,34.7,38.03,32.15,59.2-2.43,20.07-13.88,45.37-33.67,53.29-4.52,1.81-9.66,2.11-14.12,4.23.56,13.98,7.61,25.13,16.73,35.14,9.13,10.01,21.64,21.26,31.86,30.37,4.53,4.05,9.56,7.74,14.25,11.61-4.63-17.98,3.65-36.32,7.15-53.96,2.35-11.85,3.67-21.99,3.38-34.17-.08-3.39-2.71-8.56,1.25-10.73,3.41-.83,6.21,6.77,7.5,9.48,4.78,10.03,13.29,30.4,12.99,41.06-.44,15.89-15.8,30.51-17.26,47.96-1.51,18.09,6.68,24.23,14.36,38.1,5.53,9.99,12.23,26.28,12.54,37.7.09,3.34-1.54,7.35-1.05,10.78,7.48-15.3,14.14-32.18,18.9-48.57,11.66-40.15,11.75-77.95,15.2-119,2.52-30.01,3.5-52.75,23.27-77.2,9.25-11.44,23.05-22.07,37.15-26.61.91-1.14-4-24.87-4.18-28.9-.77-16.72,14.87-49.84,27.47-60.98,7.84-6.93,13.21-6.46,21.03-10.45,1.51-.77,2.27-2.25,3.77-2.98,15.93-7.74,38.29-5.33,50.9,7.57ZM358.6,13.48c-8.15-8.26-18.73-8.43-29.72-8.51-.62,2.5,2.85,1.24,4.69,1.67,4.89,1.14,12.04,3.71,13.15,9.38,1.12,5.76-10.38,9.32-8.86,17.07.55,2.8,4.65,2.24,6.75,2.99,1.73.62,3.31,1.89,5.21,2.29,7.04,1.47,15.93.1,17.54-8.09.94-4.76-5.42-13.41-8.77-16.81ZM338.99,17.74c.22-1.35-.57-2.65-1.86-3.11-10.69-3.83-22.81-2.74-33.16,1.8-21.08,9.25-38.2,43.04-37.34,65.44.24,6.26,2.46,12.73,2.29,19.08,3.68-3.26,3.66-8.93,5.86-13.25,2.75-5.4,10.14-13.36,14.77-17.47,12.82-11.39,29.66-17,45.33-23.27.56-.73-4.22-6.57-4.74-8.37-2.71-9.32,2.18-15.36,8.86-20.85h0ZM367.86,137.68c21.26-12.05,36-37.88,29.93-62.56-1.96-7.96-10.76-22.47-16.06-28.92-1.84-2.24-7.73-9.2-10.45-9.04l-4.91,5.67c8.15,8.51,12.62,22.17,3,31.49.02,1.18,5.63,4.13,6.41,4.92.55.56,1.43,1.18,1.92,1.73,12.23,13.33,11.96,23.77,3.05,39.23l-12.88,17.47ZM352.1,61.2c3.57-6.57,6.54-15.3-3.73-16.49,2.13,5.02,3.64,10.71,2.23,16.1l1.5.38ZM349.9,65.74c.46,9.82,13.16,9.21,16.88,1.5,3.08-6.38-1.2-17.03-6.04-21.78.29,4.18,1.09,7.79-.97,11.77-1.31,2.54-6.96,8.12-9.86,8.51ZM276.87,117.72c11.82,15.25,23.37,30.29,44.22,32.63,23.77,2.66,47.14-19.43,56.04-39.75,3.76-8.59,2.78-14.36-2.38-22.17-7.13-10.8-14.46-5.94-24.12-9.62-13.41-5.1-5.33-16.8-6.81-26.18-.91-5.74-2.81-2.42-5.01-1.35-15.58,7.56-33.9,12.95-46.69,25.28-9.36,9.02-11.61,16.12-16.93,27.3-.85,1.78-3.35,4.25-3.68,6.02-.49,2.66,3.99,6.09,5.35,7.84ZM103.26,178.92c1.45-.23,1.18-1.64,1.57-2.55,11.39-26.96,1.08-57.09-25.05-70.32-4.63-2.34-12.85-5.09-17.95-4.19-2.13.38-10.21,5.13-8.77,7.29,2.82.9,6.02,2.98,8.23,4.9,3.31,2.86,5.87,8.4,8.59,10.15,2.79,1.79,7.45,2.44,10.43,3.81,14.18,6.5,20.6,17.48,22.84,32.64.9,6.09,1.31,12.17.11,18.26ZM43.28,112.95c-9.14.47-18.12,7.92-24,14.59-10.28,11.66-14.69,26.21-14.96,41.63l3.74-5.62c8.47-9.43,18.81-9.85,29.74-14.49,3.77-1.6,8.62-3.77,11.48-6.51-11.67-.66-17.16-17.27-10.13-25.88,1.3-1.6,3.03-2.28,4.13-3.73ZM62,124.9c1.45-2.1-6.8-9.12-9.21-9.57-4.11,1.55-9.4,2.78-11.79,6.93-3.49,6.05,2.32,17.83,9.77,17.65,1.58-7.12,3.17-13.4,11.24-15.02ZM59.26,131.92c-2.46,2.18-3.04,8.33-4.6,11.52-8.79,17.99-48.93,11.12-47.38,38.13.51,8.92,11.69,15.26,19.01,19.22,5.44,2.94,29.35,11.36,34.65,11.16,1.69-.06,2.53-1.36,3.74-1.51,5.94-.72,8.53-.06,14.57-2.67,22.45-9.7,25.2-45.69,12.18-63.89-4.23-5.91-14.77-10.99-21.73-12.76-3.25-.83-7.76-1.59-10.44.79ZM205.94,454.83c3.77-12.7,11.82-22.13,25.9-22.5,2.56-.07,5.19,1.06,7.29.64,5.69-1.13,3.83-6.71,4.48-10.57,1.01-6.04,7.05-12,2.84-18.94-.32-.52-8.26-8.16-8.81-8.43-6.15-2.99-20.44,3.6-25.63,7.76-12.88,10.34-15.45,37.1-7.73,51.09.47.85-.05,1.27,1.66.96ZM263.22,405.05c-1.2-1.2-1.17-1.65-3.01-2.61-2.39-1.25-6.55-2.55-9.28-2.71,2.91,2.04,1.84,10.32,2.68,11.64.72,1.14,3.89,2.24,4.83,3.54,1.87,2.58,2.69,8.4,1.87,11.47-.91,3.41-6.29,7.22-5.54,9.93.34,1.22,5.99,6.09,7.27,8.53,1.08,2.05,1.38,4.09,1.99,6.25,5.88-11.61,7.75-28.7,2.64-40.87-1.25-2.98-1.29-2.98-3.46-5.16ZM252.41,431.59c1.26-.99,3.38-13.77-1.48-13.49-1.13,4.8-3.27,9.88,1.48,13.49ZM244.91,433.84c-7.96,7.4-19.36,1.54-28.1,8.25-2.32,1.78-10.71,15.35-9.79,17.22,4.95,5.79,13.32,10.77,21.04,11.27,6.29.41,22.02-3.67,27.31-7.16,11.87-7.84-3.62-17.27-7.8-23.61-1.07-1.63-1.84-4.13-2.67-5.96Z"/></svg>