<?xml version="1.0" encoding="UTF-8"?><svg id="Calque_1" xmlns="http://www.w3.org/2000/svg" viewBox="0 0 490.82 581.76"><defs><style>.cls-1{fill:#839bd1;}</style></defs><path class="cls-1" d="M475.31,39.59C456.71,15.16,411.65-4.48,381.33.89c-1.89.34-4.19,1.79-5.39,1.95-1.93.25-4.77-.18-7.03.13-36.51,5.1-58.32,33.32-60.56,69.48-.74,11.88,2.35,32.34,5.63,43.92,2.29,8.11,5.52,15.04,12.12,20.53-21.08,22.3-37.48,49.11-49.09,77.48-10.8,26.39-16.33,53.01-17.97,81.46l-.19,29.27-7.07-17.82c-8.14-16.6-19.17-30.98-29.49-46.14-.86-1.27-2.3-3.38-2.99-4.59-2.79-4.86.58-12.23,3.3-16.67,3.51-5.74,9.41-8.84,10.96-15.87.55-2.51.76-7.53.62-10.2-.28-5.51-2.41-11.59-3.03-17.14l-.66-.59c-.3-.27-.73-.34-1.1-.17l-.78.35c-2.56,18.25-15.6,34.17-14.26,53.08-.38.32-5.15-7.41-5.57-8.12-10.07-16.78-16.44-31.07-16.31-51.14.04-5.95.55-12.69,2.02-18.3,1.64-1.08,7.48,1.12,9.46,1.19,8.42.3,18.59-9.31,22.19-16.33,2.91-5.67.92-6.86.3-12.06-.65-5.43.43-7.52-2.83-12.82-3.82-6.2-6.53-5.43-12.62-7.72-4.31-1.62-3.25-3.29-8.98-1.38-3.08,1.03-12.56,6.91-14.86,9.21-4.47,4.48-7.65,11.15-6.62,17.55.26,1.62,4.81,14.18,5.62,15.44.78,1.2,1.75,4.1,5.84,6.22-5.77,18.37-3.65,40.66,5.14,57.78,14.28,27.81,36.26,50.83,51.08,79,2.86,5.44,9.67,21.44,10.88,27.11,1.61,7.53,1.48,24.09,1.83,32.62.6,14.28.53,45.43-.87,58.42-.33,3.06-.17,3.18-.56,8.05l-3.59,20.11-1.43,5.99c.86.08,1.72.19,2.58.31,1.93-8.18,3.68-16.36,5.25-24.36,1.01-5.12,1-8.42,2.94-13.73,12.1-33.05,32.21-48.94,60.62-66.84,6.12-3.85,10.02-1.89,16.21-.35,1.29.32,2.59-.06,3.67.21,2.1.53,7.27,4.22,10.01,5.43,13.07,5.76,21.81,2.75,32.49-5.87,1.62-1.3,6.43-5.36,7.63-6.67,1.22-1.33,1.31-2.94-.69-3.13-.73-.07-1.51.62-2.33.58-8.99-.52-17.39-4.07-27.27-2.88-7.83.94-9.27,3.82-15.02,7.61-6.03,3.99-10.97.87-17.38-.37-.41-.57,3.82-4.13,4.52-4.96,7.92-9.33,13.15-20.56,16.48-32.31l1.79-13.32c6.38,2.91,14.76-.47,19.77-4.78,11.42-9.8,12.76-27.95,9.42-41.81-2.07-8.62-10.91-13.95-18.45-8.11.13-1.14-.58-2.15-1.37-2.89-1.93-1.8-9.15-4.26-11.84-4.71-6.09-1.02-11.03,5.18-13.11,10.22-.66.39-2.37-3.39-5.73-2.28-4.69,1.54-6.73,11.62-7.21,15.92-.83,7.44,2.12,23.46,7.07,29.18,4.62,5.34,12.56,6.8,18.47,10.33-3.71,19.64-12.62,39.5-28.83,51.71-7.17,5.4-15.96,9.46-23.15,14.87-15.35,11.54-28.23,27.72-35.51,45.49-.33.81.16.96-1.17.57,2.33-37.19-2.73-74.32-1.33-111.51,1.96-52.02,17.68-95.11,47.25-137.64,5.82-8.37,13.04-15.52,18.86-23.81,2.48,3.05,3.55,6.31,5.98,9.42,16.28,20.83,44.1,22.32,68.53,20.99,15.74-.86,31.26-1.59,45.02-9.71,16.68-9.84,34.08-23.55,36.12-44.43.25-2.6-.21-5.92.27-8.11.87-4.01,3.99-8.64,4.91-12.95,3.69-17.32-4.03-42.02-14.58-55.87ZM220.8,133.83c.54.74,3.84,7.77,3.36,8.02l-9.12-5.45-1.11-7.39c1.34-.79,6.02,3.66,6.87,4.82ZM219.11,161.58c-2.31,2.87-10.85,9.21-14.46,8.47l-9.01-1.86c1.51-3.44.04-7.89,1.35-11.14,1.22-3.03,5.25-6.31,6.87-9.19.99-1.76,2.67-8.01,4.17-8.54,13.64,1.15,20.71,10.3,11.08,22.26ZM186.34,157.62c-4.82-13.67-2.92-21.49,9.9-28.78,1.81-1.03,6.87-3.81,8.7-3.74,3.85.13,6.14,7.98,5.34,11.21-7.14-1.66-7.02,6.13-9.4,10.41-1.64,2.94-5.66,6.06-6.86,9.19-1.27,3.3-.61,8.63-1.05,12.27-2.02.9-6-8.78-6.63-10.55ZM366.16,254.51c1.23-2.75,1.78-8.88,5.9-8.61,4.72.3,5.92,2.08,7.9,5.75,6.43,11.89,2.54,38.46-11.69,43.96-3.86,1.49-8.92,1.33-13.02,1.11-3.13-11.74-10.02-23.18-.05-33.83,3.34-3.57,8.67-3.29,10.96-8.38ZM349.8,256.38c2.72-.83,6.34-1.45,8.39.92-1.71.27-2.86,1.94-3.89,2.52-2.03,1.15-3.84-1.83-4.5-3.44ZM351.29,240.68c1.23.04,7.53,2.3,8.79,2.91.66.32,4.65,3.74,4.8,4.18.62,1.85-1.96,8.86-4.9,8.86-.95.03-2.04-3.05-3.14-3.79-3.35-2.25-6.59-.74-9.51,1.24l-5.64-5.09c2.21-2.55,5.97-8.45,9.61-8.32ZM337.18,284.92c-2.21-3.56-5.98-17.85-5.78-22.01.12-2.36,1.96-13.65,4.63-13.61l15.34,12.27c.38.89-3.74,6.76-4.33,8.51-1.61,4.79-.6,12.24,1.17,16.93,1.33,3.51,4.95,6.24,4.95,10.31-5.04-4.01-12.51-6.8-15.98-12.4ZM382.06,3.7c3.76.74,7.87.04,11.54.29,17.34,1.15,37.44,7.8,52.52,16.54,12.37,7.17,23.94,17.65,30.95,30.15-7.5-1.33-14.22,12.38-21.15,10.5-4.07-1.1-14.66-14.96-19.65-18.59-13.89-10.11-19.92-4.21-34.23-6.82-8.62-1.57-18.66-15.62-25.54-21.51-.72-.62-3.12-1.32-2.54-2.25,1.94-3.1,8.91-4.15,8.11-8.31ZM448.97,76.05c-.08-1.36,1.8-5.6,1.91-7.92.07-1.36-2.03-6.91-1.72-7.1,3.66,2.05,6.1,4.12,10.6,3.26-1.45,6.44-1.8,13.09.86,19.23l-7.2,6.3c2.28-4.36-4.29-11.01-4.45-13.78ZM344.92,101.8c-2.13-12.47,1.45-23.71,9.86-33.03,5.29-5.86,10.03-6.71,10.7-16.1.15-2.1-.83-4.58-.68-6.67.47-6.49,2.52-14.69,3.81-21.2.63-3.19.02-6.34,2.47-9.39,10.87,5.9,16.31,18.84,28.89,22.59,10.47,3.12,21.45-1.54,30.95,4.79.57.94-3.35,2.19-4.03,2.33-2.59.53-5.2,0-7.78.35-3.65.5-8.04,3.46-10.86,5.81-1.27,1.06-5.15,5.65-5.52,5.82-.64.28-1.96.01-2.94.27-5.1,1.37-8.25,3.81-12.23,7.12-12.29,10.24-21.5,23.31-22.04,39.87-6.82,3.82-13.09,8.56-19.31,13.29,2.86-5.67-.35-10.34-1.29-15.84ZM445.28,63.8c1.37,2.96.64,5.73-.11,8.75-1.6-1.8-4.95-3.02-5.42-5.55-.84-4.55,3.65-7.26,5.54-3.2ZM443.46,57.44c1.08-.96,2.82-.63,3.03.89l-3.03-.89ZM432.03,54.27c-1.17-.07-2.37-.65-3.58-.7-4.11-.18-5.97,1.98-6.9,5.79-3.12,12.81,18.39,14.6,13.52,28.29l-1.25-4.29c-3.1-4.79-6.69-7.53-12.56-8.24-2.56-.31-4.35.79-6.63.17-2.86-5.28,2.9-9.68.26-15.08-1.32-2.69-4.69-2.94-7.27-3.45,3.79-2.52,7.15-6.43,11.75-7.5,2.69-.63,5.25-.27,8.13-1.18,2.3-.72,3.52-2.04,5.51-3.2,1.59-.06,8.84,8.13,9.9,10.03-3.63-.14-7.25-.4-10.88-.63ZM372.61,91.14c2.52-7.68,19.25-27.48,26.96-30.06,2.25-.75,12.1-1.85,12.9.83.38,5.57-4.01,9.01-1.69,14.8,2.67,6.66,15.89,7.51,8.4,16.21-.78.91-4.91,4.68-5.83,4.67-3.36-2.49-5.76-5.72-10.13-6.66-5.29-1.14-19.44,3.58-24.56,6.02-2.62,1.25-5.46,3.59-8.23,4.75.97-3.31,1.12-7.34,2.18-10.56ZM423.86,83.23l-4.2-4.12c3.41.07,7.31,2.06,9.51,4.64,3.81,4.47.97,15.22,8.4,17.84-2.37,4.81-9.89,10.15-15.29,7.16-1.42-.79-7.21-6.94-6.93-8.26,5.72-3.93,13.43-9.67,8.52-17.25ZM435.42,94.3c-.09-2.34.93-1.33,1.97-2.1,4.04-2.98,4.18-10.95,1.94-15.14-2.57-4.79-12.85-10.41-13.9-14-2.98-10.21,10.02-3.85,15.19-4.87-3.89,3.21-5.4,5.75-4.08,10.91,1.37,5.35,6.87,5.73,9.8,9.58,1.75,2.3,3.85,7.98,3.79,10.86-.11,5.29-.91,3.37-3.62,5.01-1.22.73-6.35,5.85-6.79,5.8-1.71-1.22-4.21-3.82-4.3-6.05ZM328.02,133.03c-1.11-1.48-2.11-1.41-2.58-1.95-5.01-5.85-8.38-15.87-9.65-23.47-3.69-22.07-6.55-45.47,4.53-66.18,5.91-11.05,13.91-20.3,24.82-26.55,8.52-4.88,19.6-8.35,29.38-8.44-.69,1.65-3.52,1.24-5.08,3.81-.8,1.32-2.23,2.62-2.64,3.75-.66,1.83-2.18,3.8-2.67,6.13-1.48,7.13-3.33,17.72-4.03,24.94-.43,4.4,1.5,7.84-.58,12.64-1.61,3.72-9.16,7.91-11.9,11.69-7.22,9.95-10.78,20.4-7.99,32.75.63,2.77,3.03,7.4,3.17,9.93.19,3.34-1.64,5.92-1.17,8.92l-13.61,12.02ZM394.74,166.04c-25.24,2.35-46.47-2.2-60.73-24.8-.95-1.51-2.66-4.09-2.05-5.61,1.07-2.68,8.87-9.04,11.46-11.06,10.36-8.03,22.34-13.45,33.85-19.58,5.91-3.14,19.26-12.7,26.16-9.67,3.59,1.57,7.32,8.42,9.73,11.41,8.02,9.95,16.61,9.22,25.44.83,2.34-2.23,8.69-10.81,11.9-10.23,3.19.58,4.98,5.94,4.89,8.77-.26,7.36-3.68,18.67-7.56,24.96-12.01,19.49-30.05,32.83-53.1,34.97ZM448.23,156.68c-9.36,5.47-19.74,9.65-30.65,10.58,2.86-2.07,6.12-3.53,8.96-5.66,18.07-13.54,31.44-27.54,33.92-51.26.5-4.73-1.66-11.13-5.02-14.54,2.68-3.87,11.97-14.61,16.67-14.44,8.95.32,3.39,4.65,2.46,9.88-1.08,6.09,1.16,10.04,3.52,15.29,1.33,2.96,2.94,3.64,2.8,7.72-.62,18.31-17.92,33.81-32.67,42.42ZM482.72,103.92c-.81.6-3.66-5.83-3.86-6.58-2.25-8.39,8.12-18.44-7.7-18.76-2.77-.06-5.6,1.47-7.74,3.1-3.27-4.24-2.85-14.2-.22-18.58.9-1.5,9.47-8.77,11.14-9.45,1.16-.48,2.8-1.07,3.97-.48,2.59,1.3,6.68,20.7,7.04,24.34.87,8.78-.75,17.83-2.63,26.43Z"/><path class="cls-1" d="M342.05,491.82c-1.68,15.13-20.69,23.48-20.69,23.48-6.61,10.3-6.59,27.44-6.37,33.25,12,13.1,25.02,23.58,38.77,28.37-.19,1.6-.31,3.21-.36,4.83-30.22-8.54-65.06-55.49-75.79-74.48-.32-.57-.68-1.19-1.02-1.78-2.31,1.87-15.02,12.3-16.58,16.55-1.71,4.67-7.86,18.83-28.42,18.91-20.56.08-40.39-11.49-40.39-11.49,0,0,.18-2.29,3.71-2.22,3.53.06,21.74-2.29,32.26-7.54,10.51-5.25,31.96-21.15,45.37-15.93,0,0-11.58-15.74-24.42-17.57-12.83-1.83-27.24,3.74-44.07-.9-16.82-4.65-20.23-23.73-29.05-31.72-8.81-8-10.73-9.4-10.73-9.4,0,0-2.37-4.16.87-4.74,3.25-.58,9.56,7.01,16.25,9.83,6.69,2.82,19.46,7.57,36.79,18.74,0,0,2.45,1.03,10.74,2.71,8.29,1.69,20.9,6.43,36.89,19.58,1.4,1.15,2.59,2.19,3.69,3.17-12.68-21.1-30.31-48.58-39.76-62.6-6.79-10.08-22.16-28.15-36.06-43.8-1.72.05-4.38-.61-8.54-3.37-9.06-6.02-18.34-7.13-24.65-7.62-6.31-.49-15.83,5.83-21.61,11.1-5.78,5.26-7.2,12.66-15.12,31.2-7.91,18.53-23.2,18.83-28.59,19.15-5.4.32-26.65-4.81-30.22-4.88-3.58-.06-2-3.57-2-3.57,18.12-7.43,37.54-12.29,43.75-13.46,6.22-1.16,19.54-12.87,25.92-24.7,6.38-11.83,19.58-15.54,19.58-15.54-17.55-2.18-31.33-12.32-31.33-12.32-12.52-2.28-30.84,7.33-42.28,13.01-11.45,5.68-28.12,2.29-37.89-2.67-9.78-4.96-35.43-12.23-38.76-13.39-3.33-1.15-1.44-3.74-1.44-3.74,7.3-1.17,12.64-7.1,42.3-14.9,29.66-7.8,65.21,8.08,69.62,9.89,4.42,1.81,7.26,4.33,7.26,4.33,15.56,14.82,23.44,14.66,41.05,17.94,17.61,3.28,20.53,5.56,24.19,7.64,2.09,1.19,4.16,1.9,5.57,2.31-8.81-9.85-16.67-18.34-20.83-22.62-11.09-11.39-30.36-41.95-30.36-41.95-12.06-1.25-35.47-34.51-39.99-44.65-4.52-10.14-9.16-27.02-15.89-41.98-6.73-14.96-22.67-18.35-27.21-20.05-4.54-1.69-3.59-5.14-3.59-5.14,36.96,1.18,60.1,5.91,68.45,42.24,8.35,36.33,22.7,78.17,55.63,111.78,32.92,33.62,52.94,59.1,75.91,94.46,12.88,19.83,33.73,60.48,59.54,89.87-.24-11.26,2.63-21.7,9.07-35.62,7.28-15.74,4.46-31.43,2.01-43.33-2.45-11.9-6.02-20.12-6.92-23.74-.9-3.62,1.78-3.42,1.78-3.42l8.54,5.05c19.04,10.88,17.04,32.26,15.37,47.39Z"/></svg>