<?xml version="1.0" encoding="UTF-8"?><svg id="Calque_1" xmlns="http://www.w3.org/2000/svg" viewBox="0 0 473.44 491.42"><defs><style>.cls-1{fill:#839bd1;}</style></defs><path class="cls-1" d="M342.05,401.48c-1.68,15.13-20.69,23.48-20.69,23.48-6.61,10.3-6.59,27.44-6.37,33.25,12,13.1,25.02,23.58,38.77,28.37-.19,1.6-.31,3.21-.36,4.83-30.22-8.54-65.06-55.49-75.79-74.48-.32-.57-.68-1.19-1.02-1.78-2.31,1.87-15.02,12.3-16.58,16.55-1.71,4.67-7.86,18.83-28.42,18.91-20.56.08-40.39-11.49-40.39-11.49,0,0,.18-2.29,3.71-2.22,3.53.06,21.74-2.29,32.26-7.54,10.51-5.25,31.96-21.15,45.37-15.93,0,0-11.58-15.74-24.42-17.57-12.83-1.83-27.24,3.74-44.07-.9-16.82-4.65-20.23-23.73-29.05-31.72-8.81-8-10.73-9.4-10.73-9.4,0,0-2.37-4.16.87-4.74,3.25-.58,9.56,7.01,16.25,9.83,6.69,2.82,19.46,7.57,36.79,18.74,0,0,2.45,1.03,10.74,2.71,8.29,1.69,20.9,6.43,36.89,19.58,1.4,1.15,2.59,2.19,3.69,3.17-12.68-21.1-30.31-48.58-39.76-62.6-6.79-10.08-22.16-28.15-36.06-43.8-1.72.05-4.38-.61-8.54-3.37-9.06-6.02-18.34-7.13-24.65-7.62-6.31-.49-15.83,5.83-21.61,11.1-5.78,5.26-7.2,12.66-15.12,31.2-7.91,18.53-23.2,18.83-28.59,19.15-5.4.32-26.65-4.81-30.22-4.88-3.58-.06-2-3.57-2-3.57,18.12-7.43,37.54-12.29,43.75-13.46,6.22-1.16,19.54-12.87,25.92-24.7,6.38-11.83,19.58-15.54,19.58-15.54-17.55-2.18-31.33-12.32-31.33-12.32-12.52-2.28-30.84,7.33-42.28,13.01-11.45,5.68-28.12,2.29-37.89-2.67-9.78-4.96-35.43-12.23-38.76-13.39-3.33-1.15-1.44-3.74-1.44-3.74,7.3-1.17,12.64-7.1,42.3-14.9,29.66-7.8,65.21,8.08,69.62,9.89,4.42,1.81,7.26,4.33,7.26,4.33,15.56,14.82,23.44,14.66,41.05,17.94,17.61,3.28,20.53,5.56,24.19,7.64,2.09,1.19,4.16,1.9,5.57,2.31-8.81-9.85-16.67-18.34-20.83-22.62-11.09-11.39-30.36-41.95-30.36-41.95-12.06-1.25-35.47-34.51-39.99-44.65-4.52-10.14-9.16-27.02-15.89-41.98-6.73-14.96-22.67-18.35-27.21-20.05-4.54-1.69-3.59-5.14-3.59-5.14,36.96,1.18,60.1,5.91,68.45,42.24,8.35,36.33,22.7,78.17,55.63,111.78,32.92,33.62,52.94,59.1,75.91,94.46,12.88,19.83,33.73,60.48,59.54,89.87-.24-11.26,2.63-21.7,9.07-35.62,7.28-15.74,4.46-31.43,2.01-43.33-2.45-11.9-6.02-20.12-6.92-23.74-.9-3.62,1.78-3.42,1.78-3.42l8.54,5.05c19.04,10.88,17.04,32.26,15.37,47.39Z"/><path class="cls-1" d="M352.5,168.58l-32.28,45.37c-7,12.16-14.51,23.98-20.25,36.85-2.49,5.57-4.51,11.92-6.45,17.73,13.93-2.4,28.47-5.88,40.35-14.03,14.89-10.22,20.67-17.85,40.07-19.63,13.24-1.21,32.81,3.01,44.83,8.69,1.61.76,3.75,2.32,1.76,3.76-1.67,1.21-3.86-.04-5.54.03-4.58.2-17.03,2.22-20.88,4.15-9.85,4.96-15.03,17.31-25.25,22.45-9.4,4.73-28.53-1.64-39.36-2.28-6.01-.36-17.48-1.08-23.04-.29-3.04.43-8.07,2.68-10.72,2.69-1.19,0-4.41,1.25-5.36,2.37-3.99,11.88-5.44,21.52-7.08,33.94-3.91,29.55,1.52,59.45,8.76,88.19,2.29,9.11,5.02,20.72,8.57,29.25,3.53,8.5,7.12,16.88,9.93,24.63.64,1.76,2.16,3.43.21,4.56-1.9-.01-6.22-12.84-7.21-15.24-10.32-25.16-17.96-53.53-22.47-80.9-2.22-13.45-2.49-26.06-7.41-39.13-7.54-20.03-28.78-31.4-38.54-51.14-9.09-18.38-11.68-34.31-10.29-54.41.15-2.14,1.46-7.14,1.26-8.9-.24-2.12-3.25-5.02-4.14-7.87-1.27-4.06-2.93-15.66-3.23-20.12-.48-7.31,1.25-15.63,1.84-23.01.24-3.01-1.22-14.8,4.28-10.36l9.78,25.08c3.24,11.38-1.58,20.38-3.95,31.15-.34,1.54-1.28,4.6-1.28,5.93,0,3.98,9.9,19.55,12.74,23.24,10.71,13.92,25.89,25.58,32.51,42.13,3.36,8.4,3.9,18.64,4.94,27.58.22.34.6-.11.73-.36.66-1.2,1.79-12.48,2.37-15.2,8.62-40.08,33.25-79.63,59.18-110.93,2.47-2.99,3.41-5.5,6-8.48-5.11-.57-6.89-1.39-11.85-3.01-19.41-6.35-38.31-19.64-44.88-39.84-2.39-7.35-.4-9.28-.4-15.61,0-2.93-1.61-7.42-1.94-10.44-3.1-27.8,2.87-45.56,20.06-67.69,10.11-13.02,22.67-27.67,40.05-29.36,11.16-1.08,14.74,7.39,23.37,8.4,2,.24,6.1-.61,7.47.28,1.03.66.56,1.96.68,2.08.32.34,7.9-.69,9.28-.62,3.35.18,7.73,1.35,11.12,2.02,5.8,1.16,11.74,2.64,17.4,4.24,5.3,1.5,4.45,5.33,7.66,8.1,2.49,2.15,9.05,3.85,11.82,6.27,1.56,1.37,3.28,5.44,4,6.07,1.84,1.62,7.37,2.57,9.58,4.19,3.27,2.39,10.95,13.2,12.9,17.12.87,1.75,1.31,6.11,1.73,6.71.63.92,2.96.75,4.65,4.17,5.07,10.24,2.17,34.36.32,45.71-.69,4.24-2.21,7.56-3.25,11.47-2.94,10.97-6.19,27.19-15.27,34.68-7.09,5.85-13.22,4.71-21.28,6.45-22.17,4.8-31.64,20.23-57.05,12.16-7.79-2.47-14.67-6.73-21.57-11.03ZM447.45,81.7c4.44-5.13,8.98-10.07,14.17-14.46.69-.92.16-2.27-.09-3.35-1.16-4.93-7.31-15.8-11.08-19.16-1.74-1.55-11.44-5.82-13.33-5.18-.52.18-.82.22-.76.87.12,6.85-1.91,13.41-3.29,20.04,7.41,5.5,10.94,13.04,14.38,21.22ZM437.03,35.46c-.08-2.85-10.7-6.58-12.71-8.52-3.83-3.69-1.9-9.75-8.75-8.6-6.34,1.07-10.65,10.56-16.21,14.67-8.19,6.04-21.9,2.05-24.94,14.86l8.42-4.34c2.48-.83,5.58-2.29,8.2-1.32,1.64.61,2.92,2.08,4.41,2.82,4.34,2.17,7.83.6,12.25.55,4.52-.06,14.62.17,12.82,6.73l.41.54c3.34,1.3,6.39,3.13,9.06,5.54,1.74-1.04.54-2.34.71-3.63.47-3.61,1.9-7.18,2.28-11.01.38-3.86-1.66-7.08,4.05-8.29ZM358.79,166.17c6.26,3.62,11.61,7.36,18.61,9.52,18.54,5.71,27.85-5.57,43.66-11.47,7.09-2.64,15.49-2.64,22.38-5.58,7.71-3.29,9.43-8.36,12.3-15.68,6.88-17.57,12.57-43.39,12.35-62.24-.02-2.08-.6-10.88-1.32-12.29-.46-.9-.63-.38-1.11-.02-1.09.81-4.51,4.9-5.66,6.24-5.87,6.81-13.59,14.89-15.99,23.53-1.25,4.52-.85,8.42-2.67,12.96-2.69,6.71-7.34,11.57-14.82,12.42-7.19.82-13.96-3.82-20.93-4.05-.59-.02-4.04,1.17-4.67,1.58-6.7,4.43-7.6,17.23-11.16,24.18-4.25,8.31-14.11,16.01-22.97,18.88-1.07.35-8.02,1.42-8.02,2.01ZM356.12,53.16l12.43,2.52c2.82-6.22,2.62-13.63,8.44-18.39,5.87-4.8,13.73-3.29,19.43-6.56,6.05-3.47,8.4-9.1,13.4-13.53.09-.55-5.77-.77-6.49-.67-6.92.97-7.66,7.61-12.04,11.17-3.68,2.99-9.3,4.04-13.5,5.9-9.43,4.18-16.93,10.3-21.67,19.56ZM349.42,53.51c3.3-.43,3.43-.64,5.84-3.16,6.35-6.63,7.91-12.93,16.98-18.16,4.97-2.87,12.48-3.79,16.86-7.4,3.77-3.11,4.86-9.14,10-11.11-5.96-1.64-18.95-2.58-23.99,1.3-3.87,2.98-4.46,6.02-7.17,9.18-5.32,6.21-12.61,9.23-18.1,15.33-3.67,4.08-6.48,8.37-5.77,14.05.19.32,4.65.06,5.35-.03ZM445.12,84.64c-3.02-3.46-3.99-7.94-6.35-11.8-3.81-6.24-9.24-11.52-15.64-15.09-1.06-.59-4.49-2.33-5.43-1.23-1.66,1.94-1.68,10.1-2.8,12.97-1.57,4.05-4.58,5.41-5.14,10.33-.11.98.12,6.48.43,7.07,1.08,2.08,4.76,4.61,6.37,6.79,5.44,7.33,2.15,11.33.22,18.49-.15.54.34,1.28.19,1.95-.25,1.1-1.67,1.8-.72,2.6,1.42,1.19,7.6,2.53,9.63,2.32,14-1.42,11.23-18.03,15.03-27.2,1.06-2.57,2.18-5.2,4.22-7.18ZM418.93,52.28c-.54-.85-.72-1.63-1.6-2.29-4.87-3.64-15.85,4.38-23.43-1.22-4.21-3.12-3.67-5.9-9.62-2.96-5.27,2.61-8.04,7.07-11.88,11.32l5.36,2.54c1.89-1.58,2.73-3.46,4.9-4.99,2.97-2.09,9.28-3.31,12.22-.57,1.1,1.02,1.05,2.92,1.89,3.98,2.96,3.75,11.42.41,15.33,3.71,2.23-3.58,1.62-8.28,6.83-9.52ZM367.46,17.28l9.02-6.55c-2.65-.42-5.38.01-7.97-1.05-9.68-3.97-9.36-10.25-22.55-7.42-9.55,2.05-13.48,7.66-20.71,13.62l2,5.98c7.97-5.19,16.78-12.11,26.76-11.68,5.39.23,10.94,1.82,13.45,7.1ZM396.12,61.95l4.49,8.08c.49.17,9.41-1.97,10.12-2.3,1.05-.48,1.56-1.89.78-2.74-2.72-1.53-5.93-1.1-8.92-1.33l-6.47-1.71ZM363.85,22.8c-2.29-4.07-1.43-7.12-6.56-8.76-8.95-2.86-16.49,4.6-23.54,8.48-1.47.81-6.65,2.42-7.1,2.88-.34.35-2.68,7.61-3.47,9.22-3.53,7.16-8.77,13.84-11.65,21.37-1.89,4.96-2.19,10-3.25,15l.9.57c.91-2.66,3.19-4.69,4.62-6.99,3.99-6.42,6.6-13.74,11.64-19.55,4.28-4.94,15.24-11.78,19.72-3.94,2.44-2.27,4.07-4.93,6.62-7.17,4.16-3.65,9.69-5.56,12.08-11.11ZM406.5,82.19c.34-5.31.18-7.74,3.8-12.41-2.38,1.27-7.75,4.31-10.46,3.17-4.5-1.9-3.82-11.8-11.02-8.34,6.6,5.52,11.67,12.37,17.17,18.86,1.48.15.49-.91.51-1.28ZM395.75,60.83c-1.99-1.18-1.95-3.69-3.41-5.09-3.84-3.68-8.88,2.28-11.44,4.86,4.19,2.85,3.53,1.31,6.5-.29.67-.36,3.06-1.18,3.73-1.19,2.09-.04,2.72,2.21,4.61,1.71ZM412.36,115.71c-.17-5.36,3.91-9.9,2.98-15.37-1.12-6.51-7.37-9.29-11.63-13.2-8.09-7.42-8.15-15.1-19.74-21.12-11.33-5.89-22.68-9.65-35.53-9.07-.71.03-4.57.31-4.65.83,1.6,7.01,9.62,7.41,15.25,10.68,15.33,8.89,14.17,17.27,19.28,32.04,2.35,6.79,5.38,8.32,3.66,16.41-.84,3.92-3.74,9.71-4.23,13.31-.2,1.45,2.44,9.02,2.74,11.93.27,2.59-.18,5.39.12,7.99,10.77-8.8,7.54-36.04,24.91-35.76,1.99.03,4.96.61,6.86,1.32ZM323.27,22.54c-.02-1.4-.96-3.07-.61-4.66-.52-.27-1.08.71-1.4,1.09-16.42,19.31-32.26,43.04-29.05,69.41l1.17,7.26c1.64-7.54-1.59-15.95,3.57-22.42,3.33-4.17,5.62-4.27,9.99-1.71-.39-7.3,1.15-13.77,4.21-20.37,4.12-8.87,12.27-18.4,12.11-28.61ZM339.99,55.13c0-2.88,2.73-12.07,1.88-13.57-.88-1.56-4.51-.41-5.83.18-8.84,3.92-14.6,19.12-19.36,27.34-1.79,3.1-4.52,6.26-6.09,9.57,2.68,6.12,3.11,13.25,6.73,18.89,6.18,3.81,15.79-.02,21.88,3.07,7.05,3.58,6.21,10.9,12.02,15.28,6.72,5.07,17.97,2.54,23.44,10.01l3.7-14.62c0-3.16-2.31-5.55-3.3-8.23-5.24-14.18-4.76-24.81-20.15-32.47-8.33-4.15-14.92-3.59-14.92-15.45ZM375.57,155.66c.05-.19-.51-1.02-.44-1.68.65-6.1,1.55-10.81.22-17.11-4.16-19.75-20.65-8.94-30.24-22.02-4.14-5.64-2.75-11.82-11.89-12.46-5.81-.41-15.73,1.99-19.83-3.63-4.16-5.69-5.3-17.44-9.27-23.57-3.34-5.16-6.82,2.69-6.9,6.21-.13,5.79,1.41,11.61.76,18.22-.76,7.69-4.96,13.79-2.19,21.52,6.34,17.69,28.68,33.58,46.19,39.01,1.55.48,13.16,3.51,13.88,3.53,2.1.04,11.55-2.82,13.63-3.88.98-.5,5.96-3.67,6.09-4.15Z"/></svg>