<?xml version="1.0" encoding="UTF-8"?><svg id="Calque_1" xmlns="http://www.w3.org/2000/svg" viewBox="0 0 478.36 509.22"><defs><style>.cls-1{fill:#3b1613;}</style></defs><path class="cls-1" d="M381.16,0c8.53.13,16.1,6.26,23.88,8.81,6.54,2.14,12.1,1.42,18.51,2.58,13.88,2.53,34.2,15.98,43.1,26.86,12.51,15.3,12.62,47.05,10.96,66.01-1.33,15.18-14.76,45.75-25.22,56.92-6.66,7.12-18.41,13.67-27.21,17.93-5.32,2.58-9.19,2.34-14.67,3.66-6.86,1.65-13.91,5.22-20.92,6.34-25.72,4.1-37.95-19.22-58.77-28.89-1.19-.55-2.37-1.13-3.5-1.8l-3.85-2.29c-2.22.48-4.35.54-5.4,1.94-5.49,7.31-14.07,14.18-20.25,21.26-31.28,35.8-48.45,83.21-46.1,130.93l1.53,15.49c1.91-2.07,3.01-4.78,4.77-7.06,4.32-5.59,12.16-12.4,17.69-16.99,31.66-26.3,75.52-47.34,116.17-28.28,2.37,1.11,14.53,8.15,15.89,9.09,3.13,2.16,3.84,3.01,4.27,3.4,1.89,1.73.29,2.71-.74,3.16-2.45,1.07-4.93-.13-6.25.06-24.26-5.04-52.25-6.33-72.06,10.74-13.09,11.27-19.79,28.39-39.57,29.22-6.96.29-13.39-2.17-20.41-1.6-2.64.21-16.52,3.25-17.65,4.88-1.36,1.95.55,10.74,1.08,13.5,4.61,24.35,14.28,48.33,23.83,71.06,2.11,5.03,4.66,11.09,7.3,15.78,9.63,17.16,8.8,23.56,7.83,24.84l-1.26.66c-1.82-.17-10.34-19.8-11.15-21.49-5.22-10.86-10.37-25.8-14.56-37.35-14.33-39.5-22.63-78.43-19.14-120.68.41-4.93,2.44-10.17.84-14.96-5.58-16.73-24.91-13.94-35.33-24.63-4.99-5.12-7.77-20.25-8.73-27.44-1.36-10.25-1.69-22.77.76-32.88.59-2.44.94-4.87,4.01-4l7.21,23.45c6.84,15.44,14.27,19.1,25.95,29.21,6.26,5.41,9.39,12,11.22,20.01.14.15.66-.28.79-.52,2.06-3.72,4.09-12.53,6.02-17.16,7.56-18.2,19.83-38.68,32.67-53.61,6.89-8.01,14.34-14.32,21.02-22.33.5-.6,2.45-1.64,2.52-2.06-3.44-13.39-16.1-21.61-22.04-34.09-9.81-20.6-2.89-48.41,6.63-67.96,4.21-8.64,10.13-17.07,17.21-23.54C336.78,10.88,357.74-.36,381.16,0ZM313.6,47.95c10.22-6.69,22.14-7.17,33.63-9.86,8.77-2.06,22.4-7.87,30.65-7.64,2.55.07,6.4,2.28,8.81,1.57.81-.24,1.44-1.43,2.31-1.91,3.41-1.91,7.15-3.5,11.02-4.19,7.36-1.3,15.92.53,19.17-8.36-5.6-2.11-11.7-2.52-17.32-4.56-6.81-2.48-13.27-7.74-20.81-8.05-24.35-.97-56.53,16.86-69.6,37.14-3.07,4.75-6.02,10.61-8.06,15.89,3.36-3.72,5.91-7.23,10.19-10.04ZM421.79,23.34l5.52,2.12c1.23-.02,2.19-2.4,4.25-2.59,6.09-.58,11.42,9.34,15.18,13.15,2.46,2.5,5.98,4.75,8.59,7.18,2.4,2.24,4.39,4.89,6.78,7.14.03-1.27-.11-2.55.15-3.82.72-3.5,4.05-1.81-.09-5.91-5.45-5.4-16.61-14.24-23.08-18.46-5.14-3.36-10.81-5.58-16.74-7.21,2.45,3.22-.06,5.26-.57,8.4ZM411.81,46.05c2.34.63,7.56,2.09,9.46,3.18,1.08.62,2.21,2.29,2.76,2.5,1.18.46,2.19-.46,3.44-1.09,1.5-.76,2.78-.06,4.16.74,1.24.72,1.73,1.37,3.16,1.45-2.8-7.4-7.49-13.06-7.5-21.59l-7.95-5.71c-1.98.6-3.27,2.07-5.24,2.95-5.9,2.66-16.44.93-21.23,4.97-1.15.97,1.28,2.35,1.54,3.68.38,2-.3,4.08-.54,6.03,6.11.39,12.07,1.28,17.96,2.87ZM433.39,38.8c1.75,4.39,5.45,8.09,6.52,12.89.44,1.96-.29,4.35.21,6.06.45,1.52,4.71,5.16,5.87,6.74,4.77,6.52,7.12,12.84,10.66,19.76.28.54-.29.99,1.09.76,1.54-11.71,9.24-18.96,1.43-30.44-5.02-7.38-12.62-10.63-17.7-16.46-3.36-3.85-4.21-10.86-10.23-11.56-1.11.78,1.47,10.55,2.14,12.25ZM308.33,129.73l4.69,4.5c-.31-1.75-1.1-3.32-1.48-5.06-1.71-7.75-3.01-17.8-1.98-25.63,2.49-18.92,26.05-36.88,42.35-44.37,9.47-4.35,20.74-6.95,29.67-11.75,2.84-1.53,9.17-4.76,8.13-8.67-2.19-.48-5.61-1.66-7.69-1.88-12.15-1.32-23.32,4.39-34.94,6.92-18.45,4.01-29.95,1.71-40.77,20.31-13.9,23.91-16.3,43.27,2.02,65.64ZM467.34,56.42c.2,14.6-8.09,25.71-8.02,38.38.04,7.06,2.81,15.63,2.5,23.61-.76,19.43-12.13,36.89-26.01,49.81-2.6,2.42-6.15,3.74-8.46,6.5,3.91-1.76,8.41-3.79,11.97-6.12,29.42-19.29,41.59-78.52,32.88-110.73-.37-1.36-3.81-10.82-4.26-11.37-.49-.6-.99-.29-1.61-.34-.71.68.98,8.65,1,10.26ZM313.15,108.23c-.53,5.24-.3,10.31.45,15.5,4.85-5.24,11.53-8.26,17.35-12.31,4.67-3.25,9.04-6.75,13.21-10.42,6.63-5.83,10.36-10.88,19.82-12.25,7.74-1.12,19.2-.31,27.22.74,16.33,2.14,15.67,8.84,26.87,16.27,3.58,2.38,7.91,3.54,12,4.75.79-.14,1.28-2.82,1.48-3.63,3.54-14.14,3.84-30.49-1.66-44.21-.37-.91-2.7-5.82-3.12-6.06-.59-.34-1.76,0-2.52-.37-1.66-.78-3.16-2.41-4.75-3.15-4.25-1.98-22.06-6.71-26.49-6.77-1.96-.03-9.94,5.85-12.75,7.18-18.58,8.8-39.63,13.28-54.73,28.96-7.6,7.9-11.27,14.72-12.39,25.78ZM449.69,123.08c-3.27,10.33-23.87,30.8-33.12,36.79-15.37,9.95-34.4,13.37-52.44,10.81l-17.64-5.02c4.86,3.18,9.21,7.51,13.97,10.75,17.07,11.63,31.14,7.22,49.17.21,30.81-11.99,50.4-37.7,46.38-71.85-1.23-10.5-4.02-20.34-9.33-29.46-3.63-6.22-8.28-12.39-14.02-16.7.83,3.07,2.46,5.91,3.37,8.95,3.47,11.53,3.42,24.7.48,36.4-.29,1.17-2.75,6.9-2.53,7.21,9.05,1.56,19.95-1.47,15.71,11.91ZM446.27,119.63c.3-.8,1.27-2.32.31-2.89-2.44-1.11-4.94-.19-7.09-.26-11.12-.32-20.8-2.38-29.38-10.16-1.38-1.26-2.09-2.78-3.39-3.96-6.68-6.02-8.34-5.87-17.06-6.69-7.29-.68-16.75-1.42-24.1-.53-10.23,1.24-12.25,6.73-19.12,12.38-6.06,4.98-13.83,8.58-20.39,12.67-3.49,2.18-11.24,6.42-11.28,10.74,0,.93,2.86,7.95,3.49,9.37,1.2,2.74,2.81,5.33,3.95,8.12,21.17,12.97,42.14,21.43,67.4,16.43,19.57-3.87,31.3-14.84,44.44-28.79,4.82-5.12,9.61-9.5,12.23-16.43Z"/><path class="cls-1" d="M342.05,419.28c-1.68,15.13-20.69,23.48-20.69,23.48-6.61,10.3-6.59,27.44-6.37,33.25,12,13.1,25.02,23.58,38.77,28.37-.19,1.6-.31,3.21-.36,4.83-30.22-8.54-65.06-55.49-75.79-74.48-.32-.57-.68-1.19-1.02-1.78-2.31,1.87-15.02,12.3-16.58,16.55-1.71,4.67-7.86,18.83-28.42,18.91-20.56.08-40.39-11.49-40.39-11.49,0,0,.18-2.29,3.71-2.22,3.53.06,21.74-2.29,32.26-7.54,10.51-5.25,31.96-21.15,45.37-15.93,0,0-11.58-15.74-24.42-17.57-12.83-1.83-27.24,3.74-44.07-.9-16.82-4.65-20.23-23.73-29.05-31.72-8.81-8-10.73-9.4-10.73-9.4,0,0-2.37-4.16.87-4.74,3.25-.58,9.56,7.01,16.25,9.83,6.69,2.82,19.46,7.57,36.79,18.74,0,0,2.45,1.03,10.74,2.71,8.29,1.69,20.9,6.43,36.89,19.58,1.4,1.15,2.59,2.19,3.69,3.17-12.68-21.1-30.31-48.58-39.76-62.6-6.79-10.08-22.16-28.15-36.06-43.8-1.72.05-4.38-.61-8.54-3.37-9.06-6.02-18.34-7.13-24.65-7.62-6.31-.49-15.83,5.83-21.61,11.1-5.78,5.26-7.2,12.66-15.12,31.2-7.91,18.53-23.2,18.83-28.59,19.15-5.4.32-26.65-4.81-30.22-4.88-3.58-.06-2-3.57-2-3.57,18.12-7.43,37.54-12.29,43.75-13.46,6.22-1.16,19.54-12.87,25.92-24.7,6.38-11.83,19.58-15.54,19.58-15.54-17.55-2.18-31.33-12.32-31.33-12.32-12.52-2.28-30.84,7.33-42.28,13.01-11.45,5.68-28.12,2.29-37.89-2.67-9.78-4.96-35.43-12.23-38.76-13.39-3.33-1.15-1.44-3.74-1.44-3.74,7.3-1.17,12.64-7.1,42.3-14.9,29.66-7.8,65.21,8.08,69.62,9.89,4.42,1.81,7.26,4.33,7.26,4.33,15.56,14.82,23.44,14.66,41.05,17.94,17.61,3.28,20.53,5.56,24.19,7.64,2.09,1.19,4.16,1.9,5.57,2.31-8.81-9.85-16.67-18.34-20.83-22.62-11.09-11.39-30.36-41.95-30.36-41.95-12.06-1.25-35.47-34.51-39.99-44.65-4.52-10.14-9.16-27.02-15.89-41.98-6.73-14.96-22.67-18.35-27.21-20.05-4.54-1.69-3.59-5.14-3.59-5.14,36.96,1.18,60.1,5.91,68.45,42.24,8.35,36.33,22.7,78.17,55.63,111.78,32.92,33.62,52.94,59.1,75.91,94.46,12.88,19.83,33.73,60.48,59.54,89.87-.24-11.26,2.63-21.7,9.07-35.62,7.28-15.74,4.46-31.43,2.01-43.33-2.45-11.9-6.02-20.12-6.92-23.74-.9-3.62,1.78-3.42,1.78-3.42l8.54,5.05c19.04,10.88,17.04,32.26,15.37,47.39Z"/></svg>