<?xml version="1.0" encoding="UTF-8"?><svg id="Calque_1" xmlns="http://www.w3.org/2000/svg" viewBox="0 0 610.92 554.48"><defs><style>.cls-1{fill:#743a2b;}</style></defs><path class="cls-1" d="M580.85,7.68c2.22,2.12,6.42,7.6,7.25,10.47.34,1.17.17,2.62.49,3.83.13.49,1.81.99,2.42,1.41,10.5,7.29,21.13,28.86,19.78,41.66-2.56,24.34-22.6,37.72-44.62,43.23-14.97,3.75-28.91-1.22-38.84-12.55-3.98-4.54-7.09-10.34-11.86-14-10.39,3.27-19.07,11.98-25.01,20.89-16.89,25.34-11.59,61.46-13.51,90.6-.57,8.63-1.72,17.64-3.31,26.15,4.13-4.79,8.62-9.69,14.1-13.01,5.1-3.09,11.7-4.75,16.86-7.64,7.58-4.24,21.51-17.36,26.59-24.48,1.05-1.47,5.03-8.97,5.77-9.37,1.61-.88,3.22.2,3.25,1.98-2.13,7.69-3.09,17.48-6.26,24.71-2.69,6.13-10.55,16.43-15.95,20.18-12.17,8.45-27.71,5.84-40.48,12.01-7.71,3.73-6.28,9.82-8.4,17.07-4.82,16.47-11.27,32.54-18.25,48.04-8.96,19.91-25.39,48.31-27.01,69.86-.04.58-.55,1.81.43,1.67,9.94-20.45,24.88-41.42,48.11-47.35.21-2.78-.58-5.3-.6-8.19-.05-7.26,2.76-15.81,7.95-21.04,4.34-4.37,17.82-10.89,23.63-7.84.95.5,1.63,1.89,2.59,2.13,4.27,1.07,9.23,1.03,13.55,3.46,8.7,4.88,10.94,18.65,9.07,27.54-.55,2.62-3.24,10.8-4.63,12.88-6.2,9.26-10.99,9.58-20.23,12.21-10.02,2.85-21.4.47-26.6-9.41-1-1.9-2.14-7.04-3.07-8.15-.5-.6-.78-.49-1.46-.39-1.26.19-6.53,2.17-7.94,2.8-14.88,6.62-30.23,27.59-37.29,41.94-12.01,24.4-8.68,55.28-10.26,81.95-.17,2.88-.43,6.07-1.53,8.73-2.22-2.59-1.36-6.47-1.65-9.66-2.14-23.35-1.19-54.66,2.73-77.8.52-3.05,1.33-6.88,1.36-10.02.04-4.37-.21-9.83-.23-14.36-.06-13.39,3.99-21.8-5.12-34.21-11.73-15.98-35.97-16.9-44.99-32.94-5.44-9.68-4.48-19.61-12.7-28.05-3.21-3.29-10-6.26-9.58-11.07l1.7-1.22c10.84.94,22.01,2.17,31.89,6.99,27.6,13.46,43.44,53.71,42.98,83.05-.12,7.62-2.24,15.32-.81,22.88l8.28-23.02c7.54-17.69,20.71-36,22.09-55.64,1-14.2-13.61-35.3-23.29-45.16-13.65-13.92-47.09-35.47-52.4-53.31-1.02-3.42-1.6-6.4-2.65-9.81-6.86-.28-14.12-2.21-20.59-4.5-6-2.12-17.51-8.52-20.17-14.33-6.3-13.77-.83-33.21,8.17-44.65,5.3-6.75,12.81-13.93,22.09-12.64,4.16-9.78,14.07-10.21,22.99-6.81,14.28,5.44,25.22,25.81,23.93,40.7-1.22,14.12-8.64,32.11-22.32,38.14-3.13,1.38-6.72,1.71-9.79,3.3.73,9.78,5.93,17.43,12.56,24.22,6.63,6.8,15.67,14.37,23.04,20.51,3.27,2.73,6.88,5.2,10.26,7.79-3.67-12.48,1.69-25.53,3.72-37.97,1.36-8.36,2.05-15.5,1.55-24.02-.14-2.38-2.11-5.93.62-7.55,2.37-.66,4.51,4.59,5.48,6.46,3.59,6.91,10.04,20.98,10.08,28.45.07,11.14-10.34,21.75-10.95,34.01s5.26,16.81,10.97,26.35c4.11,6.87,9.2,18.12,9.68,26.11.14,2.34-.9,5.19-.48,7.58,4.88-10.9,9.14-22.88,12.08-34.48,7.21-28.41,6.37-54.88,7.81-83.73,1.05-21.08,1.19-37.04,14.45-54.63,6.21-8.24,15.62-16.01,25.39-19.53.61-.82-3.4-17.33-3.62-20.15-.94-11.7,9.23-35.27,17.79-43.37,5.33-5.04,9.1-4.84,14.48-7.82,1.04-.58,1.54-1.63,2.57-2.18,10.97-5.81,26.7-4.65,35.84,4.09ZM577.21,8.85c-5.91-5.6-13.32-5.46-21.02-5.25-.38,1.77,2.02.8,3.33,1.06,3.45.68,8.53,2.31,9.44,6.26.92,4.01-7.05,6.78-5.8,12.17.45,1.95,3.31,1.46,4.8,1.93,1.23.39,2.36,1.25,3.7,1.48,4.96.86,11.16-.31,12.1-6.09.54-3.36-4.12-9.27-6.54-11.56ZM563.58,12.3c.12-.95-.46-1.84-1.38-2.14-7.58-2.43-16.05-1.38-23.19,2.05-14.55,6.98-25.73,31.06-24.59,46.74.32,4.38,2.03,8.86,2.06,13.31,2.5-2.37,2.35-6.34,3.79-9.42,1.8-3.85,6.79-9.6,9.93-12.59,8.71-8.29,20.37-12.62,31.2-17.39.37-.53-3.11-4.5-3.52-5.75-2.12-6.46,1.16-10.81,5.71-14.82h0ZM586.67,95.64c14.61-8.95,24.32-27.4,19.47-44.54-1.56-5.53-8.07-15.48-11.94-19.88-1.34-1.52-5.64-6.26-7.54-6.08l-3.3,4.09c5.91,5.77,9.37,15.23,2.85,21.99.04.82,4.04,2.76,4.61,3.3.4.38,1.03.79,1.39,1.16,8.88,9.05,8.95,16.37,3.07,27.41l-8.61,12.55ZM573.8,42.44c2.35-4.69,4.22-10.88-3.01-11.46,1.61,3.46,2.8,7.41,1.95,11.23l1.06.23ZM572.36,45.67c.56,6.87,9.44,6.14,11.86.65,2-4.54-1.25-11.9-4.75-15.11.31,2.92.95,5.43-.4,8.27-.86,1.81-4.68,5.85-6.71,6.2ZM522.44,83.83c8.65,10.4,17.09,20.66,31.76,21.8,16.71,1.3,32.56-14.74,38.31-29.19,2.43-6.11,1.6-10.12-2.2-15.47-5.25-7.39-10.27-3.82-17.12-6.16-9.52-3.25-4.14-11.64-5.4-18.17-.77-4-2.03-1.63-3.54-.83-10.73,5.67-23.44,9.88-32.1,18.82-6.34,6.55-7.75,11.57-11.21,19.53-.55,1.27-2.25,3.06-2.44,4.31-.28,1.87,2.94,4.17,3.93,5.37ZM402.29,130.84c1.01-.2.79-1.18,1.04-1.82,7.34-19.16-.61-40.02-19.23-48.66-3.3-1.53-9.12-3.26-12.68-2.5-1.49.32-7.03,3.84-5.97,5.32,1.99.56,4.29,1.95,5.88,3.23,2.38,1.93,4.31,5.75,6.26,6.91,2,1.19,5.28,1.53,7.4,2.42,10.09,4.22,14.85,11.76,16.78,22.32.77,4.24,1.21,8.5.52,12.79ZM358.7,86.06c-6.39.54-12.5,5.98-16.47,10.8-6.92,8.41-9.67,18.71-9.49,29.52l2.49-4.02c5.71-6.81,12.94-7.35,20.48-10.86,2.6-1.21,5.95-2.85,7.89-4.83-8.19-.19-12.43-11.69-7.71-17.89.88-1.15,2.07-1.67,2.81-2.71ZM372.09,93.99c.97-1.51-4.98-6.23-6.68-6.48-2.84,1.19-6.52,2.17-8.1,5.14-2.3,4.32,2.05,12.44,7.26,12.13.93-5.02,1.9-9.46,7.51-10.79ZM370.34,98.97c-1.67,1.59-1.93,5.91-2.94,8.18-5.73,12.81-34.01,8.96-32.28,27.84.57,6.23,8.55,10.41,13.78,13.01,3.88,1.93,20.83,7.26,24.54,6.99,1.18-.08,1.74-1.01,2.59-1.15,4.14-.65,5.97-.24,10.14-2.22,15.5-7.33,16.56-32.61,7-45.05-3.1-4.04-10.61-7.35-15.53-8.42-2.3-.5-5.47-.93-7.3.8ZM480.81,321.68c2.34-8.98,7.75-15.79,17.61-16.38,1.79-.11,3.66.62,5.12.27,3.96-.93,2.52-4.79,2.89-7.51.57-4.25,4.65-8.57,1.54-13.33-.23-.36-5.98-5.52-6.37-5.69-4.38-1.95-14.23,3.01-17.77,6.05-8.77,7.55-9.94,26.36-4.2,35.97.35.59,0,.89,1.19.63ZM519.74,285.43c-.87-.81-.86-1.13-2.17-1.76-1.7-.82-4.65-1.63-6.56-1.68,2.09,1.36,1.54,7.19,2.15,8.09.53.78,2.78,1.48,3.47,2.37,1.37,1.76,2.09,5.82,1.59,7.99-.55,2.41-4.24,5.21-3.64,7.09.27.85,4.34,4.13,5.3,5.8.8,1.41,1.07,2.83,1.54,4.33,3.84-8.27,4.74-20.29.87-28.7-.95-2.06-.97-2.06-2.55-3.53ZM512.81,304.28c.86-.72,2.04-9.73-1.36-9.42-.68,3.39-2.05,7,1.36,9.42ZM507.61,306.04c-5.4,5.37-13.52,1.54-19.48,6.45-1.58,1.31-7.14,11.01-6.44,12.3,3.6,3.94,9.59,7.22,15.01,7.39,4.42.14,15.34-3.1,18.96-5.67,8.13-5.78-2.95-12.01-6.03-16.36-.79-1.11-1.39-2.85-2.01-4.11Z"/><path class="cls-1" d="M416.67,439.4c-.22-4.85-.33-3.5-.39-4.35-.33-1.42-.39-1.75-.39-1.75,2.48-31.85-49.27-77.16-69.24-90.56-.54-.36-.46-.35-1.02-.73.08-.09.05,0-.23-.27-.67-.43-1.41-1.1-2.05-1.57-.07-.04-.35-.38-.73-.6-4.14-1.96-7.46-4.27-10.9-7.22-19.8-14.14-44.7-32.98-57.57-43.17-9.53-7.54-26.37-24.26-40.9-39.31.18-1.71-.27-4.41-2.71-8.77-5.31-9.49-5.7-18.83-5.71-25.16,0-6.33,7.03-15.34,12.73-20.69,5.69-5.36,13.18-6.21,32.27-12.68,19.09-6.47,20.56-21.68,21.29-27.04.74-5.35-2.75-26.94-2.54-30.51.21-3.57-3.41-2.27-3.41-2.27-8.8,17.5-15.14,36.48-16.78,42.59-1.64,6.11-14.33,18.49-26.61,23.94-12.29,5.45-16.99,18.33-16.99,18.33-.83-17.66-9.87-32.19-9.87-32.19-1.31-12.66,9.68-30.18,16.22-41.16,6.54-10.98,4.44-27.86.25-37.98-4.19-10.13-9.48-36.26-10.37-39.67-.89-3.41-3.62-1.72-3.62-1.72-1.72,7.19-8.05,12.06-18.1,41.03-10.05,28.98,3.05,65.64,4.52,70.18,1.46,4.54,3.76,7.57,3.76,7.57,13.58,16.65,12.81,24.5,14.74,42.3,1.92,17.81,3.97,20.9,5.76,24.7,1.02,2.18,1.58,4.3,1.87,5.73-9.15-9.54-17.01-18.03-20.95-22.51-10.5-11.93-39.49-33.49-39.49-33.49-.32-12.12-31.69-38.02-41.45-43.3-9.76-5.28-26.24-11.2-40.64-19.06-14.4-7.86-16.56-24.01-17.9-28.67-1.34-4.66-4.85-3.97-4.85-3.97-1.66,36.94,1.28,60.38,36.86,71.5,35.58,11.12,76.19,28.64,107.18,64.05,30.99,35.41,54.86,57.32,88.35,82.94,18.78,14.37,57.71,38.28,85.04,66.27-11.2-1.1-21.83.95-36.21,6.31-16.26,6.05-31.68,2.03-43.35-1.33-11.67-3.35-19.6-7.55-23.14-8.72-3.54-1.17-3.54,1.51-3.54,1.51l4.38,8.9c9.39,19.82,30.85,19.47,46.07,18.96,15.22-.51,25-18.82,25-18.82,10.78-5.8,27.86-4.46,33.64-3.8,19.78,21.14,32.48,44.43,24.77,67.63-18.39,55.33-59.82,92.45-102.93,100.23-23.32,4.21-46.15-13.81-64.13-36.56-1.78-4.48-5.18-14.84-3.73-25.49,1.48-10.93,7.45-15.79,14.52-18.56,3.64-.34,9,.7,12.06,8.52,4.94,12.61,3.22,21.6,22.74,29.54,19.52,7.94,19.3-.7,37.1,15.36,0,0,3.43,1.04,3.43-1.56,0-2.59,1.49-17.28-16.09-22.46-17.58-5.18-20.8,4.5-35.38-2.92,0,0-3-2.94-6.87-14.68-2.82-8.59-6.57-12.54-10.88-13.72.12-.03.25-.07.37-.1,9.65-2.42,28.09,4.31,45.24,6.2,17.15,1.89,24.87-2.78,33.23-11.07,8.36-8.3,8.35-16.94,8.35-16.94-10.72,1.04-24.22,12.28-31.51,14.36-7.29,2.08-15.01-2.76-23.16-3.45-8.15-.69-22.94,7.27-22.94,7.27-38.16.02-36.36,28.59-34.48,38.88-11.36-16.52-20.06-34.03-24.62-46.69-12.15-33.73-4.64-83.32-17.21-126.49-12.57-43.17-67.83-56.64-67.83-56.64C76.42,243.15,0,233.83,0,233.83c22.07,29.84,78.79,30.1,91.59,34.29,12.81,4.19,54.82,1.59,78.06,80.91,11.98,40.89,19.58,70.54,28.62,95.81-4.89-7.44-13.17-17.14-23.3-27.96-9.53-10.18-18.59-15.77-26.42-19.38-4.52-6.07-9.65-16.33-12.79-25.74-3.82-11.46-.35-14.39,1.72-24.18,2.08-9.78.17-17.89-9.89-23.89-10.06-6.01-17.35-12.71-18.56-14.39-1.21-1.68-4.51-.98-4.34.42s10.42,27.53,18.4,36.33c7.98,8.8,5.73,6.43,8.68,22.92,2.2,12.28,8.82,22.23,12.06,26.51-3.8-1.51-7.22-2.64-10.14-3.73-9.71-3.63-32.26-23.19-37.3-28.77-5.03-5.59-27.75-14.94-40.59-19.97-12.84-5.03-18.22-17.88-19.78-20.67-1.56-2.79-3.64-.42-3.64-.42,6.77,21.1,6.08,27.81,33.31,45.96,27.23,18.16,80.92,33.41,84.51,35.01,3.59,1.6,16.47,8.98,30.94,24.7,9.41,10.21,13.3,17.16,14.89,20.78-8.82-7.17-20.46-9.13-31.19-10.52-16.7-2.17-25.04,3.83-46.92,8.38-21.88,4.55-34.07,1.29-39.03-2.53-4.97-3.82-5.19-1.27-5.19-1.27.68,4,2.48,3.63,24.82,14.35,22.34,10.72,47.83.34,59.33-2.75,11.5-3.1,31.36-3.47,36.1,1.44,3.73,3.86,9.92,8.13,12.41,9.79,6.8,15.37,14.93,29.65,26.09,44.8,32.84,44.6,57.38,44.83,74.22,44.36,16.84-.47,30.25-8.29,30.25-8.29,45.79-27.39,65.17-57.16,76.89-87.12,1.65-4.23,3.05-12.69,2.85-17.23,0-.02,0-2.33,0-2.36Z"/><path class="cls-1" d="M413.89,419.04s5.2,10.64,2.12,31.54l-.97-19.82-1.15-11.72Z"/></svg>