<?xml version="1.0" encoding="UTF-8"?><svg id="Calque_1" xmlns="http://www.w3.org/2000/svg" viewBox="0 0 648.06 559.21"><defs><style>.cls-1{fill:#e49881;}</style></defs><path class="cls-1" d="M632.55,39.59c-18.6-24.43-63.66-44.08-93.98-38.7-1.89.34-4.19,1.79-5.39,1.95-1.93.25-4.77-.18-7.03.13-36.51,5.1-58.32,33.32-60.56,69.48-.74,11.88,2.35,32.34,5.63,43.92,2.29,8.11,5.52,15.04,12.12,20.53-21.08,22.3-37.48,49.11-49.09,77.48-10.8,26.39-16.33,53.01-17.97,81.46l-.19,29.27-7.07-17.82c-8.14-16.6-19.17-30.98-29.49-46.14-.86-1.27-2.3-3.38-2.99-4.59-2.79-4.86.58-12.23,3.3-16.67,3.51-5.74,9.41-8.84,10.96-15.87.55-2.51.76-7.53.62-10.2-.28-5.51-2.41-11.59-3.03-17.14l-.66-.59c-.3-.27-.73-.34-1.1-.17l-.78.35c-2.56,18.25-15.6,34.17-14.26,53.08-.38.32-5.15-7.41-5.57-8.12-10.07-16.78-16.44-31.07-16.31-51.14.04-5.95.55-12.69,2.02-18.3,1.64-1.08,7.48,1.12,9.46,1.19,8.42.3,18.59-9.31,22.19-16.33,2.91-5.67.92-6.86.3-12.06-.65-5.43.43-7.52-2.83-12.82-3.82-6.2-6.53-5.43-12.62-7.72-4.31-1.62-3.25-3.29-8.98-1.38-3.08,1.03-12.56,6.91-14.86,9.21-4.47,4.48-7.65,11.15-6.62,17.55.26,1.62,4.81,14.18,5.62,15.44.78,1.2,1.75,4.1,5.84,6.22-5.77,18.37-3.65,40.66,5.14,57.78,14.28,27.81,36.26,50.83,51.08,79,2.86,5.44,9.67,21.44,10.88,27.11,1.61,7.53,1.48,24.09,1.83,32.62.6,14.28.53,45.43-.87,58.42-.33,3.06-.17,3.18-.56,8.05l-3.59,20.11-1.43,5.99c.86.08,1.72.19,2.58.31,1.93-8.18,3.68-16.36,5.25-24.36,1.01-5.12,1-8.42,2.94-13.73,12.1-33.05,32.21-48.94,60.62-66.84,6.12-3.85,10.02-1.89,16.21-.35,1.29.32,2.59-.06,3.67.21,2.1.53,7.27,4.22,10.01,5.43,13.07,5.76,21.81,2.75,32.49-5.87,1.62-1.3,6.43-5.36,7.63-6.67,1.22-1.33,1.31-2.94-.69-3.13-.73-.07-1.51.62-2.33.58-8.99-.52-17.39-4.07-27.27-2.88-7.83.94-9.27,3.82-15.02,7.61-6.03,3.99-10.97.87-17.38-.37-.41-.57,3.82-4.13,4.52-4.96,7.92-9.33,13.15-20.56,16.48-32.31l1.79-13.32c6.38,2.91,14.76-.47,19.77-4.78,11.42-9.8,12.76-27.95,9.42-41.81-2.07-8.62-10.91-13.95-18.45-8.11.13-1.14-.58-2.15-1.37-2.89-1.93-1.8-9.15-4.26-11.84-4.71-6.09-1.02-11.03,5.18-13.11,10.22-.66.39-2.37-3.39-5.73-2.28-4.69,1.54-6.73,11.62-7.21,15.92-.83,7.44,2.12,23.46,7.07,29.18,4.62,5.34,12.56,6.8,18.47,10.33-3.71,19.64-12.62,39.5-28.83,51.71-7.17,5.4-15.96,9.46-23.15,14.87-15.35,11.54-28.23,27.72-35.51,45.49-.33.81.16.96-1.17.57,2.33-37.19-2.73-74.32-1.33-111.51,1.96-52.02,17.68-95.11,47.25-137.64,5.82-8.37,13.04-15.52,18.86-23.81,2.48,3.05,3.55,6.31,5.98,9.42,16.28,20.83,44.1,22.32,68.53,20.99,15.74-.86,31.26-1.59,45.02-9.71,16.68-9.84,34.08-23.55,36.12-44.43.25-2.6-.21-5.92.27-8.11.87-4.01,3.99-8.64,4.91-12.95,3.69-17.32-4.03-42.02-14.58-55.87ZM378.04,133.83c.54.74,3.84,7.77,3.36,8.02l-9.12-5.45-1.11-7.39c1.34-.79,6.02,3.66,6.87,4.82ZM376.36,161.58c-2.31,2.87-10.85,9.21-14.46,8.47l-9.01-1.86c1.51-3.44.04-7.89,1.35-11.14,1.22-3.03,5.25-6.31,6.87-9.19.99-1.76,2.67-8.01,4.17-8.54,13.64,1.15,20.71,10.3,11.08,22.26ZM343.58,157.62c-4.82-13.67-2.92-21.49,9.9-28.78,1.81-1.03,6.87-3.81,8.7-3.74,3.85.13,6.14,7.98,5.34,11.21-7.14-1.66-7.02,6.13-9.4,10.41-1.64,2.94-5.66,6.06-6.86,9.19-1.27,3.3-.61,8.63-1.05,12.27-2.02.9-6-8.78-6.63-10.55ZM523.4,254.51c1.23-2.75,1.78-8.88,5.9-8.61,4.72.3,5.92,2.08,7.9,5.75,6.43,11.89,2.54,38.46-11.69,43.96-3.86,1.49-8.92,1.33-13.02,1.11-3.13-11.74-10.02-23.18-.05-33.83,3.34-3.57,8.67-3.29,10.96-8.38ZM507.04,256.38c2.72-.83,6.34-1.45,8.39.92-1.71.27-2.86,1.94-3.89,2.52-2.03,1.15-3.84-1.83-4.5-3.44ZM508.53,240.68c1.23.04,7.53,2.3,8.79,2.91.66.32,4.65,3.74,4.8,4.18.62,1.85-1.96,8.86-4.9,8.86-.95.03-2.04-3.05-3.14-3.79-3.35-2.25-6.59-.74-9.51,1.24l-5.64-5.09c2.21-2.55,5.97-8.45,9.61-8.32ZM494.42,284.92c-2.21-3.56-5.98-17.85-5.78-22.01.12-2.36,1.96-13.65,4.63-13.61l15.34,12.27c.38.89-3.74,6.76-4.33,8.51-1.61,4.79-.6,12.24,1.17,16.93,1.33,3.51,4.95,6.24,4.95,10.31-5.04-4.01-12.51-6.8-15.98-12.4ZM539.3,3.7c3.76.74,7.87.04,11.54.29,17.34,1.15,37.44,7.8,52.52,16.54,12.37,7.17,23.94,17.65,30.95,30.15-7.5-1.33-14.22,12.38-21.15,10.5-4.07-1.1-14.66-14.96-19.65-18.59-13.89-10.11-19.92-4.21-34.23-6.82-8.62-1.57-18.66-15.62-25.54-21.51-.72-.62-3.12-1.32-2.54-2.25,1.94-3.1,8.91-4.15,8.11-8.31ZM606.21,76.05c-.08-1.36,1.8-5.6,1.91-7.92.07-1.36-2.03-6.91-1.72-7.1,3.66,2.05,6.1,4.12,10.6,3.26-1.45,6.44-1.8,13.09.86,19.23l-7.2,6.3c2.28-4.36-4.29-11.01-4.45-13.78ZM502.16,101.8c-2.13-12.47,1.45-23.71,9.86-33.03,5.29-5.86,10.03-6.71,10.7-16.1.15-2.1-.83-4.58-.68-6.67.47-6.49,2.52-14.69,3.81-21.2.63-3.19.02-6.34,2.47-9.39,10.87,5.9,16.31,18.84,28.89,22.59,10.47,3.12,21.45-1.54,30.95,4.79.57.94-3.35,2.19-4.03,2.33-2.59.53-5.2,0-7.78.35-3.65.5-8.04,3.46-10.86,5.81-1.27,1.06-5.15,5.65-5.52,5.82-.64.28-1.96.01-2.94.27-5.1,1.37-8.25,3.81-12.23,7.12-12.29,10.24-21.5,23.31-22.04,39.87-6.82,3.82-13.09,8.56-19.31,13.29,2.86-5.67-.35-10.34-1.29-15.84ZM602.52,63.8c1.37,2.96.64,5.73-.11,8.75-1.6-1.8-4.95-3.02-5.42-5.55-.84-4.55,3.65-7.26,5.54-3.2ZM600.7,57.44c1.08-.96,2.82-.63,3.03.89l-3.03-.89ZM589.27,54.27c-1.17-.07-2.37-.65-3.58-.7-4.11-.18-5.97,1.98-6.9,5.79-3.12,12.81,18.39,14.6,13.52,28.29l-1.25-4.29c-3.1-4.79-6.69-7.53-12.56-8.24-2.56-.31-4.35.79-6.63.17-2.86-5.28,2.9-9.68.26-15.08-1.32-2.69-4.69-2.94-7.27-3.45,3.79-2.52,7.15-6.43,11.75-7.5,2.69-.63,5.25-.27,8.13-1.18,2.3-.72,3.52-2.04,5.51-3.2,1.59-.06,8.84,8.13,9.9,10.03-3.63-.14-7.25-.4-10.88-.63ZM529.85,91.14c2.52-7.68,19.25-27.48,26.96-30.06,2.25-.75,12.1-1.85,12.9.83.38,5.57-4.01,9.01-1.69,14.8,2.67,6.66,15.89,7.51,8.4,16.21-.78.91-4.91,4.68-5.83,4.67-3.36-2.49-5.76-5.72-10.13-6.66-5.29-1.14-19.44,3.58-24.56,6.02-2.62,1.25-5.46,3.59-8.23,4.75.97-3.31,1.12-7.34,2.18-10.56ZM581.1,83.23l-4.2-4.12c3.41.07,7.31,2.06,9.51,4.64,3.81,4.47.97,15.22,8.4,17.84-2.37,4.81-9.89,10.15-15.29,7.16-1.42-.79-7.21-6.94-6.93-8.26,5.72-3.93,13.43-9.67,8.52-17.25ZM592.66,94.3c-.09-2.34.93-1.33,1.97-2.1,4.04-2.98,4.18-10.95,1.94-15.14-2.57-4.79-12.85-10.41-13.9-14-2.98-10.21,10.02-3.85,15.19-4.87-3.89,3.21-5.4,5.75-4.08,10.91,1.37,5.35,6.87,5.73,9.8,9.58,1.75,2.3,3.85,7.98,3.79,10.86-.11,5.29-.91,3.37-3.62,5.01-1.22.73-6.35,5.85-6.79,5.8-1.71-1.22-4.21-3.82-4.3-6.05ZM485.26,133.03c-1.11-1.48-2.11-1.41-2.58-1.95-5.01-5.85-8.38-15.87-9.65-23.47-3.69-22.07-6.55-45.47,4.53-66.18,5.91-11.05,13.91-20.3,24.82-26.55,8.52-4.88,19.6-8.35,29.38-8.44-.69,1.65-3.52,1.24-5.08,3.81-.8,1.32-2.23,2.62-2.64,3.75-.66,1.83-2.18,3.8-2.67,6.13-1.48,7.13-3.33,17.72-4.03,24.94-.43,4.4,1.5,7.84-.58,12.64-1.61,3.72-9.16,7.91-11.9,11.69-7.22,9.95-10.78,20.4-7.99,32.75.63,2.77,3.03,7.4,3.17,9.93.19,3.34-1.64,5.92-1.17,8.92l-13.61,12.02ZM551.98,166.04c-25.24,2.35-46.47-2.2-60.73-24.8-.95-1.51-2.66-4.09-2.05-5.61,1.07-2.68,8.87-9.04,11.46-11.06,10.36-8.03,22.34-13.45,33.85-19.58,5.91-3.14,19.26-12.7,26.16-9.67,3.59,1.57,7.32,8.42,9.73,11.41,8.02,9.95,16.61,9.22,25.44.83,2.34-2.23,8.69-10.81,11.9-10.23,3.19.58,4.98,5.94,4.89,8.77-.26,7.36-3.68,18.67-7.56,24.96-12.01,19.49-30.05,32.83-53.1,34.97ZM605.47,156.68c-9.36,5.47-19.74,9.65-30.65,10.58,2.86-2.07,6.12-3.53,8.96-5.66,18.07-13.54,31.44-27.54,33.92-51.26.5-4.73-1.66-11.13-5.02-14.54,2.68-3.87,11.97-14.61,16.67-14.44,8.95.32,3.39,4.65,2.46,9.88-1.08,6.09,1.16,10.04,3.52,15.29,1.33,2.96,2.94,3.64,2.8,7.72-.62,18.31-17.92,33.81-32.67,42.42ZM639.96,103.92c-.81.6-3.66-5.83-3.86-6.58-2.25-8.39,8.12-18.44-7.7-18.76-2.77-.06-5.6,1.47-7.74,3.1-3.27-4.24-2.85-14.2-.22-18.58.9-1.5,9.47-8.77,11.14-9.45,1.16-.48,2.8-1.07,3.97-.48,2.59,1.3,6.68,20.7,7.04,24.34.87,8.78-.75,17.83-2.63,26.43Z"/><path class="cls-1" d="M416.67,444.14c-.22-4.85-.33-3.5-.39-4.35-.33-1.42-.39-1.75-.39-1.75,2.48-31.85-49.27-77.16-69.24-90.56-.54-.36-.46-.35-1.02-.73.08-.09.05,0-.23-.27-.67-.43-1.41-1.1-2.05-1.57-.07-.04-.35-.38-.73-.6-4.14-1.96-7.46-4.27-10.9-7.22-19.8-14.14-44.7-32.98-57.57-43.17-9.53-7.54-26.37-24.26-40.9-39.31.18-1.71-.27-4.41-2.71-8.77-5.31-9.49-5.7-18.83-5.71-25.16,0-6.33,7.03-15.34,12.73-20.69,5.69-5.36,13.18-6.21,32.27-12.68,19.09-6.47,20.56-21.68,21.29-27.04.74-5.35-2.75-26.94-2.54-30.51.21-3.57-3.41-2.27-3.41-2.27-8.8,17.5-15.14,36.48-16.78,42.59-1.64,6.11-14.33,18.49-26.61,23.94-12.29,5.45-16.99,18.33-16.99,18.33-.83-17.66-9.87-32.19-9.87-32.19-1.31-12.66,9.68-30.18,16.22-41.16,6.54-10.98,4.44-27.86.25-37.98-4.19-10.13-9.48-36.26-10.37-39.67-.89-3.41-3.62-1.72-3.62-1.72-1.72,7.19-8.05,12.06-18.1,41.03-10.05,28.98,3.05,65.64,4.52,70.18,1.46,4.54,3.76,7.57,3.76,7.57,13.58,16.65,12.81,24.5,14.74,42.3,1.92,17.81,3.97,20.9,5.76,24.7,1.02,2.18,1.58,4.3,1.87,5.73-9.15-9.54-17.01-18.03-20.95-22.51-10.5-11.93-39.49-33.49-39.49-33.49-.32-12.12-31.69-38.02-41.45-43.3-9.76-5.28-26.24-11.2-40.64-19.06-14.4-7.86-16.56-24.01-17.9-28.67-1.34-4.66-4.85-3.97-4.85-3.97-1.66,36.94,1.28,60.38,36.86,71.5,35.58,11.12,76.19,28.64,107.18,64.05,30.99,35.41,54.86,57.32,88.35,82.94,18.78,14.37,57.71,38.28,85.04,66.27-11.2-1.1-21.83.95-36.21,6.31-16.26,6.05-31.68,2.03-43.35-1.33-11.67-3.35-19.6-7.55-23.14-8.72-3.54-1.17-3.54,1.51-3.54,1.51l4.38,8.9c9.39,19.82,30.85,19.47,46.07,18.96,15.22-.51,25-18.82,25-18.82,10.78-5.8,27.86-4.46,33.64-3.8,19.78,21.14,32.48,44.43,24.77,67.63-18.39,55.33-59.82,92.45-102.93,100.23-23.32,4.21-46.15-13.81-64.13-36.56-1.78-4.48-5.18-14.84-3.73-25.49,1.48-10.93,7.45-15.79,14.52-18.56,3.64-.34,9,.7,12.06,8.52,4.94,12.61,3.22,21.6,22.74,29.54,19.52,7.94,19.3-.7,37.1,15.36,0,0,3.43,1.04,3.43-1.56,0-2.59,1.49-17.28-16.09-22.46-17.58-5.18-20.8,4.5-35.38-2.92,0,0-3-2.94-6.87-14.68-2.82-8.59-6.57-12.54-10.88-13.72.12-.03.25-.07.37-.1,9.65-2.42,28.09,4.31,45.24,6.2,17.15,1.89,24.87-2.78,33.23-11.07,8.36-8.3,8.35-16.94,8.35-16.94-10.72,1.04-24.22,12.28-31.51,14.36-7.29,2.08-15.01-2.76-23.16-3.45-8.15-.69-22.94,7.27-22.94,7.27-38.16.02-36.36,28.59-34.48,38.88-11.36-16.52-20.06-34.03-24.62-46.69-12.15-33.73-4.64-83.32-17.21-126.49-12.57-43.17-67.83-56.64-67.83-56.64C76.42,247.88,0,238.56,0,238.56c22.07,29.84,78.79,30.1,91.59,34.29,12.81,4.19,54.82,1.59,78.06,80.91,11.98,40.89,19.58,70.54,28.62,95.81-4.89-7.44-13.17-17.14-23.3-27.96-9.53-10.18-18.59-15.77-26.42-19.38-4.52-6.07-9.65-16.33-12.79-25.74-3.82-11.46-.35-14.39,1.72-24.18,2.08-9.78.17-17.89-9.89-23.89-10.06-6.01-17.35-12.71-18.56-14.39-1.21-1.68-4.51-.98-4.34.42s10.42,27.53,18.4,36.33c7.98,8.8,5.73,6.43,8.68,22.92,2.2,12.28,8.82,22.23,12.06,26.51-3.8-1.51-7.22-2.64-10.14-3.73-9.71-3.63-32.26-23.19-37.3-28.77-5.03-5.59-27.75-14.94-40.59-19.97-12.84-5.03-18.22-17.88-19.78-20.67-1.56-2.79-3.64-.42-3.64-.42,6.77,21.1,6.08,27.81,33.31,45.96,27.23,18.16,80.92,33.41,84.51,35.01,3.59,1.6,16.47,8.98,30.94,24.7,9.41,10.21,13.3,17.16,14.89,20.78-8.82-7.17-20.46-9.13-31.19-10.52-16.7-2.17-25.04,3.83-46.92,8.38-21.88,4.55-34.07,1.29-39.03-2.53-4.97-3.82-5.19-1.27-5.19-1.27.68,4,2.48,3.63,24.82,14.35,22.34,10.72,47.83.34,59.33-2.75,11.5-3.1,31.36-3.47,36.1,1.44,3.73,3.86,9.92,8.13,12.41,9.79,6.8,15.37,14.93,29.65,26.09,44.8,32.84,44.6,57.38,44.83,74.22,44.36,16.84-.47,30.25-8.29,30.25-8.29,45.79-27.39,65.17-57.16,76.89-87.12,1.65-4.23,3.05-12.69,2.85-17.23,0-.02,0-2.33,0-2.36Z"/><path class="cls-1" d="M413.89,423.77s5.2,10.64,2.12,31.54l-.97-19.82-1.15-11.72Z"/></svg>