<?xml version="1.0" encoding="UTF-8"?><svg id="Calque_1" xmlns="http://www.w3.org/2000/svg" viewBox="0 0 495.2 709.7"><defs><style>.cls-1{fill:#743a2b;}</style></defs><path class="cls-1" d="M201.03,467.79l28.96,47.55c8.41,11.23,16.31,22.79,25.87,33.15,4.14,4.48,9.18,8.85,13.75,12.92,3.29-13.75,5.83-28.48,3.02-42.61-3.52-17.72-8.25-26.03-2.23-44.56,4.11-12.65,15.7-28.96,25.67-37.76,1.34-1.18,3.61-2.53,4.15-.14.45,2.01-1.56,3.53-2.15,5.1-1.62,4.29-4.68,16.52-4.42,20.82.68,11.01,9.98,20.64,10.67,32.06.63,10.5-12.76,25.57-17.62,35.26-2.7,5.38-7.89,15.63-9.35,21.05-.8,2.97-.72,8.48-1.76,10.91-.47,1.1-.59,4.54.06,5.86,9.34,8.35,17.63,13.49,28.39,19.9,25.61,15.25,55.23,22.05,84.5,26.74,9.28,1.48,21.02,3.56,30.26,3.66,9.2.1,18.32.11,26.56.59,1.87.11,4.01-.63,4.27,1.61-.76,1.74-14.25.65-16.85.61-27.19-.44-56.28-4.61-83.21-11.26-13.23-3.27-24.93-7.99-38.89-8.63-21.38-.97-40.21,14.06-62.2,15.25-20.48,1.1-36.13-2.8-54.06-12.01-1.91-.98-5.98-4.15-7.68-4.67-2.04-.62-5.89,1-8.86.7-4.23-.43-15.55-3.48-19.76-4.97-6.91-2.44-13.87-7.31-20.42-10.77-2.67-1.41-14.08-4.71-7.84-8.02l26.9.9c11.73,1.51,18.1,9.49,27.07,15.92,1.28.92,3.73,2.99,4.94,3.51,3.66,1.57,21.87-1.38,26.38-2.54,17.02-4.35,33.72-13.7,51.54-13.26,9.05.22,18.66,3.77,27.29,6.33.4-.06.13-.59-.04-.81-.84-1.08-10.76-6.57-13.03-8.18-33.43-23.74-60.05-61.97-78.6-98.14-1.77-3.45-3.71-5.3-5.43-8.85-2.54,4.47-3.99,5.78-7.44,9.7-13.49,15.33-33.15,27.45-54.31,25.52-7.7-.7-8.69-3.29-14.5-5.8-2.69-1.16-7.45-1.45-10.36-2.33-26.77-8.12-40.74-20.61-54.29-45.13-7.97-14.42-16.49-31.74-11.18-48.39,3.41-10.69,12.61-10.63,16.94-18.16,1.01-1.75,1.85-5.84,3.2-6.75,1.02-.68,2.02.26,2.19.19.44-.16,2.48-7.53,3.1-8.78,1.48-3.01,4.29-6.58,6.24-9.42,3.35-4.88,7.05-9.75,10.76-14.32,3.47-4.28,6.65-1.99,10.46-3.84,2.96-1.44,7.1-6.8,10.43-8.38,1.87-.89,6.29-.87,7.16-1.28,2.21-1.05,5.27-5.76,7.63-7.15,3.49-2.06,16.45-4.86,20.82-5.1,1.95-.11,6.13,1.2,6.85,1.06,1.1-.22,1.85-2.42,5.67-2.63,11.41-.62,32.43,11.56,42.13,17.74,3.62,2.3,6.08,5.01,9.26,7.51,8.92,7.03,22.55,16.41,25.85,27.71,2.58,8.82-.89,14.01-2.46,22.1-4.34,22.27,6.11,37.05-11.33,57.22-5.34,6.18-11.97,10.83-18.64,15.47ZM158.65,346.26c-2.96-6.1-5.71-12.23-7.69-18.72-.58-1-2.02-1.04-3.11-1.24-4.99-.88-17.4.48-21.97,2.63-2.11.99-9.86,8.21-10.02,10.2-.04.55-.12.84.5,1.04,6.34,2.59,11.57,7.04,17.12,10.93,7.98-4.64,16.3-4.92,25.17-4.84ZM112.05,337.6c-2.65-1.05-10.27,7.23-12.85,8.32-4.9,2.07-9.71-2.1-11.35,4.65-1.52,6.25,5.51,13.95,7.08,20.68,2.32,9.91-6.76,20.93,3.81,28.78l-.67-9.45c.22-2.6.1-6.03,2.02-8.05,1.2-1.26,3.06-1.87,4.34-2.94,3.71-3.13,3.64-6.95,5.34-11.04,1.73-4.18,5.92-13.36,11.24-9.12l.66-.16c2.51-2.56,5.4-4.64,8.67-6.14-.27-2.01-1.94-1.42-3.05-2.08-3.13-1.86-5.84-4.58-9.21-6.44-3.4-1.87-7.16-1.27-6.02-7ZM201.29,461.05c5.79-4.33,11.35-7.77,16.09-13.35,12.56-14.78,5.87-27.8,6.69-44.64.37-7.56,3.69-15.28,3.7-22.77.02-8.38-3.96-11.97-9.56-17.49-13.43-13.25-34.91-28.66-52.32-35.9-1.92-.8-10.24-3.74-11.81-3.64-1.01.07-.6.42-.46,1.01.32,1.32,2.73,6.07,3.5,7.66,3.94,8.08,8.32,18.36,15.32,23.98,3.66,2.93,7.4,4.1,10.86,7.57,5.11,5.12,7.74,11.31,5.57,18.51-2.08,6.93-9.02,11.32-11.98,17.64-.25.53-.52,4.18-.39,4.91,1.43,7.9,12.83,13.78,17.82,19.8,5.96,7.19,9.14,19.28,8.29,28.55-.1,1.12-1.86,7.93-1.32,8.16ZM96.39,418.93l7.22-10.43c-4.61-5.04-11.49-7.79-13.57-15.01-2.1-7.29,2.39-13.92,1.64-20.44-.8-6.93-5.04-11.31-7.15-17.65-.47-.3-2.99,4.99-3.18,5.7-1.84,6.74,3.97,10.04,5.51,15.46,1.3,4.56.04,10.14.1,14.74.12,10.31,2.78,19.62,9.43,27.63ZM94.07,425.23c.91-3.2.77-3.4-.6-6.62-3.58-8.45-8.76-12.37-9.99-22.77-.68-5.7,1.44-12.96-.15-18.41-1.37-4.69-6.48-8.07-6.26-13.57-3.86,4.84-9.84,16.4-8.27,22.55,1.21,4.73,3.77,6.48,5.61,10.21,3.61,7.33,3.51,15.23,6.94,22.68,2.3,4.98,5.13,9.26,10.63,10.84.37-.05,1.89-4.25,2.08-4.92ZM160.43,349.57c-4.37,1.41-8.87.54-13.35,1.18-7.24,1.04-14.23,3.95-20.04,8.42-.96.74-3.91,3.21-3.27,4.5,1.13,2.29,8.61,5.53,10.82,7.69,3.1,3.04,3.16,6.34,7.46,8.8.86.49,6,2.44,6.66,2.39,2.34-.17,6.11-2.55,8.75-3.17,8.89-2.11,11.26,2.49,17.07,7.09.44.35,1.31.19,1.86.6.91.67,1,2.24,2.1,1.68,1.65-.84,5.32-5.98,5.93-7.94,4.22-13.43-12.13-17.43-19.07-24.54-1.95-1.99-3.92-4.05-4.93-6.71ZM120.36,360.87c-.99.16-1.78.02-2.73.56-5.27,3.04-2.22,16.29-10.36,21.05-4.52,2.64-6.87,1.05-6.51,7.67.32,5.88,3.33,10.18,5.71,15.38l4.45-3.92c-.71-2.36-2.1-3.88-2.65-6.47-.75-3.55.62-9.84,4.3-11.45,1.37-.6,3.1.19,4.4-.16,4.61-1.24,4.89-10.33,9.46-12.62-2.41-3.46-6.96-4.76-6.05-10.03ZM67.9,394.36l-2.46-10.87c-1.44,2.27-2.11,4.95-4.11,6.91-7.47,7.33-13.11,4.55-15.71,17.8-1.88,9.59,1.72,15.4,4.34,24.4l6.29.52c-1.62-9.37-4.51-20.2-.18-29.2,2.34-4.86,5.99-9.34,11.83-9.56ZM120.25,385.65l9.19-.94c.35-.38,1.9-9.43,1.88-10.2-.02-1.16-1.12-2.18-2.22-1.79-2.48,1.9-3.35,5.01-4.73,7.67l-4.13,5.27ZM71.55,399.85c-4.65.5-7.11-1.49-10.64,2.57-6.16,7.09-2.28,16.96-1.49,24.98.16,1.67-.4,7.07-.15,7.66.19.45,5.93,5.46,7.1,6.83,5.19,6.07,9.26,13.52,15.04,19.14,3.81,3.7,8.33,5.96,12.51,8.9l.88-.6c-2.08-1.89-3.05-4.78-4.6-7-4.32-6.2-10.02-11.49-13.37-18.41-2.85-5.88-4.81-18.65,4.16-19.68-1.13-3.14-2.93-5.68-3.98-8.91-1.71-5.26-1.29-11.1-5.45-15.48ZM142.94,384.09c-4.74-2.41-7.04-3.21-9.9-8.39.22,2.68.91,8.82-1.21,10.86-3.52,3.38-12.35-1.14-12.01,6.84,7.67-3.88,15.97-5.84,24.1-8.34.72-1.3-.65-.81-.98-.97ZM119.08,385.54c-1.87,1.36-4.16.33-6.02,1.12-4.89,2.08-1.41,9.05-.05,12.43,4.27-2.73,2.6-2.72,2.3-6.09-.07-.75.13-3.28.38-3.9.79-1.93,3.1-1.63,3.39-3.56ZM176.06,391.92c-4.99-1.96-7.55-7.5-12.95-8.8-6.43-1.54-11.44,3.11-16.72,5.49-10.01,4.5-17.09,1.54-27.19,9.8-9.89,8.09-17.81,17.03-22.35,29.08-.25.66-1.52,4.33-1.07,4.6,7.07,1.29,10.61-5.91,15.83-9.8,14.22-10.58,21.46-6.21,37.05-5.07,7.17.52,9.77-1.66,16.52,3.11,3.27,2.31,7.44,7.27,10.56,9.14,1.25.75,9.25,1.32,12.05,2.19,2.49.77,4.88,2.3,7.39,3.04-3.84-13.37-30.15-21.14-23.04-36.99.82-1.82,2.52-4.32,3.92-5.78ZM55.3,437.04c-1.3-.53-3.2-.33-4.52-1.28-.45.37.23,1.27.45,1.72,11.27,22.71,26.83,46.62,52.33,54.07l7.13,1.79c-6.28-4.49-15.28-4.83-19.19-12.13-2.52-4.7-1.7-6.85,2.37-9.86-6.86-2.52-12.2-6.48-17.06-11.91-6.53-7.29-12.07-18.53-21.52-22.41ZM91.85,434.53c-2.65-1.14-10.01-7.27-11.73-7.08s-2.15,3.98-2.14,5.43c.11,9.67,11.81,20.96,17.48,28.57,2.14,2.87,3.97,6.63,6.39,9.37,6.69-.05,13.4,2.37,20.01,1.27,5.94-4.18,6.21-14.52,11.45-18.89,6.07-5.07,12.46-1.41,18.79-5.02,7.31-4.18,9.42-15.52,18.45-17.59l-11.97-9.17c-2.91-1.24-6.01-.07-8.86-.21-15.1-.78-24.67-5.42-37.79,5.71-7.1,6.02-9.19,12.29-20.08,7.61ZM198.26,441.49c-.16-.12-1.14.06-1.71-.26-5.34-3.01-9.32-5.69-15.63-6.95-19.79-3.97-16.36,15.45-32.17,19.1-6.82,1.58-11.94-2.13-16.13,6.01-2.67,5.18-4.38,15.24-11.16,16.79-6.87,1.57-18.12-2.01-25.32-.78-6.06,1.03-.22,7.33,2.99,8.8,5.27,2.41,11.23,3.28,17.04,6.49,6.76,3.73,10.72,10,18.91,10.5,18.75,1.16,42.17-13.1,54.07-27.06,1.05-1.24,8.42-10.71,8.72-11.36.87-1.92,1.97-11.73,1.81-14.05-.08-1.1-1.02-6.93-1.41-7.23Z"/><path class="cls-1" d="M380.78,642.32c-4.85,21.22-13.14,40.21-23.82,56.31-.57,3.69-1.32,7.39-2.2,11.06,23.88-28.76,31.38-57.27,36.87-85.23,5.38-27.41,3.41-55.1,1.75-69.23,1.65-1.98,3.64-11.76,7.57-20.2,11.67-6.97,19.19-3.82,28.28-.38,9.39,3.55,18.61,16.79,28.14,19.88,9.53,3.09,15.98-2.74,22.62-6.51,6.65-3.77,15.21-1.18,15.21-1.18-4.51-2.69-7.44-15.79-21.19-9.1-13.75,6.69-21.79,1.81-28.84-2.41-7.06-4.22-15.69-3.83-15.69-3.83-12.56-5.95-21.35-3.78-25.52-1.93,1.99-2.97,4.35-5.38,7.2-6.6,11.6-4.96,23.55-12.5,23.55-12.5,20.67-11.38,27.2-19.34,31.9-26.45,3.68-5.58,9.59-32.69,11.03-44.93,1.44-12.24,9.35-24.39,11.4-25.6,2.15-1.27,2.77-6.32-2.21-3.42-4.97,2.9-17.31,14.99-25.84,31.54-8.53,16.55-17.7,45.87-23.66,57.94-5.96,12.07-17.91,16.56-29.35,22.5-8.89,4.62-13.81,19.61-15.56,26.07-.25-1.62-.41-2.51-.41-2.51-2.04-25.53-7.55-47.89-13.12-65.33-.07-35.49,3.04-49.58,8.95-61.53,5.96-12.07,21.04-26.84,21.04-26.84,36.2-29.22,57.06-61.79,63.97-75.76,6.9-13.98,1.33-71.51,1.01-74.8-.32-3.3-5.24-3.73-4.89-.13.35,3.6-.84,14.6-3.93,33.05-3.09,18.45-14.18,47.35-28,63.51-13.82,16.16-45.28,63.37-45.28,63.37,0,0-2-20.67,5.89-43.82,7.89-23.15-6.97-71.91-8.58-76.9-1.61-4.99-6.23-17.85-9.1-20.29-2.86-2.44-5.83,1.78-5.83,1.78,1.04,6.86-8.2,23.78-20.68,42.23-12.47,18.45,14.41,51.84,24.87,66.85,10.46,15.02,8.7,39.38,8.7,39.38-11.33,23.51-11.61,50.4-11.22,60.74-4.28-12.15-8.21-21.13-10.16-25.99-4.91-12.23-51.16-90.01-51.16-90.01-11.05-25.27-5.63-55.14-4.76-61,.87-5.86,9.56-25.65,15.79-35.27,6.24-9.62-.27-20.54-.27-20.54,0,0-10.57-23.24-12.98-27.39-2.41-4.16-5.88-1.51-5.88-1.51,0,0,1.34,1.95,3.69,14.43,2.36,12.48,1.03,34.33-4.14,66.72-5.18,32.39,1.14,50.26,1.14,50.26,0,0-56.67-78.85-61.39-106.81-4.72-27.96-8.83-46.75,16.78-66.56,25.61-19.81,38.2-17.1,48.34-30.8,10.14-13.69,6.15-54.9,3.13-56.45-3.02-1.56-5.5,2.38-5.5,2.38-1.32,10.06-6.51,18.65-18.52,39.69-12.01,21.04-34.95,26.96-47.58,59.38-12.63,32.42,2.67,66.06,2.67,66.06-26.35-38.11-36.08-88.24-36.15-94.93-.08-6.69,5.72-20.89,15.1-30.58,9.38-9.69,14.23-24.72,21.27-37.88,7.04-13.16,4.82-39.06,4.82-39.06,0,0-1.51-3.78,13.87-19.6C279.31,9.84,297.87.19,297.87.19c-3.24-.84-23.73.68-40.12,14.98-16.39,14.3-13.57,31.59-13.57,31.59,0,0-11.9,10.4-27.93,46.15-16.03,35.75-11.83,70.24-11.83,70.24-9.78-21-7.9-69.71-16.31-94.31-8.41-24.6-35-35.66-46.12-38.05-11.13-2.39-19.18-11.54-20.9-17.39-1.71-5.84-4.2-4.91-4.2-4.91-3.36.79-11.44,9.2-3.91,27.65,7.52,18.45,21.03,24.65,36.32,34.49,15.29,9.84,32.04,17,38.01,46,5.96,29,12.98,48.19,16.31,52.95,3.33,4.76,9.75,30.14,9.75,30.14-13.13-15.5-30.22-23.41-43.37-28.09-7.97-4.86-23.38-15.07-26.97-23.47-4.9-11.45-5.82-17.46-21.11-29.57-15.28-12.11-51.06-29.72-52.35-28.76-1.28.96-4.4.7-.49,5.59,3.92,4.89,7.81,16.72,13.38,20.89,5.57,4.18,10.03,7.63,34.21,19.15,22.14,10.55,26.73,21.41,39.26,31.6-.98-.32-1.89-.62-2.65-.91-9.98-3.75-63.43-7.66-107.37,26.23C1.97,226.26-.88,261.56.16,276.61c1.04,15.05,4.71,18.4,4.71,18.4-.93-5.3,11.94-12.61,11.94-12.61,18.43-18.96,18.08-33.41,19.51-53.08,1.44-19.67,9.02-19.06,14.96-31.09,5.4-10.94,19.2-17.95,50.55-25.99-2.84,3.66-7.42,11.52-4.94,21.96,3.48,14.64-11.66,28.87-20.04,34.67-8.39,5.8-21.13,27.01-21.07,31.16,0,0,.53,1.89,4.75-.74,4.22-2.63,23.66-.91,33.28-8.22,9.62-7.31,12.98-22.34,10.87-44.04,0,0,6.81,9.88,17.73,16.03,10.92,6.15,13.94,8.91,15.83,10.67,1.89,1.76,11.18,5.3,12.17-2.29.98-7.58-7.5-13.42-12.12-18.52-4.62-5.1-9.25-10.2-26.28-15.48-15.89-4.93-9.3-19.04-4.16-26.72,1.26-.31,2.47-.61,3.78-.92,38.4-9.11,95.94,19.66,114.05,55.63,18.11,35.96,33.68,49.95,62.8,100.34,29.12,50.39,85.48,127.44,95.71,194.14,10.23,66.7.92,104.31.92,104.31"/></svg>